<?xml version="1.0" standalone="no"?>
<!DOCTYPE svg PUBLIC "-//W3C//DTD SVG 1.1//EN" "http://www.w3.org/Graphics/SVG/1.1/DTD/svg11.dtd" >
<svg xmlns="http://www.w3.org/2000/svg" xmlns:xlink="http://www.w3.org/1999/xlink" version="1.1">
<metadata></metadata>
<defs>
<font id="sf_comic_script_shadedregular" horiz-adv-x="1268" >
<font-face units-per-em="2048" ascent="1638" descent="-410" />
<missing-glyph horiz-adv-x="543" />
<glyph horiz-adv-x="0" />
<glyph unicode="&#xd;" horiz-adv-x="1024" />
<glyph unicode=" "  horiz-adv-x="543" />
<glyph unicode="&#x09;" horiz-adv-x="543" />
<glyph unicode="&#xa0;" horiz-adv-x="543" />
<glyph unicode="!" horiz-adv-x="927" d="M285 145q0 24 7 48q8 32 25 61t40.5 52.5t51 40.5t57.5 25q4 9 10.5 19t11.5 20l-106 -10q21 102 47 219.5t54 240.5t57.5 246t58.5 234h126q11 38 19 72.5t17 69.5l328 5q-30 -92 -65.5 -203t-72.5 -231t-74 -244.5t-70 -242.5l-126 -11l-10 -35h10q51 0 81 -29.5 t30 -78.5q0 -24 -7 -48q-9 -31 -26 -59.5t-40 -52t-51 -40.5t-59 -25q-14 -30 -35 -56.5t-47 -46.5t-55.5 -32.5t-60.5 -14.5h-15q-51 0 -81 29t-30 78zM497 340q-16 -55 10.5 -87.5t79.5 -28.5q53 5 97.5 44t57.5 94q14 54 -10.5 86.5t-77.5 27.5q-53 -3 -98.5 -42.5 t-58.5 -93.5zM597 592l180 16q133 471 257 836l-244 -4q-112 -443 -193 -848z" />
<glyph unicode="&#x22;" horiz-adv-x="1215" d="M483 882l46 156l22 22l-22 2l75 278l125 5l39 138l329 14l-1 -4l319 16l-62 -272l-150 -78l-13 -65l-388 -201l45 157l20 20l-17 2zM708 1099l289 150l47 203l-247 -12l-53 -194l56 -5l-70 -72zM1029 1109l287 151l46 203l-246 -12l-54 -195l58 -5l-72 -72z" />
<glyph unicode="#" horiz-adv-x="1323" d="M387 635l50 254l126 9l16 51l-127 -7l65 244l126 10l43 152h125l37 144h241l-33 -120l28 -2l41 149l235 -9l-37 -136l133 8l-96 -247l-104 -7l-15 -58l118 7l-48 -254l-139 -9l-23 -135l-139 -8l-34 -123l-235 8l27 101l-27 -2l-33 -117h-239l26 104zM601 824l111 5 l-28 -104h157l31 115l114 7l-29 -105l154 -6l32 119l135 9l31 167l-123 -7l39 143l110 9l61 159l-128 -9l39 142l-153 5l-43 -157l-113 -7l36 138h-157l-39 -148l-126 -10l-43 -157l126 6l-37 -140l-125 -6zM918 1007l38 143l112 7l-37 -142z" />
<glyph unicode="$" horiz-adv-x="1516" d="M114 -328l69 442q4 0 16 1t25 2.5t24.5 3t16.5 2.5q17 2 32 4t29 4l19 125q4 1 15.5 2.5t24 3t24 2.5t16.5 1q48 8 81 13t55 9q12 2 24.5 5t25.5 5q-8 14 -16 32.5t-22 40.5l2 -1q-44 78 -72 137t-42 96q-17 51 -25.5 98t-8.5 92q0 26 2.5 50t9.5 49q18 64 52 125.5 t88 121.5q35 44 75.5 78.5t84.5 61.5q0 2 2 4q41 48 87 85.5t94 64.5q14 40 30 82.5t33 84.5l111 10q13 32 26.5 66t26.5 68l404 34q-5 -12 -13 -33t-16.5 -45t-17 -48.5t-14.5 -42.5q-8 -18 -13 -36.5t-13 -40.5h43q49 0 109 -1t118 -3l-164 -436l-111 -6l-51 -138 l-335 -12q7 -17 16 -32.5t20 -33.5q31 -51 53 -89t39 -67q18 -31 29.5 -50.5t16.5 -32.5l-1 8q51 -102 51 -196q0 -22 -3.5 -44.5t-8.5 -44.5q-26 -94 -81.5 -172t-142.5 -140l-16.5 -77t-15.5 -61q-9 -36 -24.5 -81.5t-35.5 -96.5l-116 -10q-9 -29 -21.5 -63t-26.5 -70 l-406 -36q16 40 32 83.5t30 88.5q-67 -14 -153.5 -25.5t-195.5 -20.5zM328 -138q216 20 355 54q-34 -126 -55 -179l317 29q26 63 43 133q16 58 36 159q174 118 220 292q33 118 -36 259q-1 2 -136 229q-75 121 -57 189q9 31 37 60t56 29l440 17l130 352q-178 5 -268 2 q54 160 83 242l-319 -27q-61 -164 -92 -245q-49 -13 -99 -35q-114 -52 -210.5 -162t-127.5 -222q-32 -118 21 -267q25 -73 112 -228q62 -115 53 -149q-10 -41 -32 -61.5t-69 -38.5q-70 -31 -177 -50q-51 -10 -172 -27z" />
<glyph unicode="%" horiz-adv-x="1812" d="M220 -270l615 864q-35 -13 -68.5 -21.5t-66.5 -11.5q-8 -1 -17 -1h-16q-134 0 -204 97q-45 72 -45 160q0 54 15 113q45 162 183 290h-2q26 23 50.5 43t50.5 34q16 18 31 34.5t32 32.5h-1q70 66 145 101t155 42q9 2 18 2h18q90 0 148.5 -47t90.5 -141l68 99l51 -17 l111 159l266 -77l-570 -787q31 11 61 19t62 10q9 2 17 2h17q197 0 248 -220l-17 -9q12 -36 12 -75q0 -23 -4 -48t-12 -51q-40 -154 -184 -271l-2 1q-17 -15 -34 -27.5t-34 -23.5q-20 -26 -42.5 -48.5t-51.5 -45.5v2q-72 -60 -145 -92.5t-147 -38.5q-9 -2 -18 -2h-18 q-66 0 -113.5 25t-82.5 74q-15 20 -24.5 43t-16.5 46l-54 -77l-64 -4l-99 -138zM464 -79l217 12l299 410q-11 -24 -17 -46q-40 -145 28.5 -243t206.5 -86q131 12 259 116t163 237q30 111 -11 189l23 12q-43 179 -243 161q-128 -11 -242 -108l636 877l-196 57l-292 -413l2 7 q31 109 -12 189l22 12q-42 177 -240 160q-142 -13 -265.5 -127.5t-163.5 -259.5q-37 -145 30.5 -243t207.5 -86q128 11 254 114zM843 1094q15 60 62 107t104 52q49 5 76 -24l-29 -14q60 -29 38 -114q-14 -53 -63.5 -95.5t-100.5 -46.5q-56 -5 -79 37t-8 98zM1167 314 q17 60 64 107t104 52q49 5 73 -24l-26 -14q58 -31 36 -114q-15 -53 -63 -95.5t-99 -46.5q-56 -5 -81 36t-8 99z" />
<glyph unicode="&#x26;" horiz-adv-x="1845" d="M253 65q0 52 15 111q28 106 100 200t187 174q4 2 6.5 4.5l6.5 6.5q-117 111 -117 260q0 52 15 111q29 106 92.5 188.5t158.5 139.5q90 117 244 184t382 87q57 5 159 7.5t252 2.5q52 0 104 -3t106 -11l-174 -378q-41 9 -92 13l-72 -157q-124 26 -278 26q-48 0 -98.5 -2.5 t-104.5 -6.5q-37 -4 -68 -9t-58 -11q8 -20 36 -36.5t75 -33.5q44 -17 86.5 -25.5t82.5 -12.5l29 135l329 -66q-11 -50 -24.5 -116t-29 -144t-33 -167t-36.5 -186q17 4 35.5 10.5t38.5 11.5l-36 -343q-38 -9 -76.5 -19.5t-73.5 -18.5l-12 -104q-166 -48 -330.5 -77.5 t-330.5 -43.5q-22 -2 -42 -2.5t-40 -0.5q-169 0 -285 71q-129 85 -129 231zM474 323q-56 -205 103 -306q133 -84 346 -65q333 29 608 106l27 259q-37 -12 -77 -18q84 418 125 626l-247 51l-28 -124q-106 -4 -227 37q-152 55 -129 138q40 154 344 181q285 26 454 -8l133 290 q-56 7 -167 7q-299 0 -408 -10q-563 -50 -659 -408q-59 -226 137 -374q-277 -159 -335 -382zM785 369q29 112 169 182q106 51 230 63q24 2 99 6l-87 -364q-124 -26 -160 -29q-96 -7 -174 22q-101 36 -77 120zM824 353q0 -22 16.5 -37t46.5 -26q29 -11 61 -15.5t64 -4.5h17 l38 160h-9q-17 0 -28.5 -1t-19.5 -1q-48 -5 -93 -15.5t-88 -28.5l-1 -12q-2 -5 -3 -10t-1 -9z" />
<glyph unicode="'" horiz-adv-x="811" d="M461 862l44 157l22 20l-22 4l77 278l125 5l37 137l329 15l-61 -271l-150 -77l-14 -65zM686 1079l287 150l48 203l-246 -10l-55 -195l57 -7l-70 -70z" />
<glyph unicode="(" horiz-adv-x="1201" d="M256 126q0 100 19 214t54 249q36 135 85.5 254.5t111.5 228.5q62 106 151 222.5t207 244.5l36 -5q28 36 60.5 73t67.5 74l398 -36q-431 -435 -543 -855q-32 -121 -47 -224.5t-15 -191.5v-41q5 -103 41.5 -211.5t105.5 -223.5l-208 -62q9 -19 21 -39.5t25 -40.5l-437 -128 q-121 237 -131 452q0 12 -1 23.5t-1 22.5zM468 241q6 -210 116 -422l334 99q-111 186 -121 396q-10 195 63 473q116 433 499 819l-304 27q-210 -225 -330 -428q-121 -210 -191 -469q-78 -292 -66 -495z" />
<glyph unicode=")" horiz-adv-x="1201" d="M68 -311q135 133 234 253t159 229q57 99 104.5 216.5t83.5 252.5q37 142 37 282q0 268 -140 515l208 53q-10 22 -21 44.5t-25 45.5l439 110q54 -112 84 -218t35 -206q2 -18 3 -36.5t1 -38.5q0 -89 -16 -188t-46 -209q-40 -151 -90.5 -280.5t-113.5 -238.5 q-66 -116 -161 -239.5t-223 -259.5l-31 6q-31 -38 -64 -74t-68 -73zM314 -135l299 -42q230 240 355 462q121 215 198 505q70 260 56 458q-10 192 -106 392l-336 -85q189 -336 73 -770q-73 -276 -193 -483q-128 -222 -346 -437z" />
<glyph unicode="*" horiz-adv-x="1386" d="M312 469l270 256l-246 -29l133 357l101 -19l61 162l144 -25l31 172l141 17l22 127l378 46l-142 -352l273 97l-17 -336l-155 -15l-7 -128h-12l56 -74l-176 -128l14 -13l-357 -260l-47 188l-47 -65l-41 24l-122 -166zM543 626l186 -119l223 300l67 -273l261 190l-177 223 l317 34l14 241l-297 -104l146 365l-279 -34l-64 -355l-285 51l-97 -258l302 38z" />
<glyph unicode="+" horiz-adv-x="1193" d="M288 454l45 305l143 7l19 135l106 7l17 80l131 2l33 140l286 7l-47 -210l230 12l-44 -306l-144 -7l-19 -136l-126 -5l-17 -75l-131 -4l-31 -140l-287 -5l45 202zM500 642l212 10l-45 -203l203 3l48 210l253 12l30 219l-233 -12l49 210l-205 -4l-49 -215l-231 -12z" />
<glyph unicode="," horiz-adv-x="811" d="M193 -133l44 155l22 21l-22 3l77 278l125 5l37 137l330 15l-62 -271l-148 -77l-14 -65zM420 84l287 150l47 203l-247 -12l-55 -195l58 -5l-71 -71z" />
<glyph unicode="-" d="M317 408l118 328l115 10l47 133q88 8 182.5 18t183.5 20.5t168.5 20.5t138.5 18l-98 -314q-32 -7 -63.5 -11.5t-62.5 -9.5l-37 -121q-165 -31 -337.5 -54t-354.5 -38zM539 599q311 27 603 80l71 227q-237 -34 -587 -68z" />
<glyph unicode="." horiz-adv-x="838" d="M205 155q0 12 1.5 25t5.5 27q9 33 27 62.5t42 54.5t53 44.5t60 30.5q17 32 42 60t55 49t63 34t66 16h15q59 0 95 -33.5t36 -89.5q0 -11 -1 -24.5t-6 -26.5q-8 -34 -26 -64.5t-42.5 -56t-54.5 -45t-61 -30.5q-17 -32 -41.5 -59.5t-53.5 -48t-61.5 -33.5t-65.5 -16h-15 q-60 0 -96.5 33.5t-36.5 90.5zM416 353q-17 -63 16.5 -102t94.5 -34q62 7 117.5 53t72.5 109q17 61 -15.5 100.5t-94 34.5t-118 -52t-73.5 -109z" />
<glyph unicode="/" horiz-adv-x="1171" d="M9 -321q45 100 96.5 211t107.5 227.5t116 235.5t120 236q68 132 138 264t138.5 256.5t133 239t121.5 213.5l70 -21q24 42 47.5 83.5t47.5 78.5l347 -99q-62 -107 -128.5 -227t-136 -247.5t-139.5 -259.5t-139 -264v2q-59 -116 -116 -231t-110 -225t-101 -212t-88 -191 l-90 17q-20 -41 -38.5 -82t-35.5 -78zM229 -143l285 -57q162 355 399 814q271 528 517 958l-275 78q-232 -394 -506 -925q-239 -467 -420 -868z" />
<glyph unicode="0" horiz-adv-x="1756" d="M312 230q0 70 11.5 144t33.5 155q40 151 104.5 283.5t154.5 250.5q54 71 111 126t116 94q103 112 213 173t234 71q14 2 27 2h26q88 0 159 -27.5t121 -79.5t78.5 -127t32.5 -170l-53 -41q14 -40 20.5 -83t6.5 -91q0 -99 -30 -214q-74 -278 -285 -510q-43 -46 -86 -83.5 t-87 -68.5q-118 -125 -241.5 -192.5t-256.5 -78.5q-11 -2 -23 -2h-21q-125 0 -207.5 60.5t-124.5 185.5q-17 53 -25.5 108t-8.5 115zM551 176q82 -249 347 -225q249 22 466 259q199 215 271 483q63 235 -7 396l62 46q-7 179 -116.5 272t-295.5 78q-256 -24 -467 -297 q-173 -224 -250 -512q-78 -290 -10 -500zM817 398q-11 107 35 278q123 461 353 481q92 9 151 -41.5t57 -140.5l-82 -65q48 -103 7 -253q-38 -143 -128 -256q-107 -136 -237 -148q-137 -12 -156 145zM858 435q0 -10 2 -19q15 -119 109 -119h16q14 2 27 4.5t27 7.5 q65 91 93 201q15 54 15 106q0 80 -36 152l96 73q-9 60 -50 96t-106 36q-5 0 -10 -1t-10 -1q-14 -3 -24 -3q-32 -54 -60 -126t-53 -163q-36 -135 -36 -223v-21z" />
<glyph unicode="1" horiz-adv-x="1376" d="M244 -282l97 364l127 10l35 132l21 1q27 109 69.5 271.5t102.5 382.5q-40 -17 -88 -36t-106 -39l-96 295q47 20 91.5 41t89.5 41l-19 61q160 70 297.5 136.5t259.5 133.5l252 2q-11 -41 -22.5 -82t-22 -78.5t-19 -69t-13.5 -52.5q-68 -252 -129 -492.5t-115 -474.5 l169 13l-95 -351q-29 -2 -60 -4t-66 -3l-36 -137q-41 -2 -90 -4.5t-99.5 -6t-100.5 -7t-94 -7.5q-43 -4 -90 -9t-92.5 -10.5t-86 -11t-71.5 -9.5zM463 -89q122 19 295 34q177 16 343 23l70 262l-167 -13q114 488 254 1012q20 80 66 240l-203 -1q-240 -128 -495 -241l72 -225 q143 49 222 94q-201 -765 -234 -898l-152 -14z" />
<glyph unicode="2" horiz-adv-x="1671" d="M140 -285q96 118 191 234.5t182 222.5t162.5 196t131.5 156q38 42 92.5 105t126.5 148q27 35 43.5 60.5t21.5 44.5q5 18 5 31q0 35 -26 58q-15 14 -34.5 20t-43.5 6h-21q-11 -2 -23 -4.5t-23 -7.5q-7 -9 -13 -20.5t-11 -22.5l-58 -3q-32 -26 -58 -61t-46 -78l-374 -25 q51 135 124.5 241.5t172.5 186.5l-2 -2q16 14 31.5 26t32.5 22q23 26 48.5 50t51.5 46h-1q195 157 414 177q14 2 28 2h27q89 0 159 -26t123 -81q88 -92 88 -227q0 -31 -4 -63t-13 -67q-17 -56 -41.5 -109.5t-62.5 -107.5q-20 -33 -58 -80.5t-92 -112.5q-99 -117 -174.5 -208 t-131.5 -162l116 10q33 3 72 6.5t79 8t78.5 9t69.5 7.5l-101 -369q-29 -4 -61.5 -7.5t-67.5 -5.5l-34 -128q-50 -7 -109.5 -14t-123 -13.5t-128.5 -13t-126 -11.5q-60 -5 -135 -10.5t-155.5 -11.5t-162.5 -12t-156 -10zM387 -94q296 19 536 39q243 21 446 46l77 280 q-125 -13 -256 -25q-118 -10 -185 -12q115 150 359 438q104 125 145 185q66 100 94 199q52 202 -65 325q-113 114 -312.5 97t-380.5 -163t-258 -351l294 19q39 84 110.5 138.5t153.5 61.5q79 7 123 -33q50 -42 27 -123q-10 -46 -76 -128q-146 -170 -219 -252 q-227 -266 -613 -741z" />
<glyph unicode="3" horiz-adv-x="1686" d="M263 94q0 74 24 164l141 15q3 31 8.5 62t15.5 66l376 43q-3 -13 -3.5 -25t-0.5 -23q0 -62 29 -89q37 -31 86 -31h11t11 2q14 2 28 4.5t30 9.5q8 16 14 34q5 25 5 41q0 106 -181 106q-16 0 -31 -1t-32 -3l-67 -6q-12 -2 -32.5 -4l-41 -4t-37 -3.5t-20.5 -2.5l373 543 l-495 -36l103 379l128 10l34 133l1106 80l-417 -585q92 -36 138.5 -110t46.5 -180q0 -36 -5.5 -75.5t-16.5 -81.5q-65 -240 -284 -425q-37 -31 -75 -58q-20 -22 -42 -43.5t-45 -42.5q-109 -93 -220.5 -143.5t-229.5 -60.5q-14 -2 -28 -2h-27q-89 0 -160 26t-127 81 q-90 92 -90 236zM483 362q-55 -202 68 -326q118 -115 319 -97q217 18 417.5 190.5t260.5 392.5q44 162 -3.5 273t-180.5 149l401 565l-995 -70l-77 -292l515 36l-370 -541q15 1 61 7q43 5 69 6q326 29 271 -182q-26 -91 -113 -161t-177 -78q-82 -7 -130 36q-51 46 -39 126z " />
<glyph unicode="4" horiz-adv-x="1734" d="M183 -92l80 300q186 244 301.5 392.5t154.5 196.5q64 82 128.5 163t127 157t121.5 145.5t112 130.5h41q31 37 62.5 72.5t60.5 68.5l374 9q-54 -192 -97 -344.5t-73 -260.5t-47 -169t-20 -71l-45 -166l152 14l-94 -396l-133 -12l-30 -131l-28 -2l-22 -95l-130 -11 l-34 -133l-415 -31l64 226q-58 -5 -121.5 -12t-131.5 -12q-41 -4 -87 -8t-93.5 -7.5t-93 -7zM399 99q156 10 318 24q160 14 293 29l-61 -227l326 24l58 227l157 13l73 309l-152 -13q31 123 55 208q10 39 227 805l-312 -6q-210 -241 -468 -569q-75 -95 -447 -580zM864 439 q237 320 356 479l-128 -461q-51 -12 -100 -15q-55 -5 -128 -3z" />
<glyph unicode="5" horiz-adv-x="1650" d="M229 89q0 37 5.5 78.5t18.5 86.5l140 17q1 27 6 56.5t14 61.5l-82 27q21 48 48 107t58 124t63.5 133.5t64.5 135.5q68 141 124 250.5t101 192.5q16 0 32.5 -1t34.5 -1h19q20 40 39.5 76.5t36.5 68.5q23 -2 48.5 -3t54.5 -1q82 0 184.5 6t224.5 17q11 1 28 2t39 3 q13 0 28 0.5t33 2.5q21 0 37 1t33 3l18 2t22 3t31 4.5t44 7.5l-173 -379l-102 -7l-62 -137l-358 -18q-2 -7 -4 -12.5t-5 -10.5q21 3 41.5 6t42.5 5q17 1 33 2t32 1q94 0 163.5 -26.5t118.5 -77.5q75 -84 75 -213q0 -36 -6.5 -75.5t-17.5 -83.5q-65 -240 -284 -427l-38 -30 t-37 -28q-20 -22 -42 -43t-45 -40q-216 -186 -450 -207q-14 -2 -28 -2h-27q-175 0 -287 108q-88 89 -88 234zM447 360q-54 -203 68 -328q120 -114 320 -97q216 21 416.5 192.5t260.5 391.5q60 223 -48 341q-100 113 -319 94q-66 -7 -135 -24q34 97 125 261l445 21l128 285 q-47 -7 -128 -12q-95 -5 -128 -9q-334 -29 -481 -20q-80 -145 -205 -405q-129 -268 -215 -460l244 -81q99 135 243 147q90 9 138.5 -43.5t26.5 -144.5q-27 -92 -113 -161t-177 -78q-82 -6 -130 38q-51 44 -39 125zM765 437l27 3q-3 -13 -3.5 -25t-0.5 -22q0 -62 29 -89 q20 -16 41 -22.5t48 -6.5h19q29 2 58 13q4 8 7.5 17t6.5 19q2 12 3.5 21.5t1.5 19.5q0 41 -26 70q-18 18 -40.5 28t-51.5 10q-5 0 -10 -1t-10 -1q-55 -5 -99 -34z" />
<glyph unicode="6" horiz-adv-x="1575" d="M195 109q0 34 4.5 69t15.5 73q25 99 169 305l565 813l68 5l94 136l413 36l-381 -548q102 0 177 -22.5t131 -70.5q49 -44 73 -100t24 -129t-22 -155q-32 -118 -101.5 -222.5t-178.5 -197.5q-17 -14 -35.5 -29t-36.5 -28q-20 -22 -43.5 -43.5t-46.5 -43.5 q-214 -180 -444 -201q-30 -3 -58 -3q-188 0 -297 117q-90 97 -90 239zM420 396q-56 -215 65 -347q119 -124 331 -105q211 17 410 185t257 388q63 236 -66 350q-118 106 -352 84l381 546l-320 -28l-546 -786q-136 -198 -160 -287zM719 430q22 89 109 158t174 78q87 6 139 -50 t28 -145q-26 -92 -107.5 -158.5t-170.5 -75.5q-92 -8 -143 45q-55 54 -29 148zM754 389q0 -43 31 -72q17 -17 41 -27t55 -10q5 0 10 1t12 1q13 1 24 2.5t24 5.5q4 8 6.5 16.5t6.5 17.5q3 11 4 20t1 18q0 43 -30 75q-20 20 -43 31.5t-51 11.5q-4 0 -9 -1t-10 -1 q-14 -2 -26.5 -5.5t-28.5 -8.5q-7 -14 -10 -31q-7 -21 -7 -44z" />
<glyph unicode="7" horiz-adv-x="1502" d="M275 -241q64 143 149.5 312t195.5 366q66 121 107 195.5t58 103.5q38 63 73 122t70 113q-42 -2 -89.5 -2.5t-102.5 -2.5q-28 -1 -63.5 -2.5t-73.5 -2.5t-77.5 -2.5t-74.5 -2.5l101 379q32 0 63 0.5t63 2.5l38 140q126 4 248 9t235.5 11t215 13t186.5 15q40 4 75 6.5 t71 6.5l23 -56q-115 -170 -243 -378.5t-272 -459.5q-124 -215 -226 -407.5t-180 -367.5l-94 7q-20 -37 -37 -75t-35 -75zM497 -56l327 -26q147 318 389 737q285 499 519 842q-368 -40 -991 -62l-77 -292q333 11 500 18q-82 -125 -179 -294q-33 -58 -164 -297 q-224 -404 -324 -626z" />
<glyph unicode="8" horiz-adv-x="1691" d="M234 77q0 28 4 57t13 61q65 248 281 402q-30 36 -44.5 81.5t-14.5 98.5q0 30 5 62t14 67q53 204 267 345q64 79 166 143q90 60 184.5 92.5t194.5 40.5q13 2 24 2h24q219 0 338 -189l-31 -24q46 -56 46 -142q0 -49 -15 -107q-21 -81 -64.5 -147t-108.5 -121 q70 -87 70 -207q0 -33 -5 -68t-15 -73q-31 -115 -103 -212.5t-187 -177.5q-3 0 -6 -3q-33 -37 -71.5 -71.5t-85.5 -66.5q-100 -69 -206 -109.5t-217 -49.5q-33 -3 -63 -3q-86 0 -157.5 23.5t-129.5 68.5q-107 87 -107 227zM456 341q-53 -199 83 -310q125 -101 328 -84 q206 19 394 149q208 145 265 351q58 224 -75 348q153 103 196 268q46 168 -58 246l39 31q-102 164 -336 143q-186 -15 -352 -123q-192 -124 -242 -307q-55 -203 67 -309q-241 -148 -309 -403zM761 398q24 87 113 148q77 56 165 63q87 9 142 -36q60 -47 36 -136 q-22 -87 -109 -149q-81 -56 -168 -64q-87 -7 -141 37q-60 50 -38 137zM800 370q0 -45 35 -71h-2q37 -31 101 -31h17q14 2 29 4.5t30 7.5l2 10q5 17 5 33q0 42 -34 70h2q-18 15 -42.5 23.5t-53.5 8.5q-6 0 -11.5 -1t-12.5 -1q-15 -1 -29.5 -4.5t-28.5 -7.5l-3 -10 q-3 -8 -3.5 -15.5t-0.5 -15.5zM971.5 998.5q20.5 76.5 98.5 133.5q68 52 145 59q84 7 126 -46l-44 -32q62 -34 38 -120q-17 -68 -87 -112q-62 -41 -132 -46q-77 -7 -121 40t-23.5 123.5zM1009 964q0 -33 22 -54q31 -33 78 -33q4 0 9 1t10 1h5q-12 37 -77 77l53 39 q-21 10 -47 10h-11q-5 0 -10 -1q-8 0 -14.5 -2t-12.5 -2q-3 -11 -4 -19.5t-1 -16.5z" />
<glyph unicode="9" horiz-adv-x="1584" d="M162 -280l514 570q-78 11 -136.5 45.5t-102.5 89.5q-70 93 -70 215q0 65 20 142q62 238 291 414q10 8 20 16.5t21 14.5q26 29 56 57.5t65 55.5q108 82 217 128.5t226 57.5q13 1 26 1h26q134 0 227 -61.5t146 -190.5l-27 -22q11 -30 17.5 -61.5t6.5 -66.5q0 -66 -21 -144 q-19 -68 -65.5 -144.5t-121.5 -160.5l-732 -807h-35l-129 -144zM413 -92l343 3l713 789q139 153 173 278q44 169 -17 276l29 23q-96 230 -383 204q-215 -18 -413 -172q-208 -162 -266 -382q-51 -195 48 -325q94 -122 280 -131zM889 954q26 92 121 162q89 65 183 74 q104 8 152 -60l-43 -34q51 -48 29 -132q-24 -87 -106 -147q-75 -52 -162 -59q-97 -9 -147 44q-52 53 -27 152zM925 911q0 -43 27 -73q38 -38 99 -38q5 0 10.5 1t11.5 1q14 2 25.5 2.5t24.5 4.5l3 8q2 5 3 11.5t1 11.5q0 51 -60 105l46 36q-33 21 -77 21h-20q-20 -2 -39.5 -6 t-39.5 -13q-2 -6 -4 -12.5t-4 -13.5q-7 -24 -7 -46z" />
<glyph unicode=":" horiz-adv-x="881" d="M225 159q0 25 7 49q9 33 27 62.5t42 55t53 44.5t61 31q16 32 41 59.5t55 48.5t63 34.5t66 16.5h15q60 0 96 -34t36 -89q0 -11 -1.5 -24.5t-5.5 -26.5q-8 -34 -26 -65t-43 -56.5t-54.5 -45t-60.5 -30.5q-17 -32 -41.5 -59t-54 -48t-61.5 -34t-65 -16h-16q-59 0 -96 35 t-37 92zM404 828q0 25 7 49q9 32 27 62t42 55t53 44.5t61 31.5q16 31 41 59t55 49t63 34.5t66 16.5h16q60 0 95.5 -34t35.5 -91q0 -11 -1.5 -24.5t-5.5 -26.5q-9 -33 -27 -64t-42 -56.5t-53.5 -45t-61.5 -30.5q-17 -32 -41.5 -59t-54 -48t-61.5 -33.5t-65 -15.5h-15 q-60 0 -97 34.5t-37 92.5zM437 355q-17 -63 16 -102.5t95 -34.5q61 7 116.5 54t72.5 110q17 62 -15.5 100.5t-93.5 33t-117.5 -52.5t-73.5 -108zM616 1024q-17 -63 16.5 -102.5t94.5 -34t117.5 52t71.5 110.5q18 61 -14.5 100.5t-94 34t-118 -52.5t-73.5 -108z" />
<glyph unicode=";" horiz-adv-x="835" d="M172 -135l45 155l22 21l-22 3l77 279l124 5l38 136l329 16l-61 -272l-149 -77l-14 -64zM399 82l287 150l48 201l-248 -10l-54 -194l58 -7l-72 -70zM413 829q0 24 7 48q9 33 27 62.5t42 55t53 44.5t60 31q16 32 41 60t55.5 49t63.5 34t66 16h15q60 0 96 -34t36 -91 q0 -25 -7 -49q-9 -34 -27 -65t-42.5 -56.5t-54 -45t-61.5 -30.5q-17 -32 -41 -59t-53.5 -48t-62 -34t-65.5 -16h-15q-29 0 -53.5 9.5t-42 26t-27.5 40t-10 52.5zM625 1024q-17 -63 16 -102.5t95 -32.5q61 5 117.5 52t71.5 110q17 62 -15.5 100.5t-94 33t-117.5 -52.5 t-73 -108z" />
<glyph unicode="&#x3c;" horiz-adv-x="1111" d="M290 584l360 536h67l95 141l407 10l-359 -513l103 -482l-190 -17l26 -126l-412 -36zM500 732l91 -445l317 27l-94 440l328 471l-314 -6z" />
<glyph unicode="=" horiz-adv-x="1311" d="M273 244l142 317q26 3 51.5 5.5t52.5 6.5l8 19q-37 -1 -73.5 -2t-66.5 -3l113 309q10 1 26 2t32.5 1.5t31.5 1.5t23 2l49 135q10 1 26 2t32.5 2t31.5 2t23 2q29 2 51 3t36 2q98 9 216 25.5t260 41.5l-97 -297q-32 -8 -63.5 -15.5t-63.5 -13.5l-8 -27q40 5 76 9t66 9 l-101 -312q-27 -4 -57.5 -6.5t-65.5 -7.5l-43 -129q-45 -5 -105.5 -11.5t-133 -14.5t-154 -17.5t-166.5 -19.5q-11 -2 -31 -4.5t-42.5 -5.5t-43 -6t-32.5 -5zM502 440q409 50 614 70l74 222q-222 -31 -589 -68zM609 777q98 3 181 10q224 20 420 70l68 210q-240 -43 -428 -58 q-43 -5 -159 -12z" />
<glyph unicode="&#x3e;" horiz-adv-x="1114" d="M217 82l370 522l-92 480l186 15l-24 126l415 38l90 -473l-370 -529l-67 -5l-97 -138zM459 275l318 27l337 485l-81 428l-320 -27l84 -435z" />
<glyph unicode="?" horiz-adv-x="1348" d="M335 150q0 12 1 23.5t5 24.5q8 31 25 59.5t40 52t51 40.5t58 25q3 8 8 16.5t9 16.5l-124 -5q4 11 10.5 31t13.5 44t14.5 48.5t12.5 43.5q8 24 19 58t23 72t24.5 78t24.5 77q32 4 62 7.5t59 6.5q10 33 21 65.5t21 63.5q53 6 102 12t90 10.5t71.5 8t47.5 5.5 q-29 29 -111 29q-26 0 -56 -3q-98 -9 -180 -22.5t-153 -33.5l34 305q38 11 75 18.5t75 13.5l12 111q150 39 316 52l82 6q46 6 85 6q76 0 136 -15.5t107 -44.5q107 -70 107 -200q0 -26 -4.5 -53t-12.5 -56q-29 -104 -89 -183t-157 -133q-125 -171 -404 -230l-12 -40l-123 -6 l-7 -29q47 -3 72 -30.5t25 -75.5q0 -12 -1 -24.5t-5 -26.5q-18 -67 -65.5 -115.5t-110.5 -64.5q-27 -61 -79.5 -101t-118.5 -45h-16q-51 0 -80.5 29t-29.5 78zM546 345q-15 -55 11.5 -88t79.5 -28q54 5 97 42.5t58 93.5q15 57 -9.5 89t-79.5 27q-53 -5 -98 -44t-59 -92z M626 591l219 11l49 161q511 46 599 380q52 192 -78 274q-109 68 -307 51l-84 -7q-157 -14 -263 -41l-25 -220q105 31 297 46q237 22 201 -109q-17 -65 -87 -106q-58 -34 -126 -41q-52 -4 -279 -31q-83 -266 -116 -368z" />
<glyph unicode="@" horiz-adv-x="1679" d="M319 432q0 40 6.5 82t17.5 88q33 131 106.5 242.5t187.5 208.5q17 15 35.5 29.5t39.5 30.5q19 20 40.5 41t46.5 41q113 97 229.5 149.5t244.5 63.5q13 2 25 2h26q265 0 372 -265l-32 -19q14 -35 20.5 -71.5t6.5 -76.5q0 -36 -5.5 -75t-16.5 -80q-65 -242 -287 -432 q-17 -16 -35.5 -29t-35.5 -26q-22 -23 -44 -44t-48 -43q-110 -93 -223 -144.5t-231 -61.5q-14 -2 -27 -2h-26q-204 0 -316 145q-77 106 -77 246zM548 749q-63 -234 51 -386.5t338 -133.5q220 20 424 192.5t265 397.5q50 185 -17 314l31 19q-95 237 -380 212 q-234 -21 -440.5 -198.5t-271.5 -416.5zM719 763q44 169 185.5 290t305.5 135q181 17 251 -121l-31 -21q67 -92 26 -239q-39 -152 -180 -270.5t-290 -132.5q-155 -13 -232.5 93.5t-34.5 265.5zM748 688q30 66 63.5 134.5t65.5 134.5q-9 -4 -16.5 -8.5t-15.5 -9.5 q-60 -76 -84 -171q-6 -22 -9.5 -41.5t-3.5 -38.5zM802 507l128 12l39 99q79 7 135 -2l-5 -84l128 12q0 328 39 593l-167 -4q-200 -396 -297 -626zM1012 724q80 179 125 266q-19 -176 -23 -263q-41 3 -76 2q-11 -2 -26 -5zM1108 476q22 7 41 19l-40 -3v-6q0 -6 -1 -10z" />
<glyph unicode="A" horiz-adv-x="1389" d="M-38 -299q63 148 148 333.5t186 397t214.5 444.5t235.5 476l92 1q17 35 34.5 70t37.5 72l484 12q-50 -343 -75 -732t-27 -824l-162 -43v-101l-411 -111l20 284q-38 4 -78 6t-82 4l-58 -150l-106 3l-57 -145zM188 -113l309 -3l105 278q38 5 69 9q51 4 100 4q93 0 174 -15 l-18 -266l324 87q2 833 94 1480l-417 -9q-486 -972 -740 -1565zM713 430q202 446 311 667q-24 -141 -38 -332q-6 -166 -15 -328q-51 6 -106 6q-44 0 -90 -4q-27 -4 -62 -9z" />
<glyph unicode="B" horiz-adv-x="1510" d="M3 -236q85 -10 170 -16t173 -6q69 0 139 3.5t143 10.5q115 9 220.5 43t202.5 92q121 73 193 164q217 139 277 360q15 55 15 107q0 142 -123 237q120 89 194 187.5t103 207.5q15 58 15 107q0 258 -436 258q-80 0 -171 -9q-18 -1 -44 -3.5t-57 -6.5q-11 -2 -23.5 -2.5 t-24.5 -2.5q-14 -2 -28.5 -3.5t-25.5 -3.5q-31 -4 -54.5 -6t-41.5 -4q-101 -8 -230 -41l-12 -113q-35 -5 -72.5 -12.5t-77.5 -16.5l-41 -368q26 8 50 13.5t50 10.5q-89 -288 -156 -498.5t-110 -346.5q-18 2 -33.5 5t-32.5 5zM224 -56l116 268q32 -7 68 -7q90 278 299 944 q-58 -11 -111 -26l34 282q85 22 179 29q48 5 148.5 17t150.5 17q88 8 163 8q410 0 409 -234q0 -42 -13 -92q-58 -218 -329 -399q154 -92 154 -244q0 -46 -14 -97q-55 -207 -275 -338q-186 -111 -399 -130q-160 -14 -301 -14q-150 0 -279 16zM684 210q61 -1 99 -1t53 1 q96 8 195 53q124 58 147 140q6 24 6 45q0 78 -85 115q-66 28 -156 28q-25 0 -52 -2q-10 -2 -99 -12zM737 253l45 151q72 -2 128 -25h-2q67 -32 67 -87v-12q-32 -11 -64 -17t-63 -9q-10 -1 -38 -1h-73zM824 1166l140 -79l-95 -276h3q396 36 451 240q4 16 4 30q0 104 -238 104 q-61 0 -137 -7q-83 -7 -128 -12zM925 858l48 139q147 -11 147 -74q0 -4 -1 -8.5t-3 -9.5v-4q-40 -15 -86.5 -25t-104.5 -18z" />
<glyph unicode="C" horiz-adv-x="1439" d="M147 222q0 67 10 138t31 147q79 302 295 553q97 112 200 184q237 251 505 273q15 2 30.5 3t30.5 1q164 0 267.5 -84.5t145.5 -255.5l-177 -92q4 -13 7.5 -25t7.5 -26l-377 -191q-59 114 -176 114h-19q-39 -6 -73 -19q-44 -62 -75 -132t-53 -150q-15 -55 -23 -103.5 t-8 -90.5q0 -18 1.5 -33.5t3.5 -31.5q8 -59 37.5 -88.5t75.5 -29.5h15q23 3 46 8.5t45 15.5q19 29 35 62t31 71l79 -18q24 33 45 73.5t40 88.5l342 -79q-61 -137 -142.5 -244.5t-187.5 -188.5q-10 -8 -19.5 -15.5t-21.5 -15.5q-55 -60 -121 -113q-104 -79 -211 -123.5 t-222 -55.5q-12 -2 -24 -2h-22q-125 0 -207.5 59t-127.5 180q-20 54 -29.5 113.5t-9.5 122.5zM391 155q81 -220 305 -220q22 0 46 2q212 19 402.5 166.5t287.5 365.5l-260 62q-44 -115 -144 -198.5t-209 -93.5q-10 -1 -19 -1q-119 0 -143 141q-5 32 -5 67q0 92 32 209 q46 174 144 308q123 170 275 184q17 2 32 2q127 0 177 -103l297 150q-73 280 -371 280q-30 0 -62 -3q-268 -22 -502 -292q-203 -237 -281 -529q-39 -145 -39 -271q0 -122 37 -226z" />
<glyph unicode="D" horiz-adv-x="1464" d="M101 -290q11 49 24.5 105t27.5 113.5t28.5 114t28.5 105.5q53 202 115.5 404t131.5 404q-36 -11 -90 -28l44 371q40 10 78.5 18t70.5 14l15 111q133 34 231 41q31 3 60 4t57 1q147 0 269 -35.5t221 -105.5q100 -72 151 -168.5t51 -217.5q0 -44 -7.5 -90.5t-20.5 -97.5 q-91 -340 -391 -604q-22 -18 -42.5 -34.5t-42.5 -33.5q-18 -18 -37.5 -37t-39.5 -37q-152 -132 -307.5 -205t-322.5 -87zM317 -101l263 22q313 28 595 277t370 572q25 93 25 174q0 226 -191 363q-191 138 -474 138q-54 0 -111 -5q-91 -8 -181 -32l-31 -280q49 17 102 26 q-155 -429 -269 -859q-53 -198 -98 -396zM695 224q53 242 87 373q70 258 162 473l-106 96q208 -4 329 -104q101 -85 101 -214q0 -50 -15 -106q-52 -189 -210.5 -336t-347.5 -182zM748 276q44 12 86.5 31t83.5 46q94 109 130 243q6 24 10 47.5t4 45.5q0 114 -93 192l-46 32 q-28 -76 -52 -153.5t-47 -158.5q-15 -60 -34.5 -139.5t-41.5 -185.5z" />
<glyph unicode="E" horiz-adv-x="1355" d="M119 -292q19 85 40.5 175t43 179.5t43.5 176.5t42 165q38 137 78.5 274.5t82.5 277.5l-123 -4l89 371q33 1 65 2t64 3l35 138q91 3 183.5 7.5t181 10t170 11.5t151.5 12q41 4 90 9t101 10.5t104.5 11.5t100.5 12l-123 -393q-27 -2 -58 -2.5t-63 -2.5l-41 -137 q-37 -2 -79.5 -4t-86 -4.5t-85 -5.5t-75.5 -6l-75 -7q-7 -23 -12.5 -45t-10.5 -44q51 7 100 12.5t97 10.5q28 2 63.5 4.5t72.5 4t72.5 3t64.5 1.5l-106 -396h-63t-62 -1l-37 -140q-76 0 -144.5 -3t-128.5 -8q-18 -1 -37 -3.5t-37 -4.5q-6 -22 -10.5 -46t-9.5 -48 q58 8 114.5 14.5t113.5 11.5q33 2 73 5t81 5t80 4t72 3l-106 -395q-29 -1 -61 -1q-31 0 -63 -2l-38 -140q-53 -2 -112.5 -4.5t-120.5 -6.5t-120.5 -8.5t-112.5 -9.5t-112 -10.5t-120.5 -12.5t-121.5 -14.5t-114 -15.5zM336 -99q217 29 427 48q212 19 423 27l80 306 q-129 -4 -261 -16q-133 -12 -268 -30q11 75 31 151.5t51 155.5q120 20 236 30q117 11 232 11l83 307q-117 -4 -233 -14t-234 -27q17 94 42 188q19 66 35 117q124 16 242 26q140 12 288 19l94 300q-187 -22 -351 -37q-277 -24 -642 -40l-70 -283l126 5q-95 -304 -172 -594 q-84 -312 -159 -650z" />
<glyph unicode="F" horiz-adv-x="1316" d="M119 -290q15 72 36 160.5t46 189t53.5 210t59.5 222.5q29 106 60.5 219t69.5 233l-128 3l100 376l127 6l37 137q91 4 185 9t184.5 10.5t175 12t158.5 12.5q49 4 101 9.5t102.5 11t95.5 10.5t79 9l-123 -393q-25 -2 -55.5 -2.5t-65.5 -2.5l-41 -137q-27 -1 -61.5 -3 t-70.5 -4t-72 -4.5t-66 -5.5l-135 -12q-4 -20 -8 -41t-11 -46q51 7 100 12.5t97 10.5q28 2 63.5 4.5t72.5 4t72.5 3t64.5 1.5l-106 -396h-63t-62 -1l-37 -140q-76 0 -144.5 -3t-128.5 -8q-18 -1 -36 -3.5t-36 -4.5q-11 -35 -20.5 -69.5t-18.5 -70.5q-11 -41 -22.5 -87 t-22 -92.5t-20 -90.5t-16.5 -80l-134 -12q-8 -36 -16 -69t-13 -62zM336 -99l319 27q29 145 72 308q43 160 92 307q120 20 236 30q117 11 232 11l83 307q-117 -4 -233 -14t-234 -27q24 118 41 191q15 56 36 114q75 9 155 17l145 12q123 11 230 16l94 300q-136 -17 -333 -34 q-291 -26 -660 -43l-79 -290l130 -5q-82 -258 -143 -490q-123 -450 -183 -737z" />
<glyph unicode="G" horiz-adv-x="1471" d="M143 177q0 148 48 330q82 308 301 555q48 55 95.5 99t98.5 81q241 252 515 277q34 3 64 3q325 0 416 -331l-167 -128q0 -4 1.5 -6.5t3.5 -6.5l-367 -282q-36 195 -193 195q-6 0 -11.5 -1t-12.5 -1q-19 -2 -38 -7.5t-37 -13.5q-45 -62 -76.5 -130.5t-53.5 -145.5 q-15 -57 -22 -105.5t-7 -90.5q0 -37 6 -70q23 -113 126 -113h17q44 5 77 12q22 42 41.5 95t36.5 120q7 20 11.5 42.5t9.5 49.5l13 50l139 34q2 13 4.5 27.5t7.5 30.5l13 49l389 99l-254 -949l-128 -10l-36 -133l-368 -31l23 87q-79 -49 -158.5 -77.5t-163.5 -36.5 q-11 -2 -21 -2h-20q-238 0 -302 255q-21 84 -21 180zM369 164q59 -234 275 -234q19 0 39 2q196 17 375 158l-36 -129l285 25l229 852l-300 -75q-12 -58 -24 -104q-82 -307 -220 -379q-58 -31 -152 -39q-11 -1 -21 -1q-128 0 -155 137q-7 37 -7 79q0 89 31 204 q46 171 147 306q122 167 274 181q19 2 37 2q171 0 202 -168l280 217q-75 280 -377 280q-29 0 -61 -3q-272 -24 -507 -291q-207 -237 -287 -530q-47 -174 -47 -317q0 -93 20 -173z" />
<glyph unicode="H" horiz-adv-x="1432" d="M15 -273q11 48 24 104t27 114.5t29 117.5t30 114q39 145 82 294.5t87 296.5t88.5 288.5t86.5 272.5l116 2q12 36 24 71.5t22 70.5l396 7l-186 -613l159 -5q7 25 17 53q5 15 10.5 33.5t12.5 37.5v-1l132 406l117 2l46 141l394 7q-35 -105 -69 -213t-66.5 -214.5 t-62.5 -208.5t-55 -195q-24 -90 -47.5 -187t-46 -196.5t-44 -198t-39.5 -189.5l-135 -2q-8 -36 -14.5 -71.5t-12.5 -68.5l-400 -7l116 512l-174 7l-20 -75q-11 -38 -22 -84t-22 -94t-21 -94.5t-17 -86.5l-135 -1q-7 -38 -15 -73.5t-12 -66.5zM229 -87l314 7q32 159 73 310 q38 139 82 275l370 -15l-117 -512l315 5q72 365 168 724q100 372 239 790l-313 -7l-116 -360q-48 -150 -56 -178l-38 -138l-363 10l186 611l-314 -7q-173 -522 -328 -1104q-60 -218 -102 -411z" />
<glyph unicode="I" horiz-adv-x="1094" d="M3 -312l84 361l131 18l31 124l34 5q18 81 38.5 162.5t40.5 162.5q28 105 61.5 216t71.5 229l-166 -14l110 367q23 3 55.5 7t68.5 9l39 128q18 2 44.5 5t55.5 6t59 6t56 5q81 6 163 9.5t169 3.5q59 0 118.5 -1t121.5 -5l-109 -369q-31 0 -60 1t-61 1l-45 -145 q-13 0 -26.5 0.5t-29.5 0.5q-13 -45 -26 -90.5t-23 -86.5q-34 -126 -66 -262t-64 -288l169 7l-84 -360q-29 0 -61.5 -0.5t-67.5 -2.5l-33 -140q-44 -1 -94.5 -2t-103 -3.5t-104 -5t-96.5 -6.5t-96 -10t-103.5 -13t-104 -15t-97.5 -15zM220 -118q181 29 360 45q179 17 354 17 l61 271l-167 -3q66 320 138 588q41 151 80 282l-199 82q146 6 293 5h111l84 280q-102 6 -204 6q-163 0 -325 -15q-103 -8 -175 -17l-81 -280q81 7 165 14q-85 -259 -148 -491q-65 -241 -113 -487l-172 -25z" />
<glyph unicode="J" horiz-adv-x="1335" d="M-7 -172l326 329q3 -4 5.5 -6t4.5 -4l154 152q38 -38 89 -43l5 14l176 658l10 31l-184 -15l124 385q31 5 60.5 9t62.5 9l41 126q59 9 122 17.5t125.5 16t122 13.5t110.5 11q127 12 227 12q26 0 49.5 -1t45.5 -3l-124 -380q-12 -2 -28.5 -3.5t-32.5 -3t-29.5 -3 t-19.5 -2.5l-10 -2l-44 -128q-11 -2 -25 -4l-28 -4q-12 -48 -29 -116.5t-38 -162.5q-22 -95 -39.5 -166t-31.5 -119q-39 -148 -123 -264.5t-215 -207.5q-44 -48 -93 -89t-109 -79h2q-82 -54 -162.5 -82.5t-160.5 -36.5q-11 -2 -22 -2h-22q-95 0 -168 35t-124 109zM212 -22 q77 -108 245 -108q23 0 48 2q144 14 297 111q268 169 345 459q25 94 69.5 283.5t70.5 284.5q12 46 24 82l-179 75l40 4q48 5 139.5 10t134.5 10q22 2 68 7l99 299q-27 2 -62 2q-86 0 -216 -12q-205 -18 -439 -53l-97 -301q61 5 179 19q-7 -31 -21 -79l-177 -657 q-51 -192 -184 -204q-14 -1 -27 -1q-64 0 -96 28z" />
<glyph unicode="K" horiz-adv-x="1401" d="M27 -297q19 92 41 192t46 202.5t48.5 204t50.5 196.5q27 101 58 208t64 214t67 210.5t66 198.5l114 2q13 38 25 72.5t23 67.5l394 9q-8 -24 -17.5 -55t-19.5 -65.5t-20 -69.5t-18 -66q-8 -29 -20.5 -72.5t-25.5 -105.5q82 100 149.5 187t121.5 163l48 -12q31 42 60.5 81 t53.5 74l354 -80q-37 -48 -84.5 -107.5t-100 -124.5t-107 -132.5t-106.5 -130.5l-14 -16t-12 -13q-31 -37 -55.5 -65.5t-39.5 -46.5q-27 -31 -52.5 -58t-48.5 -50q95 -168 147 -357t66 -404l-174 -24q4 -29 6.5 -58.5t4.5 -59.5l-436 -66q-1 95 -12.5 175.5t-33.5 148.5 q-6 -24 -12.5 -49.5t-12 -51t-10 -48t-7.5 -40.5l-133 -12q-9 -35 -17 -70.5t-14 -61.5zM242 -108l319 29q18 84 43 180q17 61 52 182t52 183q176 -169 183 -529l345 53q-23 385 -222 722q59 56 128 131q37 43 121 142q208 251 358 442l-276 61q-169 -235 -539 -657 q18 68 51 195q34 135 49 194q34 123 63 215l-312 -7q-130 -378 -239 -783q-102 -382 -176 -753z" />
<glyph unicode="L" horiz-adv-x="1077" d="M29 -294q20 99 42.5 203.5t46.5 208t49 205t50 194.5q25 97 55.5 200.5t62.5 208.5t65.5 207t65.5 196l114 2q13 36 25 71.5t23 68.5l398 9q-36 -109 -70.5 -219t-66.5 -216.5t-61 -206.5t-53 -189q-23 -89 -46 -178.5t-45 -183.5h29q35 0 69.5 2t69.5 5q50 5 113 14 t144 23l-141 -415q-23 -2 -54 -7.5t-66 -9.5l-42 -124q-33 -6 -76.5 -12.5t-92.5 -12.5t-101 -11.5t-101 -9.5l-99 -9q-36 -3 -76.5 -5.5t-81 -4.5t-79 -3t-70.5 -1zM242 -108q127 2 270 14l99 9q196 17 329 39l110 324q-108 -19 -212 -29q-92 -7 -183 -7h-22q48 212 99 403 q96 355 237 790l-314 -7q-129 -377 -233 -764q-99 -374 -180 -772z" />
<glyph unicode="M" horiz-adv-x="1857" d="M89 -292q22 92 45.5 192t48.5 201t50 201.5t50 194.5q34 121 67.5 241.5t71.5 242.5l-57 135l178 106l-14 38l425 254l193 -702l438 622l52 -14l111 157l384 -106q-53 -71 -85.5 -126t-47.5 -97v1q-5 -15 -15.5 -48t-25.5 -90v2q-39 -137 -69 -242t-53.5 -186.5t-41 -144 t-32 -114t-27.5 -96.5t-26 -92.5t-28 -101t-34 -122.5l-84 -7l31 -39l-85 -7l-24 -89l-84 -9l29 -37l-360 -33q2 12 6.5 31.5t10 41t11 43.5t10.5 38q19 67 36.5 132.5t38.5 132.5l-202 -260l-17 46l-147 -189l-110 305q-17 -68 -29.5 -126t-20.5 -102l-135 -12 q-10 -38 -17 -70.5t-12 -59.5zM305 -102l318 29q34 174 126 515q24 85 48 166l203 -570l476 611q-88 -279 -162 -555q-19 -65 -27 -109l319 27v-1q1 0 309 1098q31 111 43 140q32 89 107 191l-309 84l-614 -869l-220 796l-337 -200l45 -109q-74 -251 -142 -500 q-99 -374 -183 -744z" />
<glyph unicode="N" horiz-adv-x="1517" d="M97 -292q22 93 45.5 192.5t48.5 201t50.5 201.5t50.5 194q33 122 67 242.5t71 241.5l-56 137l177 106l-13 36l425 256l155 -495q27 88 61 176t70 179l94 -36q16 45 33.5 88.5t34.5 88.5l343 -129q-48 -146 -94.5 -300.5t-84.5 -293.5q-53 -196 -96 -399.5t-85 -418.5 l-140 -22l-22 -120l-374 -61l-138 355q-15 -60 -29 -121.5t-27 -119.5l-132 -12l-16 -66t-16 -65zM314 -101l317 28q62 268 127 506q15 60 48 175l250 -644l303 48q71 391 174 778q75 275 170 565l-273 104q-92 -222 -164 -488q-44 -165 -76 -328l-260 809l-336 -201 l44 -109q-73 -248 -141 -499q-99 -373 -183 -744z" />
<glyph unicode="O" horiz-adv-x="1498" d="M154 230q0 65 9.5 133.5t29.5 143.5q41 155 116 292.5t184 263.5q45 53 94 97.5t99 80.5q121 126 249.5 195.5t267.5 82.5q33 3 63 3q165 0 267.5 -81.5t149.5 -247.5l-104 -80q19 -47 29 -96.5t10 -105.5q0 -98 -31 -210q-38 -148 -115 -279t-190 -248v2 q-76 -79 -154 -135q-2 -2 -4 -5t-4 -5v1q-125 -130 -257.5 -199t-275.5 -82q-11 -2 -23 -2h-23q-251 0 -345 236q-22 55 -32 117t-10 128zM398 654q-39 -142 -39 -265q0 -127 42 -234q87 -218 315 -218q23 0 47 2q261 22 493 261q215 220 289 496q28 106 28 197 q0 123 -51 221l108 84q-75 280 -378 280q-30 0 -61 -3q-273 -24 -507 -291q-206 -237 -286 -530zM671 379q-9 42 -9 91q0 88 29 196q46 170 142 302q121 165 271 179q19 2 37 2q164 0 206 -142l-115 -89q32 -58 32 -132q0 -55 -18 -120q-39 -147 -142 -270 q-119 -142 -252 -154q-12 -1 -23 -1q-129 0 -158 138zM705 483q0 -22 2 -42t6 -40q26 -116 128 -116q5 0 10.5 1t10.5 1q38 2 75 20q35 48 62 101t42 111q7 26 10.5 50t3.5 49q0 81 -41 157l114 94q-19 46 -61.5 70t-105.5 24h-16q-7 0 -15 -2q-18 -3 -35.5 -7t-34.5 -12 q-85 -118 -128 -273q-13 -54 -20 -99t-7 -87z" />
<glyph unicode="P" horiz-adv-x="1461" d="M85 -292q1 5 5 17.5t8.5 26.5t8.5 26.5t6 18.5q57 183 148 471.5t215 687.5q-22 -4 -46 -10t-53 -14l41 367q42 10 79.5 18.5t69.5 13.5l15 111q132 33 230 43q177 15 316 15q169 0 277 -24q293 -63 293 -286q0 -27 -4 -56.5t-13 -61.5q-6 -23 -14 -45.5t-18 -45.5v2 q-61 -134 -150.5 -244t-211.5 -196q-45 -48 -95 -90.5t-107 -80.5q-85 -57 -175 -97t-190 -67l-99 -326l-121 -10l-43 -131zM304 -102l288 25l135 441q280 35 509 186q252 169 373 438q16 36 29 80q14 55 14 102q0 204 -271 264q-104 22 -265 22q-137 0 -316 -16 q-88 -6 -180 -30l-29 -280q51 13 107 22q-280 -887 -394 -1254zM812 642l144 450l-115 69q86 0 127 3q43 4 82 4q91 0 153 -23q95 -36 95 -121q0 -25 -8 -55q-36 -136 -198 -233q-133 -81 -280 -94zM870 691q97 18 188 67q11 15 17 31.5t10 33.5q3 11 5 21.5t2 19.5 q0 68 -78 97q-12 4 -25.5 6.5t-29.5 5.5z" />
<glyph unicode="Q" horiz-adv-x="1539" d="M148 232q0 64 10 133t30 142q41 155 116 291.5t184 263.5q47 53 94.5 98.5t98.5 80.5q121 126 249.5 195.5t267.5 82.5q11 2 23 2h23q152 0 263 -91q57 -45 97 -117t69 -170l-62 -47q9 -31 14 -64.5t5 -70.5q0 -45 -7.5 -93t-21.5 -102q-90 -343 -323 -589 q30 -26 76 -46.5t110 -38.5l-186 -136q5 -2 11 -3.5t11 -3.5l-406 -301q-86 61 -126 145q-46 -17 -92 -27.5t-94 -14.5q-13 -2 -25 -2h-25q-247 0 -339 236q-22 57 -33.5 118.5t-11.5 128.5zM393 652q-37 -139 -37 -260q0 -129 42 -237q85 -218 313 -218q23 0 47 2 q104 8 205 51q39 -94 105 -145l302 222q-93 23 -151 100q244 241 339 596q27 100 27 182q0 86 -29 154l65 50q-44 157 -148 244q-100 84 -242 84q-22 0 -45 -2q-273 -24 -507 -292q-206 -236 -286 -531zM664 377q-10 45 -10 96q0 84 27 184q44 171 145 306q123 170 273 184 q12 1 24 1q151 0 206 -172l-71 -56q20 -39 20 -90q0 -40 -12 -86q-47 -176 -141 -311q-6 64 -6 134q0 31 1 63l-244 -185q8 -121 18 -196q-29 -8 -56 -12q-10 -1 -20 -1q-124 0 -154 141zM698 485q0 -47 9 -86q2 -14 5 -25.5t10 -20.5l109 82v19l236 179q1 8 1 15v16 q0 58 -29 116l74 58q-51 123 -166 123q-5 0 -11 -1t-11 -1q-36 -3 -70 -17q-88 -124 -131 -282q-26 -98 -26 -175z" />
<glyph unicode="R" horiz-adv-x="1543" d="M96 -275q55 174 109.5 341.5t105.5 324.5t98.5 300.5t90.5 269.5q-27 -5 -57.5 -12.5t-70.5 -18.5l41 369q76 18 148 30l16 113q75 18 152.5 30t161.5 20q169 15 299 15q81 0 146.5 -6t115.5 -16q279 -62 279 -277q0 -55 -18 -116q-5 -23 -13 -44t-19 -44h2 q-119 -269 -359 -439q-29 -31 -60 -60t-66 -58q106 -84 161 -205.5t66 -282.5l-177 -26q5 -28 8.5 -57t4.5 -60l-430 -63q-23 178 -87 254q-9 10 -19.5 22.5t-26.5 23.5q-13 -45 -23.5 -83.5t-19.5 -66.5l-124 -11q-13 -39 -21.5 -73t-16.5 -58zM314 -84l311 28 q35 128 121 387q145 -80 198 -147q70 -83 90 -240l343 49q-18 319 -302 476q401 166 569 540q15 37 27 80q15 55 15 102q0 193 -254 249q-99 22 -256 22q-129 0 -297 -15q-160 -13 -265 -37l-29 -282q67 19 137 24q-176 -509 -408 -1236zM847 662l134 417l-124 80 q95 3 140 7q54 5 98 5q236 0 236 -131q0 -23 -7 -50q-37 -138 -196 -234q-135 -80 -281 -94zM903 712q50 9 96.5 24.5t91.5 40.5q21 32 27 66q2 11 3.5 20t1.5 18q0 81 -133 99z" />
<glyph unicode="S" horiz-adv-x="1113" d="M15 -331l67 439q40 5 76.5 11t68.5 12l19 120q58 8 108.5 17.5t92.5 19.5q-2 23 -6.5 55t-12.5 72l2 -2q-15 54 -30.5 108.5t-29.5 109.5q-10 45 -16 86t-6 77q0 49 12 90q17 64 50.5 125.5t87.5 122.5q38 41 76.5 74.5t80.5 59.5q2 2 3 4.5t2 4.5q54 59 113.5 104.5 t122.5 74.5q49 22 110.5 37.5t136.5 22.5q26 2 53.5 2.5t56.5 0.5q42 0 87.5 -1.5t94.5 -6.5l-133 -410l-121 -14l-41 -129l-148 -17q4 -12 6.5 -24t6.5 -26q46 -170 57 -259q5 -38 7.5 -72.5t2.5 -67.5q0 -44 -5 -82t-14 -73q-8 -35 -21.5 -68.5t-33.5 -65.5l4 4 q-36 -60 -87 -111.5t-120 -93.5q-113 -142 -334 -230q-98 -40 -208.5 -65t-237.5 -36zM229 -142q203 19 394 96q246 99 341 261q31 51 46 114q18 64 18 144q0 63 -11 135q-10 87 -54 257q-29 107 -29 144q0 7 1 12q9 27 38 57t56 31l244 29l108 330q-65 6 -130 6 q-60 0 -119 -5q-139 -12 -229 -54q-115 -53 -211 -162.5t-125 -221.5q-11 -39 -11 -87q0 -64 19 -145q31 -111 60 -219q19 -96 19 -152q0 -29 -5 -49q-18 -68 -101 -101q-106 -42 -266 -65z" />
<glyph unicode="T" horiz-adv-x="1306" d="M292 927l124 396l120 3l44 140l1053 38l-124 -398l-120 -5l-42 -137l-198 -7q-48 -149 -90.5 -293t-75.5 -270q-17 -62 -34 -130.5t-33.5 -138t-32 -136.5t-28.5 -126l-130 6q-9 -40 -18 -77t-14 -70l-396 8q15 73 33 152t36.5 159.5t38 158.5l37.5 150q40 148 84 294 t95 295zM510 1116l331 12q-111 -319 -192 -631q-77 -287 -137 -581l309 -6q55 235 119 481q82 305 197 660l-171 81l515 17l96 308l-968 -34z" />
<glyph unicode="U" horiz-adv-x="1488" d="M166 220q0 57 8.5 117.5t26.5 126.5l229 860l126 4l38 140l379 13l-231 -855q-10 -38 -15 -73t-5 -68q0 -25 2.5 -48.5t9.5 -45.5q23 -104 113 -104h17q13 1 24.5 2.5t24.5 5.5q48 80 77 178l234 875l124 5l38 139l396 13l-229 -850q-74 -277 -290 -498 q-38 -37 -74.5 -68t-72.5 -58q-5 -4 -9 -8.5t-6 -8.5q-235 -238 -505 -261q-13 -2 -26 -2h-26q-235 0 -329 218q-49 118 -49 251zM406 611q-32 -124 -32 -233q0 -130 46 -238q86 -203 305 -203q22 0 46 2q248 22 466 244q203 206 273 469l217 807l-310 -8l-222 -833 q-38 -140 -118 -241q-97 -123 -224 -135q-10 -1 -20 -1q-112 0 -144 126q-12 47 -12 99q0 73 23 157l218 812l-293 -10z" />
<glyph unicode="V" horiz-adv-x="1405" d="M273 -258q2 68 5.5 150.5t9 175t13 193t16.5 203.5l-1 -1q11 115 23 232t25 228.5t26 213t25 187.5l143 4q5 37 10 71.5t9 68.5l386 12q-27 -175 -46.5 -330t-30.5 -290q64 126 130.5 247.5t137.5 242.5l82 2q19 35 39.5 70.5t42.5 70.5l413 14q-89 -142 -189 -318.5 t-211 -391.5q-134 -259 -240.5 -483t-184.5 -415q-26 3 -49.5 6t-47.5 3q-18 -38 -34.5 -77t-32.5 -75q-117 12 -215 12q-28 0 -54.5 -1t-50.5 -3q-23 -2 -60.5 -7.5t-88.5 -14.5zM480 -65q63 12 117 16q67 6 134 6q77 0 155 -8q136 329 409 857q224 431 364 655l-324 -12 q-280 -474 -512 -1026v16q0 380 90 996l-299 -10q-49 -345 -88 -807q-38 -413 -46 -683z" />
<glyph unicode="W" horiz-adv-x="1901" d="M283 -254q1 67 4 149.5t8.5 174.5t13 192.5t17.5 203.5l-2 -2q11 116 23 232.5t24.5 227t25.5 212.5t25 188l145 5q5 36 9.5 70.5t8.5 66.5l388 15q-25 -158 -43 -299t-31 -267q16 31 31 61t31 58q2 54 8 117.5t17 138.5l144 -8q4 35 9 72t10 80l401 -28 q-14 -90 -24.5 -180.5t-18.5 -184.5q29 77 64.5 165t73.5 182l106 3q14 35 28.5 69.5t29.5 70.5l389 12q-68 -152 -145 -333t-159 -380.5t-167 -411t-167 -423.5h-109q-13 -36 -27.5 -72t-27.5 -71q-55 0 -104.5 -0.5t-84.5 -5.5q-125 -9 -291 -56v41v59q0 31 -1 64 q-7 -14 -11.5 -27.5t-10.5 -27.5q-25 4 -48.5 6t-47.5 5q-17 -39 -34 -76.5t-33 -75.5q-50 5 -96 7.5t-91 2.5q-32 0 -62.5 -1.5t-58.5 -3.5q-14 -2 -33.5 -4l-39 -4t-37 -4.5t-29.5 -4.5zM488 -63q51 7 108 12q65 6 130 6q75 0 148 -8q170 382 259 572q-10 -304 -10 -479 v-54q130 36 256 48q62 4 128 5q13 0 27 -1q333 851 601 1459l-302 -9q-131 -322 -191 -486q-164 -432 -196 -528q-1 45 -1 88q0 438 55 803l-316 21q-12 -99 -17 -207q-85 -157 -179 -377q-75 -188 -155 -379v32q0 378 90 980l-300 -10q-50 -343 -89 -805q-39 -412 -46 -683 z" />
<glyph unicode="X" horiz-adv-x="1440" d="M24 -143q158 220 281.5 385t216.5 279q-23 101 -43.5 197.5t-38 184.5t-32 163.5t-24.5 134.5l176 64q-3 22 -6 42t-4 38l448 164q1 -6 5 -27t9.5 -52.5t13 -71.5t15.5 -85q4 -27 10 -54.5t11 -59.5q55 57 114.5 118t125.5 129l14 -12q35 38 72.5 75t77.5 79l241 -183 q-137 -132 -280 -285.5t-299 -330.5q48 -208 101 -388.5t118 -333.5l-198 -54q9 -23 17 -45t17 -44l-439 -125q-20 63 -50.5 158t-62.5 213q-46 -63 -92.5 -133.5t-94.5 -148.5l-51 31q-29 -40 -56.5 -83t-56.5 -90zM247 22l193 -112q185 293 367 496q84 -300 133 -452 l343 97q-105 265 -201 700q312 362 562 601l-187 138q-250 -256 -419 -451q-70 381 -77 415l-362 -131q39 -243 135 -657q-179 -217 -487 -644z" />
<glyph unicode="Y" horiz-adv-x="1461" d="M352 -251q9 45 20 96t23.5 101l24.5 98t22 87q20 70 36 127t27 99q-19 72 -35.5 179t-30.5 247q-14 138 -19 264t-5 236l164 29v59q0 29 -2 56l415 77q0 -18 0.5 -41t1 -47t1 -47t0.5 -41v-72q0 -35 2 -70l1 2v-38t2 -36q51 74 100.5 138t100.5 118l40 -5q31 42 62 78.5 t61 70.5l380 -39q-139 -184 -283 -392t-292 -441q-20 -31 -47.5 -78t-65.5 -113l4 3q-30 -64 -56 -169q-12 -44 -24.5 -94t-25 -101t-24 -99.5t-20.5 -89.5l-132 -2q-10 -38 -16 -73.5t-14 -66.5zM565 -61l314 6q36 163 82 337q29 111 60 177q70 132 112 196 q299 470 534 780l-298 31q-176 -193 -376 -563q-34 97 -41 266q-1 142 -3 285l-328 -61v-14q0 -181 24 -434q29 -283 70 -431q-26 -84 -68 -236q-43 -159 -82 -339z" />
<glyph unicode="Z" horiz-adv-x="1408" d="M0 -280q34 56 79 128t97.5 153.5t110 169.5t117.5 177q-26 -3 -52 -6.5t-50.5 -7.5t-46 -7t-37.5 -6l108 398q29 4 61 8t67 9l34 126q66 8 143.5 17.5t153.5 18.5q13 18 25 34.5t26 33.5q-52 -3 -112 -5.5t-125 -5t-132 -4.5t-132 -4l186 386q23 0 47 1t48 1l68 140 q76 3 156 7t161 8.5t160 10t153 11.5q47 4 103 10l112 12t106.5 12t86.5 10q-52 -66 -111 -142.5t-120.5 -157.5t-123 -163.5t-116.5 -158.5q29 1 63 3t58 2l-106 -396q-26 -2 -57 -2.5t-69 -2.5l-37 -139q-40 -1 -99 -2.5t-122 -3.5q-22 -34 -42.5 -65t-40.5 -63 q149 15 293.5 35t288.5 48l-210 -401q-23 -4 -47 -7.5t-49 -6.5l-66 -129q-54 -8 -112 -16.5t-116.5 -16t-115.5 -14t-109 -10.5q-57 -5 -126 -9t-142 -7.5t-147 -6t-141 -4.5zM232 -90q271 3 498 23q207 19 420 53l161 308q-253 -48 -584 -77q104 167 232 356 q167 12 278 12l81 308q-89 -2 -142 -6q232 328 459 617q-145 -19 -333 -35q-293 -25 -599 -37l-142 -296q309 8 516 23q-97 -135 -210 -295q-174 -17 -348 -41l-80 -306q82 14 210 27q-265 -389 -417 -634z" />
<glyph unicode="[" horiz-adv-x="1294" d="M126 -391q31 141 65 286.5t69.5 290t70.5 285t70 271.5q23 87 50 183t56 195.5t58.5 200t57.5 195.5q31 -2 60.5 -3t58.5 -1q12 38 22.5 74.5t22.5 72.5q33 -2 65 -2h63q85 0 160 3.5t144 8.5q27 3 64 7t76.5 9.5t78.5 11t72 10.5l-162 -436l-111 -6l-51 -137l-160 -8 l-62 -226q-51 -192 -94.5 -361t-79.5 -321l309 24l-107 -425l-130 -11l-33 -131zM343 -201l620 53l83 336l-309 -24q75 319 186 727l111 408l289 13l129 343q-134 -20 -244 -30q-194 -17 -394 -12q-114 -381 -206 -724q-142 -525 -265 -1090z" />
<glyph unicode="\" horiz-adv-x="1200" d="M445 -387q7 85 13 183.5t10.5 204.5t8 217t4.5 221v-2v85q0 232 -5.5 454t-16.5 410l167 65l-5 76l422 168q6 -81 10.5 -173.5t7.5 -193.5t4.5 -208t1.5 -217v-132q-2 -111 -5 -225.5t-8 -226.5t-11.5 -219t-13.5 -204l-157 -51q-2 -23 -3.5 -46t-1.5 -45zM657 -188 l329 111q31 389 38 835q5 507 -24 879l-331 -133q22 -405 19 -910q-5 -439 -31 -782z" />
<glyph unicode="]" horiz-adv-x="1377" d="M125 -393l119 425l126 11l36 131l188 19q36 124 66.5 233t56.5 207l75 272q9 38 22.5 89t28.5 115l-297 -37l135 435q27 0 57 1t62 1l43 141q30 1 63.5 1.5t66.5 1.5t62.5 2.5t51.5 3.5q95 9 203 24.5t227 38.5q-20 -90 -43.5 -187.5t-48.5 -197t-50 -197.5t-49 -188 q-36 -138 -77 -282t-83.5 -289t-86.5 -288.5t-87 -280.5l-122 -10q-10 -33 -21 -66t-21 -65zM343 -203l620 56q174 546 320 1096q98 360 181 722q-194 -38 -389 -55q-87 -8 -205 -10l-105 -341l297 35q-41 -157 -65 -249l-75 -271q-69 -259 -174 -614l-311 -31z" />
<glyph unicode="^" horiz-adv-x="1196" d="M389 1055l184 143h-22l379 294l210 22l219 -260l-262 -27l99 -114l-320 -34l-62 56l-97 -65zM672 1246l205 10l118 79l72 -69l198 21l-151 181l-182 -19z" />
<glyph unicode="_" horiz-adv-x="1579" d="M160 -329l72 264l128 10l34 132l935 82l-69 -263l-128 -10l-36 -133zM379 -138l850 75l46 174l-850 -73z" />
<glyph unicode="`" horiz-adv-x="966" d="M572 1389l73 278l116 -39l46 181l476 -157l-71 -140l-113 5l22 -7l-71 -140zM787 1575l408 -17l32 63l-394 128z" />
<glyph unicode="a" horiz-adv-x="1198" d="M53 5q51 119 120.5 271t151.5 325.5t174 362.5t189 383l92 1q17 35 34.5 69.5t37.5 72.5l401 8q-78 -540 -81 -1268l-162 -13v-43v-85l-344 -31l10 172q-23 5 -46.5 6t-47.5 1l-24 -60l-111 -10l-51 -133zM278 196l254 22l79 197q32 5 56 7q41 3 79 3q73 0 138 -12 l-12 -166l256 23q4 670 75 1184l-333 -7q-387 -775 -592 -1251zM698 630q162 355 249 532q-20 -112 -31 -266q-5 -131 -11 -261q-43 5 -88 5q-34 0 -68 -3q-22 -2 -51 -7z" />
<glyph unicode="b" horiz-adv-x="1302" d="M92 53l130 302q15 -2 27 -4.5t22 -4.5q32 96 83 261.5t126 404.5q-17 -4 -38 -9.5t-41 -10.5l36 312q42 11 79.5 18.5t70.5 12.5l12 112q58 16 106 24t90 12q20 2 49 4.5t71 7.5q9 2 19.5 2.5t19.5 2.5q24 4 45 5.5t35 3.5q38 4 71.5 5.5t65.5 1.5q177 0 266.5 -52.5 t89.5 -159.5q0 -20 -3.5 -42t-9.5 -47q-46 -169 -232 -316q92 -74 92 -189q0 -47 -15 -101q-52 -188 -246 -307q-63 -85 -169 -147q-156 -94 -343 -111q-57 -5 -112.5 -7.5t-111.5 -2.5q-73 0 -143.5 5t-141.5 14zM314 234q108 -14 235 -14q107 0 228 10q172 16 319 105 q175 105 220 271q12 46 12 87q0 127 -121 200q218 145 264 319q11 39 11 73q0 187 -330 187q-60 0 -130 -6q-37 -3 -118 -13.5t-121 -13.5q-71 -5 -143 -24l-26 -225q41 11 87 20q-182 -592 -242 -770q-27 2 -55 7zM681 445l90 308q65 6 79 8q25 2 47 2q70 0 118 -21 q69 -30 69 -92q0 -17 -5 -37q-19 -67 -120 -118q-82 -43 -155 -50h-44.5h-78.5zM734 488h52q21 0 30 2q14 2 29 4.5t31 7.5q-5 18 -17 31.5t-35 22.5q-25 12 -65 17zM799 1225q29 2 99 9q60 5 109 5q192 0 191 -83q0 -11 -3 -23q-29 -107 -154 -155q-72 -26 -206 -38h-4 l79 221zM889 988q29 3 54 7t47 10q-3 17 -23.5 26.5t-55.5 16.5z" />
<glyph unicode="c" horiz-adv-x="1237" d="M207 437q0 103 32 225q66 248 244 449h-2q42 48 86.5 87t89.5 68q201 222 434 243q13 1 25 1h26q268 0 339 -273l-167 -128q3 -4 3.5 -7.5t1.5 -5.5l-309 -241q-27 162 -152 162q-5 0 -9 -1t-9 -1q-11 -1 -20 -2.5t-20 -5.5q-26 -42 -45.5 -87.5t-32.5 -98.5 q-11 -42 -17.5 -79.5t-6.5 -72.5q0 -28 5 -56q18 -92 89 -92h10q23 1 50 11q8 11 13.5 22l11.5 23l39 -9q35 27 67.5 65t59.5 87l283 -66q-60 -114 -138.5 -202t-168.5 -148q-100 -112 -219.5 -178.5t-244.5 -77.5q-11 -2 -20 -2h-20q-201 0 -274 196v-1q-34 87 -34 196z M444 807q-31 -113 -31 -211q0 -100 32 -185q66 -177 247 -177q18 0 37 2q160 13 304.5 115.5t231.5 268.5l-210 47q-43 -80 -114.5 -132t-150.5 -59h-13q-96 0 -117 116q-5 30 -5 64q0 72 24 160q38 140 115 244q99 131 221 143q14 1 27 1q139 0 165 -134l225 174 q-62 222 -300 222q-25 0 -52 -2q-220 -18 -406 -232q-165 -188 -230 -425z" />
<glyph unicode="d" horiz-adv-x="1253" d="M171 15q8 39 18.5 85t22 94t23.5 94.5t23 86.5q42 161 92 319t104 316q-16 -5 -33 -10t-37 -12l36 314q44 12 79.5 19.5t70.5 11.5l12 113q58 15 105 23t91 12q25 3 48 3.5t46 0.5q237 0 398 -115q162 -118 162 -312q0 -74 -22 -153q-38 -140 -117 -262t-199 -228 q-22 -21 -44.5 -38t-44.5 -34q-18 -18 -36.5 -36t-38.5 -36q-241 -211 -508 -233zM384 205l212 19q249 22 475 220.5t296 456.5q21 76 21 143q0 179 -152 287q-151 110 -378 110q-45 0 -92 -4q-73 -5 -143 -24l-26 -225q40 13 82 20q-123 -343 -216 -686q-43 -160 -79 -317z M688 464q48 214 75 313q54 203 124 365l-85 78q166 -5 261 -85q84 -70 84 -174q0 -39 -12 -82q-43 -154 -169 -270t-278 -145zM741 519q28 8 53 19t51 25q29 38 50.5 80.5t32.5 88.5q11 41 11 72q0 91 -72 150q-2 2 -3 3.5t-4 3.5q-15 -45 -29 -90.5t-25 -90.5 q-12 -44 -29 -108.5t-36 -152.5z" />
<glyph unicode="e" horiz-adv-x="1176" d="M186 15q14 65 31 137.5t35 147t36.5 147t35.5 138.5q29 109 60 216t63 211l-97 -3l75 315q32 2 64 2t66 2l34 138q72 3 147.5 7t148.5 8.5t140.5 9t124.5 9.5q34 3 75.5 7.5t84.5 9.5t85 9.5t78 9.5l-104 -333q-26 -2 -57 -3t-64 -4l-41 -136q-28 -2 -63 -3.5t-72 -4 t-74 -4.5t-68 -5l-20 -2q-3 -6 -3 -13q0 -6 -2 -14q35 5 72.5 9t75.5 8q25 2 55.5 4t61.5 4t60 3.5t52 1.5l-92 -336q-26 0 -59 -0.5t-66 -0.5l-38 -140q-24 0 -53.5 -0.5t-60 -2t-60 -3t-51.5 -3.5l-25 -2q0 -8 -2 -16l-4 -16q43 4 87 9t89 10q28 2 62 4t68.5 4t66.5 4 t56 3l-89 -334q-29 -2 -61 -3t-65 -3l-36 -136q-44 -2 -94 -4.5t-100.5 -5.5t-98.5 -6.5t-88 -7.5q-39 -3 -87 -8t-98.5 -11l-101 -12t-95.5 -12zM399 207q183 23 343 37q163 15 338 22l65 246q-99 -3 -210 -14q-112 -10 -215 -24q9 62 26 122q15 59 41 124q99 17 189 26 q91 7 185 8l66 244q-87 -3 -186 -11.5t-188 -20.5q14 72 33 140q15 55 30 104q86 10 190 19q123 12 232 15l77 243q-142 -19 -277 -31q-227 -19 -517 -31l-56 -227l101 3q-70 -226 -135 -469q-72 -264 -132 -525z" />
<glyph unicode="f" horiz-adv-x="1132" d="M184 15q12 56 28.5 128t37 154t43.5 171.5t48 181.5q23 89 49.5 177t53.5 175l-104 3l85 319l126 5l38 137q82 4 162.5 8.5t154.5 9t139.5 9t116.5 9.5q31 3 70.5 7t81 8.5t82 9t75.5 9.5l-104 -335q-29 -1 -59.5 -2t-61.5 -3l-41 -136q-35 -2 -74 -3.5t-76 -3.5 t-70 -4.5t-57 -4.5l-18 -1q-3 -7 -4 -14t-3 -15q36 5 73 9t75 8q25 2 55.5 4t61.5 4t60 3.5t52 1.5l-92 -336q-26 0 -58.5 -0.5t-66.5 -0.5l-37 -140q-24 -1 -53.5 -1.5t-60.5 -1.5t-60.5 -2.5t-51.5 -3.5l-25 -2l-22 -78q-9 -32 -17.5 -69.5t-17 -76t-16.5 -76t-14 -67.5 l-137 -12q-6 -35 -13 -69.5t-12 -61.5zM398 207l256 22q25 119 56 244q34 124 75 247q99 17 190 24q90 9 184 9l66 245q-87 -3 -186 -11.5t-187 -20.5q15 73 32 145q17 60 31 97q107 16 188 23q93 8 233 13l77 243q-136 -19 -263 -30q-203 -17 -530 -32l-64 -234l104 -3 q-61 -193 -114 -391q-99 -367 -148 -590z" />
<glyph unicode="g" horiz-adv-x="1265" d="M201 398q0 60 10 125.5t30 138.5q63 248 242 449q42 48 85.5 86t90.5 69q201 222 433 243q13 1 25 1h26q136 0 220 -68t120 -203l-167 -130q2 -4 2.5 -7.5t2.5 -5.5l-309 -239q-29 160 -152 160q-5 0 -9.5 -1t-9.5 -1q-16 0 -37 -8q-27 -42 -47.5 -89.5t-34.5 -100.5 q-11 -45 -17.5 -83t-6.5 -70q0 -16 1.5 -29.5t3.5 -26.5q15 -87 92 -87q4 0 8 0.5t8 0.5l27 2q37 82 70 212l130 29q18 49 35 114l325 75l-193 -720l-128 -12l-34 -132l-314 -27l17 62q-62 -35 -122.5 -55.5t-123.5 -25.5q-9 -1 -19 -1h-18q-196 0 -245 208q-8 35 -12.5 71 t-4.5 76zM425 418q44 -189 219 -189q15 0 30 1q155 14 301 128l-30 -104l229 21l167 624l-237 -56q-75 -276 -182 -334q-46 -24 -123 -31q-9 -1 -17 -1q-101 0 -123 110q-5 27 -5 59q0 72 25 166q38 139 118 246q99 133 220 145q14 1 27 1q139 0 164 -134l226 174 q-62 222 -300 222q-25 0 -52 -2q-218 -18 -406 -232q-167 -189 -231 -423q-36 -137 -36 -250q0 -76 16 -141z" />
<glyph unicode="h" horiz-adv-x="1244" d="M106 27q9 44 20.5 94t24 100.5t24.5 99t23 90.5q29 108 62 224t68.5 234t72.5 234.5t73 225.5l117 2q11 36 23 71.5t23 70.5l332 5l-150 -490l91 -2q2 14 7.5 29t10.5 33v-2l106 333l118 2l44 140l335 6q-28 -86 -56 -174.5t-54.5 -175t-50.5 -169.5t-44 -156 q-19 -71 -38.5 -149.5t-38 -159.5t-35.5 -161t-31 -153l-135 -4q-9 -37 -16 -71.5t-13 -68.5l-335 -6l94 413l-100 5l-6 -19q-8 -30 -17 -68.5t-18 -79t-17.5 -80.5t-15.5 -73l-135 -3q-6 -37 -14 -73t-15 -65zM321 217l249 5q27 131 60 252q29 106 65 215l298 -11l-95 -412 l251 5q59 294 134 576q79 295 193 636l-252 -5l-91 -287q-41 -128 -46 -143l-29 -111l-293 8l150 489l-251 -6q-143 -438 -261 -870q-43 -165 -82 -341z" />
<glyph unicode="i" horiz-adv-x="666" d="M111 10q16 80 34 165t37 170t39 166.5t40 154.5q21 76 45.5 160t51.5 170t54.5 171t53.5 162l114 2q13 36 25 71.5t23 68.5l335 5q-29 -86 -57.5 -175.5t-55 -177t-50.5 -171t-44 -157.5q-18 -70 -37.5 -147.5t-38 -157t-35.5 -157.5t-32 -150l-137 -12q-5 -35 -12 -67.5 t-13 -64.5zM324 200l255 22q58 288 134 570q79 295 193 640l-251 -4q-107 -312 -187 -616q-81 -291 -144 -612z" />
<glyph unicode="j" horiz-adv-x="957" d="M58 143l263 261q2 -2 5 -4t7 -4l150 152q9 -9 18 -14.5t18 -9.5q9 33 20 75t28 96q20 73 35 127.5t26 92.5q13 49 28 103.5t31.5 109t32.5 106.5t31 97q32 7 64 12t59 9q10 32 20.5 63t18.5 60q34 6 67 11t59.5 9t44 7t20.5 3q13 0 27 1t30 1q15 0 31.5 -1t34.5 -2 l22 -45q-31 -95 -59 -189.5t-55 -194.5q-9 -35 -23 -89t-33 -126q-18 -72 -32 -126t-25 -89q-32 -120 -102 -213.5t-179 -165.5q-35 -41 -77 -78t-92 -69q-65 -41 -126.5 -63t-122.5 -27q-9 -2 -18 -2h-18q-146 0 -229 116zM278 294q56 -81 180 -81q19 0 39 2q109 9 225 84 q200 126 258 341q20 73 56.5 216.5t55.5 215.5q53 196 116 387q-44 3 -78 3q-21 0 -38 -1q-13 -2 -148 -24q-58 -179 -111 -375q-21 -74 -62 -220t-59 -219q-40 -147 -140 -155q-11 -1 -21 -1q-51 0 -77 21z" />
<glyph unicode="k" horiz-adv-x="1205" d="M116 10q16 81 34 166t37 169.5t39 166t40 154.5q21 76 45.5 160t51.5 170t54.5 171t53.5 162l114 2q13 36 25.5 71.5t22.5 70.5l335 5q-7 -22 -16.5 -50.5t-18.5 -58t-17.5 -58t-14.5 -50.5q-5 -18 -12 -40t-12 -50q47 59 87.5 112t76.5 101l46 -10q32 41 61 79.5 t55 73.5l299 -68q-30 -38 -69 -87t-82.5 -103t-89 -109.5t-87.5 -106.5q-32 -37 -74.5 -85t-99.5 -108q150 -262 191 -539l-177 -63q2 -20 6.5 -40t8.5 -41l-367 -128q-8 52 -16.5 96.5t-19.5 84.5q-2 -14 -5 -26t-5 -21l-133 -12q-9 -39 -17 -75t-12 -57zM329 200l255 22 q12 58 36 143q11 50 38.5 146.5t42.5 147.5q123 -118 163 -412l278 96q-36 242 -197 512q137 143 200 218q169 204 287 354l-222 49q-137 -191 -432 -525q16 54 41 152q26 105 39 155q23 87 53 176l-251 -6q-107 -310 -187 -616q-80 -291 -144 -612z" />
<glyph unicode="l" horiz-adv-x="940" d="M116 14q15 81 33 165.5t37.5 168.5t39.5 164.5t40 154.5q21 76 45 160t50.5 170t53.5 170.5t54 161.5l115 2q13 36 25 71.5t22 70.5l335 5q-29 -87 -57.5 -176.5t-54.5 -176t-49.5 -167.5t-41.5 -152q-20 -70 -37.5 -139.5t-34.5 -144.5q34 2 65 3.5t60 3.5q33 2 89 10.5 t128 21.5l-117 -349q-26 -5 -56.5 -9.5t-65.5 -9.5l-40 -123q-33 -6 -74 -12t-84 -12t-86 -11t-80 -8q-38 -3 -80 -5.5t-83.5 -4t-80.5 -2.5t-70 -1zM328 200q126 1 274 13q151 14 284 36l87 260q-89 -17 -169 -24q-62 -5 -127 -5h-37q38 169 80 322q75 283 190 632l-251 -6 q-108 -308 -190 -614q-76 -292 -141 -614z" />
<glyph unicode="m" horiz-adv-x="1575" d="M160 14q16 72 35 152t39.5 162.5t41.5 165t41 160.5q29 101 56 197t54 187l-46 116l177 104l-15 39l358 212l150 -541l316 447l51 -14l111 157l321 -89q-85 -115 -111 -184q-5 -14 -13 -40.5t-21 -68.5q-42 -146 -80.5 -280.5t-71.5 -252t-60.5 -216.5t-46.5 -173 l-128 -10l-35 -131l-339 -31l13 53q9 36 17 69.5t16 65.5l27 95l-106 -135l-15 45l-147 -188l-66 186q-5 -24 -10 -45.5t-9 -41.5l-135 -12q-8 -37 -15.5 -70.5t-11.5 -59.5zM374 205l256 22q25 123 68 283l44 164q14 55 28 97l164 -455l378 488q-78 -246 -117 -388 q-17 -68 -34 -143l254 22q80 296 247 877q26 86 34 113q29 72 87 152l-245 68l-492 -696l-177 638l-268 -160l34 -89q-55 -186 -113 -399q-82 -306 -148 -594z" />
<glyph unicode="n" horiz-adv-x="1289" d="M155 14q16 72 35 152t39.5 162.5t41.5 164.5t41 159q29 103 56 199t54 187l-47 116l178 104l-15 37l358 214l109 -343q34 99 77 201l94 -36q15 44 32.5 89t37.5 90l288 -111q-20 -59 -39.5 -121.5t-38.5 -124t-36 -121t-31 -112.5q-42 -155 -77.5 -320t-67.5 -342 l-143 -22l-21 -122l-312 -49l-87 222q-7 -26 -13 -51.5t-11 -49.5l-133 -12l-14 -66t-15 -65zM369 203l256 22q53 224 100 403q11 38 40 143l199 -515l244 38q57 317 139 622q56 214 134 453l-218 83q-73 -175 -130 -387q-34 -131 -61 -266l-208 647l-268 -161l34 -87 q-55 -186 -113 -399q-82 -307 -148 -596z" />
<glyph unicode="o" horiz-adv-x="1299" d="M218 437q0 53 8.5 109t24.5 116q33 126 94 237.5t150 213.5h-2q42 48 86.5 87t89.5 68q100 111 208 171.5t226 70.5q13 2 24 2h23q270 0 343 -273l-83 -63q30 -75 30 -164q0 -76 -23 -165q-64 -236 -251 -429q-35 -35 -69 -63.5t-70 -54.5q-6 -5 -12 -12t-11 -12 q-204 -206 -431 -227q-10 -1 -19 -1h-20q-200 0 -280 193q-36 88 -36 196zM456 809q-30 -111 -30 -207q0 -104 35 -192q66 -175 250 -175q18 0 37 2q208 17 394 207q170 176 232 399q23 85 23 159q0 98 -40 176l87 66q-62 224 -300 224q-25 0 -52 -2q-220 -19 -406 -232 q-165 -188 -230 -425zM672 589q-6 30 -6 65q0 72 25 163q36 137 115 241q97 135 216 145q16 1 30 1q130 0 161 -113l-90 -70q25 -47 25 -107q0 -44 -13 -95q-32 -118 -114 -218q-94 -113 -204 -121q-10 -1 -19 -1q-100 0 -126 110zM710 669q0 -30 5 -58q11 -44 34 -66.5 t63 -22.5q4 0 8.5 1t8.5 1q17 0 35 5q23 33 39 69t27 74q4 18 6.5 37t2.5 37q0 69 -34 131l92 74q-36 66 -125 66q-6 0 -12.5 -1t-12.5 -1q-9 0 -16.5 -1.5t-16.5 -3.5q-55 -85 -80 -189q-11 -44 -17.5 -81.5t-6.5 -70.5z" />
<glyph unicode="p" horiz-adv-x="1239" d="M152 14q27 84 61.5 192.5t74.5 236t84.5 271t91.5 298.5q-14 -4 -34 -10t-44 -14l36 314q82 23 150 31l12 113q57 15 105.5 23t90.5 12q72 7 134.5 9.5t118.5 2.5q68 0 122.5 -4t98.5 -14q241 -53 241 -234q0 -44 -15 -98q-5 -20 -10.5 -38.5t-12.5 -32.5 q-101 -224 -308 -369q-80 -88 -181 -153q-125 -85 -265 -125l-73 -241l-123 -12l-39 -131zM369 203l232 21l107 351q224 31 408 152q203 133 299 350q13 27 22 63q12 45 12 83q0 162 -217 209q-83 17 -212 17q-110 0 -252 -12q-72 -5 -143 -24l-26 -225q43 13 87 20 q-203 -652 -317 -1005zM778 799l116 360l-94 54q70 0 103 4q40 3 73 3q192 0 192 -112q0 -21 -7 -46q-29 -111 -157 -188q-110 -65 -226 -75zM835 850q28 4 55 12.5t54 21.5q4 8 6.5 15.5t5.5 15.5q2 9 3.5 15.5t1.5 14.5q0 57 -68 77z" />
<glyph unicode="q" horiz-adv-x="1316" d="M201 435q0 53 8.5 109t24.5 116q32 125 92.5 237t149.5 214q42 48 86 86t90 69q102 111 209 171.5t224 71.5q11 1 21 1h20q263 0 347 -312l-48 -37q14 -48 14 -103q0 -36 -6.5 -75.5t-17.5 -83.5q-38 -139 -101 -254.5t-153 -214.5q24 -20 62.5 -36.5t92.5 -29.5 l-186 -139q6 0 11.5 -1.5t10.5 -3.5l-346 -256q-35 26 -59.5 55.5t-45.5 62.5q-37 -14 -72 -22t-73 -12q-10 -2 -19 -2h-20q-200 0 -280 193q-36 90 -36 196zM439 807q-30 -110 -30 -206q0 -103 35 -191q66 -176 249 -176q18 0 37 2q82 6 164 40q33 -73 87 -116l239 178 q-73 19 -121 80q198 193 273 478q22 81 22 148.5t-22 121.5l50 37q-73 263 -307 263q-19 0 -40 -2q-218 -18 -406 -232q-167 -189 -230 -425zM657 585q-7 36 -7 76q0 68 21 150q36 134 116 245q99 135 218 145q10 1 20 1q120 0 163 -137l-56 -44q14 -30 14 -71 q0 -39 -13 -90q-32 -119 -107 -227q-6 51 -6 106q0 24 1 49l-195 -146q5 -84 15 -157q-25 -7 -46 -9q-9 -1 -17 -1q-97 0 -121 110zM693 676q0 -18 1.5 -35.5t5.5 -32.5q1 -9 3.5 -17t4.5 -16l74 56q-2 4 -2 9q0 7 2 10l153 116v12q0 53 -22 103l58 44q-39 90 -128 90h-14 q-9 -1 -17 -3t-17 -3q-27 -44 -48 -93t-34 -102q-20 -78 -20 -138z" />
<glyph unicode="r" horiz-adv-x="1300" d="M138 12q23 82 56 189t74 234t89.5 272t103.5 303q-14 -4 -33 -9.5t-41 -10.5l36 314q43 11 80 18t70 11l12 113q58 15 106 23t91 12q72 7 134.5 9.5t117.5 2.5q69 0 123.5 -4t98.5 -14q241 -53 241 -234q0 -46 -16 -98q-45 -173 -198 -326q-64 -61 -133 -112l-29 -29 q-26 -26 -51 -48q63 -58 110.5 -148t79.5 -212l-187 -58q7 -20 12.5 -41t11.5 -44l-360 -110q-13 83 -30 144t-41 99q-3 2 -5 5.5t-4 7.5l-24 -87l-126 -12q-11 -40 -20 -72.5t-16 -58.5zM353 203l249 21q36 131 108 353q109 -62 159.5 -145.5t69.5 -221.5l268 82 q-70 256 -244 353q163 67 297 198q138 140 179 297q12 45 12 83q0 162 -217 209q-86 18 -222 18q-106 0 -242 -11q-72 -7 -144 -26l-25 -225q41 12 83 19q-233 -666 -331 -1004zM780 799l116 360l-92 54q68 0 101 4q40 3 73 3q191 0 191 -111q0 -21 -7 -47 q-29 -111 -157 -188q-109 -63 -225 -75zM836 850q29 5 56 13t53 21q5 9 7.5 16t4.5 15q3 9 4.5 15.5t1.5 14.5q0 57 -69 77z" />
<glyph unicode="s" horiz-adv-x="963" d="M101 9l54 366q44 7 79 12.5t65 11.5l18 118q34 5 65 10.5t57 11.5q0 13 -3.5 26.5t-5.5 30.5v-4q-8 21 -15 42.5t-14 43.5v-2q-6 22 -12 42.5t-10 42.5q-9 36 -14 67.5t-5 60.5q0 20 2.5 37.5t6.5 34.5q25 102 114 201q64 75 145 123q4 5 8 10.5t9 10.5q44 48 93 86 t102 62h-2q42 20 93.5 31.5t111.5 18.5q19 1 39.5 2t42.5 1q71 0 157 -9l-113 -344l-119 -14l-43 -128l-72 -8q2 -8 3.5 -15.5t3.5 -15.5q23 -84 33.5 -129.5t12.5 -49.5q4 -25 5.5 -50t1.5 -48q0 -28 -2.5 -54.5t-9.5 -49.5q-18 -78 -44 -119q-32 -53 -78.5 -98.5 t-109.5 -82.5q-92 -124 -283 -202q-81 -32 -172 -52.5t-195 -28.5zM312 198q162 15 316 77q200 78 273 208q22 38 39 104q12 44 12 94q0 46 -10 96q0 8 -41 172q-31 122 -31 146q0 18 30 50q22 24 44 26l196 22l87 264q-53 6 -107 6q-44 0 -89 -4q-113 -10 -186 -44 q-91 -41 -169.5 -130t-100.5 -177q-8 -29 -8 -64q0 -51 17 -116q25 -83 51 -167q17 -78 17 -120q0 -17 -3 -28q-14 -53 -81 -81q-83 -32 -213 -51z" />
<glyph unicode="t" horiz-adv-x="1114" d="M316 988l104 335l119 5l45 138l858 31l-104 -335l-121 -3l-41 -140l-142 -5q-23 -75 -43.5 -148t-39.5 -146q-15 -58 -32 -123.5t-33.5 -133t-32.5 -135t-30 -128.5l-134 -11q-8 -35 -15 -67.5t-14 -63.5l-341 -31q14 68 31 142t34.5 148.5t36 147t35.5 137.5 q26 94 54 192.5t60 200.5zM534 218l254 23q59 242 120 476q65 234 138 479l261 7l79 248l-773 -28l-79 -245l254 6q-69 -227 -126 -435q-70 -261 -128 -531z" />
<glyph unicode="u" horiz-adv-x="1270" d="M218 430q0 47 7.5 96t21.5 102l186 696l127 5l37 139l318 12l-185 -693q-8 -31 -12.5 -59t-4.5 -54q0 -36 11 -72q18 -80 85 -80h12l10 2q13 24 24.5 51.5t21.5 59.5l207 710l121 5l41 138l317 10l-184 -689q-29 -111 -88.5 -212.5t-148.5 -192.5q-34 -33 -67 -60.5 t-66 -49.5l-31 -31q-190 -193 -408 -214q-11 -1 -21 -1h-20q-98 0 -164.5 44.5t-106.5 134.5h1q-41 93 -41 203zM452 775q-25 -99 -25 -186q0 -105 37 -191q68 -164 244 -164q18 0 36 2q198 18 374 194q162 167 218 376l174 646l-235 -6l-193 -666q-36 -114 -96 -193 q-76 -99 -177 -109q-8 -1 -15 -1q-88 0 -115 102q-9 36 -9 76q0 59 19 128l175 651l-236 -9z" />
<glyph unicode="v" horiz-adv-x="1198" d="M304 43q0 52 2.5 118t7 141t10.5 157t14 166q8 93 18 189t20 186.5t20.5 173t19.5 149.5l145 6q5 36 10 71t9 66l325 14q-17 -118 -30.5 -222t-21.5 -198q39 73 78.5 143.5t82.5 141.5l82 2q18 35 39 70t41 70l350 11q-78 -123 -158 -266.5t-168 -311.5l1 2 q-105 -201 -190 -381t-154 -345q-26 3 -51 5t-48 2q-17 -38 -33.5 -75.5t-29.5 -72.5q-40 4 -78 6t-74 2q-30 0 -57.5 -1.5t-53.5 -3.5q-13 -1 -30.5 -3t-35.5 -4.5t-34.5 -4.5t-27.5 -3zM510 234q46 7 98 12q53 5 105 5q62 0 120 -7q114 270 329 684q174 338 292 524 l-259 -8q-222 -377 -410 -821v23q0 300 73 788l-240 -9q-39 -270 -74 -645q-29 -336 -34 -546z" />
<glyph unicode="w" horiz-adv-x="1597" d="M311 43q0 52 2.5 118t7 141t10.5 157t14 166q8 94 18 190t20 186.5t20.5 173t19.5 149.5l145 5q5 36 10 71t9 66l324 14q-5 -49 -12 -94t-12 -89l132 -8q2 33 7 71t13 80l337 -22q-7 -42 -13 -85t-13 -87q14 32 27.5 64t27.5 66l105 1q14 35 28.5 69.5t28.5 70.5l329 10 q-55 -125 -118.5 -274t-131 -312t-136 -333.5t-133.5 -337.5q-17 0 -31.5 0.5t-27.5 0.5q-14 0 -26 -0.5t-22 -0.5q-14 -36 -28.5 -72.5t-28.5 -71.5q-20 2 -38 2h-35q-26 0 -46.5 -1t-38.5 -2q-49 -5 -108.5 -16t-129.5 -30v34v85q-17 2 -35.5 2.5t-33.5 2.5 q-17 -37 -33.5 -74.5t-31.5 -75.5q-44 5 -84.5 6.5t-77.5 1.5q-25 0 -48 -0.5t-43 -2.5q-11 -1 -27 -3t-32.5 -4t-32.5 -4.5t-27 -3.5zM518 234q44 7 88 10q56 5 110 4.5t107 -4.5q138 304 211 456q-10 -244 -10 -382v-43q102 27 205 36q52 5 106 5h18q262 669 482 1167 l-243 -7q-105 -259 -152 -389q-128 -336 -158 -423v60q0 358 44 653l-253 16q-11 -82 -13 -164q-68 -126 -142 -301q-65 -153 -126 -303v16q0 300 73 793l-240 -9q-40 -270 -74 -645q-28 -335 -33 -546z" />
<glyph unicode="x" horiz-adv-x="1232" d="M101 137q128 177 227.5 310t174.5 225q-19 83 -36.5 163t-31.5 152t-25 132.5t-17 104.5l177 63q-5 23 -8 42t-7 36l379 139q1 -6 4.5 -28t9.5 -57t14 -82t19 -103q36 36 75.5 76t81.5 83l12 -11q36 36 73.5 74t76.5 80l205 -155q-110 -107 -225.5 -230.5t-240.5 -266.5 q27 -117 73.5 -257.5t112.5 -305.5l-194 -65q8 -18 16 -37.5t16 -39.5l-379 -126q-18 49 -39.5 120.5t-45.5 154.5q-29 -40 -58 -84t-60 -92l-49 27q-27 -38 -55.5 -81t-57.5 -89zM324 302l154 -89q150 239 295 398q65 -232 106 -364l287 94q-118 296 -173 545 q253 292 447 481l-146 109q-203 -206 -338 -360q-57 304 -60 333l-290 -106q29 -181 109 -526q-145 -177 -391 -515z" />
<glyph unicode="y" horiz-adv-x="1184" d="M335 31q8 37 17.5 80t19.5 85t19.5 81.5t18.5 70.5q13 47 25.5 90t23.5 83q-23 97 -48 356q-10 100 -14 192.5t-4 174.5v45l163 29v114l350 65v-36t-0.5 -42.5t-1 -42t-1.5 -35.5v-39v-77q2 -5 1.5 -11t1.5 -11q32 45 62.5 84t62.5 75l42 -5q30 41 60.5 78t59.5 69 l317 -35q-112 -149 -227.5 -316t-239.5 -359q-17 -25 -39.5 -63t-49.5 -89l3 5q-9 -22 -21 -56t-23 -79q-10 -38 -21 -82.5t-21.5 -88.5t-20 -85.5t-15.5 -74.5l-134 -4q-9 -38 -16.5 -74t-12.5 -65zM550 220l250 4q29 131 70 285q26 95 46 141q60 106 93 157 q247 386 426 623l-239 26q-131 -145 -303 -468q-29 80 -33 222v236l-261 -48v-37q0 -127 17 -322q26 -268 53 -363q-27 -82 -53 -181q-34 -125 -66 -275z" />
<glyph unicode="z" horiz-adv-x="1207" d="M82 24q28 46 64.5 104.5t78.5 124t86.5 135t89.5 138.5q-40 -5 -78 -11.5t-64 -11.5l91 337q29 4 61.5 7.5t66.5 7.5l34 126q51 8 110.5 15.5t116.5 13.5l9 11q-44 -3 -93.5 -5t-101.5 -4t-103.5 -3.5t-99.5 -3.5l157 326l95 4l69 140q67 2 136 5t135 7t127.5 8t114.5 9 q30 2 73.5 6.5t90.5 9.5t92.5 10.5t81.5 10.5q-38 -49 -84.5 -109t-96.5 -125.5t-100.5 -133.5t-97.5 -132q25 0 50 1t43 2l-89 -334q-26 -2 -59 -2h-67l-38 -141q-31 0 -75 -1t-91 -3q-10 -15 -18 -28.5t-17 -27.5q109 9 224.5 26.5t239.5 41.5l-176 -341q-23 -4 -47 -7.5 t-50 -8.5l-65 -126q-42 -7 -88.5 -14t-93.5 -13t-93.5 -11t-86.5 -8q-47 -4 -104.5 -7.5t-119.5 -6.5t-124 -5t-116 -3zM314 212q220 5 406 20q161 15 328 41l126 246q-199 -38 -440 -58l-26 -4q80 128 188 287q123 9 220 10l67 246q-62 -3 -115 -5q195 275 366 493 q-142 -19 -262 -29q-211 -19 -483 -29l-112 -237q232 7 411 19q-65 -91 -167 -236q-132 -13 -278 -32l-67 -246q72 12 169 24q-203 -299 -331 -510z" />
<glyph unicode="{" horiz-adv-x="1444" d="M256 360l114 468l130 10l32 131l31 4l43 157q20 80 62 146t105 123q51 43 94 70q29 38 68 72q67 58 128.5 89.5t120.5 36.5q4 1 37 3t88.5 5.5t130.5 8t164 9.5l-157 -413l-111 -7l-51 -136l-160 -9l-16 -55q-141 -521 -220 -853l309 24l-107 -427l-128 -5l-35 -136 l-397 -24h-26q-58 0 -102 15.5t-74 50.5q-47 59 -47 149q0 18 1 38t5 40q9 45 26.5 113t40.5 159l41 153zM471 550l143 11l-53 -199q-47 -174 -66 -266q-24 -132 36 -200q54 -63 177 -56l354 20l83 336l-309 -24q84 345 231 898q39 147 66 237l289 16l123 324 q-354 -22 -371 -22q-102 -10 -214 -110t-149 -238q-48 -178 -92 -333l-154 -14z" />
<glyph unicode="|" horiz-adv-x="1080" d="M183 -387q20 100 44.5 211t52 228t57.5 237.5t62 239.5q37 139 76 275.5t77 264t74.5 242t69.5 210.5l115 1q13 38 24.5 73.5t22.5 68.5l398 7q-35 -110 -73 -231.5t-76 -251.5t-76.5 -264.5t-74.5 -269.5q-32 -119 -61.5 -236t-55.5 -227.5t-49 -211.5t-41 -187 l-135 -12q-8 -35 -15 -67.5t-14 -64.5zM398 -196l317 27q72 346 198 819q145 540 287 976l-314 -6q-130 -384 -282 -946q-126 -473 -206 -870z" />
<glyph unicode="}" horiz-adv-x="1449" d="M160 -379l111 413l125 5l37 138l202 9l14 55q69 259 123 470.5t97 382.5l-309 -24l107 425l128 7l36 136l396 23h24q107 0 167 -53t60 -159q0 -37 -9 -80q-8 -43 -30.5 -131.5t-57.5 -223.5l140 10l-113 -468l-131 -12l-31 -129l-31 -4l-63 -228q-17 -69 -55.5 -133 t-96.5 -123q-55 -57 -116 -91q-11 -13 -23 -26.5t-25 -26.5q-125 -125 -264 -138q-6 0 -38.5 -2t-86.5 -5t-127 -7.5t-160 -9.5zM377 -189q347 20 371 22q119 10 228 119q103 103 133 227q69 248 111 405l156 13l92 379l-140 -10v9q80 298 99 387q24 131 -35 197t-179 59 l-353 -21l-85 -337l310 23q-83 -346 -232 -897q-37 -147 -65 -236l-324 -15z" />
<glyph unicode="~" horiz-adv-x="1307" d="M425 879l89 328q37 33 75 57.5t77 44.5l10 39q159 137 307 152h15q35 0 66 -10.5t62 -33.5q25 -16 47 -24.5t42 -8.5h10q57 5 130 47t166 117l-87 -329q-77 -64 -152 -96l-12 -48q-148 -119 -292 -133h-12q-29 0 -59.5 10.5t-59.5 32.5q-53 36 -89 36h-5 q-122 -11 -328 -181zM657 1125q131 109 268 121q56 5 117.5 -38.5t111.5 -38.5q126 10 242 106l56 212q-116 -98 -240 -108q-58 -5 -118 38.5t-123 38.5q-133 -12 -259 -121z" />
<glyph unicode="&#xa1;" horiz-adv-x="920" d="M133 -333q31 111 67 234t74 247t76 243.5t73 221.5l118 10q4 9 6.5 17t7.5 19h-11q-51 0 -81 30t-30 79q0 22 7 46q9 32 26.5 61t41 52.5t51.5 40.5t57 25q14 30 35.5 56t47.5 46t55.5 32t59.5 15h15q52 0 82.5 -30.5t30.5 -78.5q0 -22 -7 -47q-8 -31 -25.5 -59.5 t-40.5 -52t-51.5 -40.5t-58.5 -25q-5 -11 -10 -20.5t-12 -20.5l110 10q-30 -118 -60 -241.5t-57.5 -243t-51 -230t-41.5 -200.5l-139 -20q-6 -32 -12.5 -62.5t-11.5 -58.5zM352 -138l250 39q72 360 188 829l-177 -15q-137 -411 -261 -853zM645 961q-14 -55 12.5 -87.5 t78.5 -28.5q52 5 97.5 44t59.5 94q13 55 -11.5 87.5t-77.5 26.5q-53 -3 -98.5 -42.5t-60.5 -93.5z" />
<glyph unicode="&#xa2;" horiz-adv-x="1415" d="M300 451q0 102 33 218q55 207 191 387q51 69 106.5 123t117.5 94q26 31 55 58t57 50l29 104l128 10l34 131l338 31l-42 -153q172 -44 228 -258l-167 -130q2 -2 2.5 -5t2.5 -7l-310 -240q-14 79 -51.5 120.5t-99.5 41.5q-5 0 -9 -1t-9 -1q-11 -2 -20 -3t-20 -6 q-26 -41 -45.5 -87t-32.5 -100q-24 -80 -24 -147q0 -16 1.5 -31t3.5 -29q15 -92 89 -92h10q25 3 49 10q8 12 14 22.5t12 23.5l39 -8q35 26 67 64.5t58 87.5l283 -67q-124 -239 -305 -357q-52 -60 -111 -105l-36 -135l-128 -10l-34 -132l-355 -31l48 183q-69 26 -114 82.5 t-66 147.5q-8 35 -12.5 71t-4.5 75zM522 471q41 -181 188 -218l-46 -171l271 24l46 176q246 92 378 346l-210 48q-43 -80 -114.5 -132t-150.5 -59q-109 -9 -130 116q-17 94 19 223q38 140 113 244q100 132 223 142q164 15 191 -131l224 174q-49 184 -227 216l38 140 l-253 -22l-38 -143q-180 -70 -325 -263q-128 -171 -181 -365q-52 -191 -16 -345z" />
<glyph unicode="&#xa4;" horiz-adv-x="1505" d="M249 150q18 25 40.5 55.5t46 62t46.5 63.5t43 60q-10 44 -10 94q0 78 25 169q21 82 59 156.5t92 143.5q-7 33 -14 70.5t-13.5 75t-12.5 72.5t-10 64l176 64q-4 21 -7.5 41t-6.5 38l381 138q2 -32 9 -83t16 -99q7 1 12 1q6 0 12 2q9 0 18 1t18 1q13 0 24.5 -1t23.5 -3 q18 18 35 35.5t35 34.5l12 -12q35 38 73.5 77t76.5 77l205 -154l-51.5 -51.5l-59.5 -59.5t-61.5 -63t-58.5 -61l14 -36l-58 -44q8 -26 12.5 -53t4.5 -57q0 -32 -5 -66.5t-15 -73.5q-16 -57 -42.5 -111.5t-62.5 -108.5q10 -29 22.5 -64.5t26.5 -72t28.5 -72t27.5 -65.5 l-195 -64q8 -22 16 -42t16 -38l-380 -123q-8 25 -22.5 64t-25.5 75q-23 -8 -48 -13.5t-48 -7.5q-26 -3 -47 -3q-6 -8 -12 -17l-51 27q-13 -20 -28 -43t-30 -45.5t-28.5 -44t-24.5 -38.5zM473 316l153 -91q58 92 113 169q51 -29 125 -22q59 5 119 31q24 -77 44 -142l287 94 q-54 131 -92 247q80 108 111 224q41 154 -5 256l58 44l-12 33q114 123 215 220l-147 111q-130 -131 -200 -207q-52 17 -121 11q-24 -2 -48 -7q-22 104 -29 176l-291 -108q20 -123 49 -254q-114 -137 -157 -301q-39 -145 -8 -261q-84 -114 -164 -223zM807 635q-13 70 14 172 q26 101 85 181q74 99 162 108q111 10 140 -72l-58 -48q33 -61 2 -167q-22 -90 -85 -164q-70 -85 -152 -92q-89 -9 -108 82zM848 701q0 -11 0.5 -22t3.5 -22h-2q11 -60 63 -60h12q7 14 12 30.5t10 34.5t7 34t2 33q0 28 -6.5 54t-19.5 52l58 46q-13 17 -32 23t-45 6h-10 q-13 -23 -22 -48t-15 -51q-16 -60 -16 -110z" />
<glyph unicode="&#xa5;" horiz-adv-x="1799" d="M258 -160l75 276l126 14l22 77l-131 -14l85 326l130 13l36 130l19 2q-5 31 -7.5 64t-6.5 71q-11 108 -16.5 212.5t-5.5 207.5v80l160 29v56t2 56l413 79q1 -18 1.5 -41.5t1 -47.5t0.5 -48v-41v-141l2 1q2 -19 2 -37q0 -17 1 -34q51 73 100 136.5t100 119.5l41 -5 q31 40 62 76.5t59 71.5l381 -39q-140 -186 -270 -372.5t-254 -378.5l266 27l-89 -326l-128 -13l-20 -77l128 14l-74 -279l-128 -12l-34 -129l-230 -23v-5l-51 -1l-82 -7q-9 -36 -17 -74t-12 -61l-398 -9l24 103zM474 29l282 29q-14 -53 -24 -106l312 7q12 58 31 130l364 37 l49 190l-367 -38q31 109 51 166l362 36l63 239l-285 -28q268 423 523 760l-299 30q-177 -194 -375 -565q-35 101 -41 268l-4 284l-328 -62q-3 -184 24 -445q19 -191 43 -316l-225 -22l-63 -239l280 27q-19 -63 -47 -165l-274 -28z" />
<glyph unicode="&#xa6;" horiz-adv-x="1072" d="M174 -387q18 87 40 188t46 206t49 208t49 195l134 22q6 32 14 62t16 59l417 70q-26 -99 -53.5 -209.5t-54 -220t-49.5 -213.5t-41 -190l-135 -12q-8 -33 -15.5 -66t-13.5 -64zM389 -198l318 29q71 345 177 741l-331 -57q-96 -365 -164 -713zM430 679q27 99 59.5 209.5 t66.5 221t68 216t64 195.5h114q13 37 25 72.5t23 68.5l399 7q-28 -85 -61 -189t-66.5 -216t-66.5 -226.5t-62 -220.5h-123q-11 -37 -21.5 -72.5t-19.5 -70.5zM647 867l316 -5q117 423 228 763l-314 -7q-121 -357 -230 -751z" />
<glyph unicode="&#xa8;" horiz-adv-x="1299" d="M599 1473q0 24 7 48q7 32 24.5 61.5t41.5 54t53 42.5t60 28q14 30 36 56t49 46.5t57 33.5t61 16h14q55 0 87 -32.5t32 -85.5v-12q0 -6 -1 -12q21 13 47 20q16 31 39.5 58.5t51.5 48t59.5 33.5t63.5 16h15q60 0 95 -35t35 -92q0 -25 -7 -49q-10 -33 -28.5 -64t-43 -57 t-54.5 -45.5t-62 -31.5q-17 -31 -40.5 -58t-51.5 -47.5t-59.5 -33t-63.5 -15.5h-15q-58 0 -92 34t-34 89q0 9 0.5 18t2.5 20q-9 -5 -20 -9t-23 -8q-15 -30 -37 -56.5t-49 -47t-57.5 -33t-61.5 -15.5h-15q-54 0 -85 32.5t-31 83.5zM810.5 1667.5q-15.5 -56.5 12 -92.5 t82.5 -30q54 3 103.5 46.5t63.5 99.5q15 55 -13 91.5t-81 31.5q-55 -5 -103.5 -47.5t-64 -99zM1187.5 1687.5q-15.5 -61.5 14.5 -101.5t90 -35q58 5 112.5 53t71.5 109q16 62 -15 101t-90.5 34t-113.5 -52t-69.5 -108.5z" />
<glyph unicode="&#xa9;" horiz-adv-x="1679" d="M328 468q0 79 24 169q35 130 108 242.5t185 207.5q18 17 37 31.5t38 28.5q21 22 42 42.5t45 41.5q113 97 230.5 149t244.5 64q13 2 24 2h23q270 0 378 -265l-34 -20q27 -68 27 -147q0 -75 -22 -156q-32 -122 -104 -229t-183 -202q-36 -32 -72 -57q-22 -22 -44 -43.5 t-48 -43.5q-109 -91 -222.5 -142.5t-231.5 -61.5q-15 -2 -29.5 -3t-28.5 -1q-100 0 -176.5 36.5t-132.5 108.5q-40 53 -59 115t-19 133zM556 783q-61 -232 53.5 -384.5t339.5 -133.5q218 18 421.5 191.5t264.5 396.5q49 185 -17 314l32 21q-95 237 -380 211 q-234 -20 -441.5 -197.5t-272.5 -418.5zM727 799q44 169 186.5 290t305.5 135q180 15 252 -121l-32 -21q66 -94 27 -239q-41 -154 -182 -272.5t-289 -130.5q-155 -13 -233 92.5t-35 266.5zM823 927q24 26 51.5 46t55.5 34q2 2 1.5 2.5t2.5 2.5q-44 -16 -81 -37 q-9 -12 -16.5 -23.5t-13.5 -24.5zM872 807q-31 -112 2 -198q36 -95 141 -87q175 16 267 191l-104 26q-48 -89 -134 -96q-52 -5 -64 58q-7 47 10 111q19 69 58 123q48 65 109 70q82 9 96 -66l114 87q-36 124 -177 111q-110 -9 -204 -116q-81 -96 -114 -214zM1021 733 q0 -6 1 -11q10 -34 31 -34h3q27 1 54.5 26.5t51.5 75.5l109 -25q0 28 -6 54t-17 55l-193 -149q-3 25 -11 43.5t-17 30.5q-4 -14 -5 -27t-1 -26v-13zM1145 522q11 4 20.5 10t20.5 12l7 11q-11 -9 -23.5 -17.5t-24.5 -15.5z" />
<glyph unicode="&#xab;" horiz-adv-x="1681" d="M340 589l360 534l66 2l96 141l406 11l-358 -516l5 -15l275 408l66 1l96 142l406 10l-359 -515l101 -481l-188 -16l26 -126l-411 -36l-28 138l-76 -6l25 -127l-411 -36zM550 737l90 -447l317 29l-93 440l327 472l-314 -9zM1039 768l89 -447l318 29l-91 440l326 471 l-314 -7z" />
<glyph unicode="&#xad;" d="M317 408l118 328l115 10l47 133q88 8 182.5 18t183.5 20.5t168.5 20.5t138.5 18l-98 -314q-32 -7 -63.5 -11.5t-62.5 -9.5l-37 -121q-165 -31 -337.5 -54t-354.5 -38zM539 599q311 27 603 80l71 227q-237 -34 -587 -68z" />
<glyph unicode="&#xae;" horiz-adv-x="1679" d="M328 468q0 79 24 169q35 130 108 242.5t185 207.5q18 17 37 31.5t38 28.5q21 22 42 42.5t45 41.5q113 97 230.5 149t244.5 64q13 2 24 2h23q270 0 378 -265l-34 -20q27 -68 27 -147q0 -75 -22 -156q-32 -122 -104 -229t-183 -202q-36 -32 -72 -57q-22 -22 -44 -43.5 t-48 -43.5q-109 -91 -222.5 -142.5t-231.5 -61.5q-15 -2 -29.5 -3t-28.5 -1q-100 0 -176.5 36.5t-132.5 108.5q-40 53 -59 115t-19 133zM556 783q-61 -232 53.5 -384.5t339.5 -133.5q218 18 421.5 191.5t264.5 396.5q49 185 -17 314l32 21q-95 237 -380 211 q-234 -20 -441.5 -197.5t-272.5 -418.5zM727 799q44 169 186.5 290t305.5 135q180 15 252 -121l-32 -21q66 -94 27 -239q-41 -154 -182 -272.5t-289 -130.5q-155 -13 -233 92.5t-35 266.5zM829 507l125 12q17 66 55 176q94 -55 112 -185l135 41q-34 128 -123 178 q82 34 150.5 102t88.5 145q50 183 -334 149q-33 -2 -74 -12l-12 -113q21 5 43 9q-116 -331 -166 -502zM1043 806l56 179l-46 27q36 2 51 3q154 14 130 -78q-14 -56 -77 -94q-56 -32 -114 -37zM1215 729q9 -13 19 -26t19 -29q2 5 4.5 10.5t2.5 11.5q6 18 8.5 37t2.5 37 q-14 -12 -28 -22t-28 -19z" />
<glyph unicode="&#xaf;" horiz-adv-x="1579" d="M536 1075l72 263l128 12l34 131l935 82l-70 -264l-126 -10l-38 -132zM754 1265l850 75l46 176l-850 -76z" />
<glyph unicode="&#xb0;" horiz-adv-x="942" d="M449 1022q0 16 1.5 32.5t6.5 34.5q14 50 42.5 94.5t72.5 82.5q20 20 43 34.5t47 25.5q13 22 32 42.5t42 41.5q86 75 184 83q6 2 12 2h13q82 0 123 -56q31 -41 31 -98q0 -33 -10 -70q-26 -101 -114 -177q-23 -20 -45 -34.5t-46 -25.5q-30 -47 -72 -82q-88 -78 -184 -85 q-5 0 -11 -1t-11 -1q-83 0 -126 58q-31 41 -31 99zM662 1236q-20 -84 20 -137t120 -46t152 70t94 145q20 84 -20 136.5t-120 46t-152 -69.5t-94 -145zM777 1241q10 34 40 60.5t62 30t49 -19.5t9 -56q-9 -34 -39.5 -60.5t-62.5 -29.5q-33 -2 -50 20t-8 55z" />
<glyph unicode="&#xb1;" horiz-adv-x="1270" d="M177 -147l120 328l114 8l50 134l42 3l33 140l-208 -9l44 306l143 7l19 135l106 6l17 81l131 1l33 140l287 7l-48 -210l230 12l-44 -305l-143 -7l-19 -137l-127 -5l-17 -75l-131 -3l-10 -52q97 11 182.5 21.5t150.5 21.5l-99 -314l-125 -22l-38 -121q-165 -30 -338 -52.5 t-355 -38.5zM401 44q311 26 603 81l71 227q-237 -36 -587 -69zM539 645l212 10l-46 -203l205 4l47 210l253 12l31 218l-234 -12l48 210l-203 -3l-50 -215l-230 -12z" />
<glyph unicode="&#xb4;" horiz-adv-x="913" d="M451 1318v133l162 70v73l585 249l-73 -276l-133 -29l-31 -115zM655 1512l437 89l46 176l-481 -205z" />
<glyph unicode="&#xb6;" horiz-adv-x="2039" d="M338 657q0 20 1.5 41.5t3.5 43.5v-1q2 20 6.5 44t12.5 50q29 110 97 199t174 157q132 164 403 256q115 38 270 66t353 45q29 3 57.5 4t56.5 1q107 0 206.5 -18.5t196.5 -54.5l-162 -384q-23 13 -42 24t-33 19l-352 -1204l-119 4l-43 -147l-333 7l36 119l-51 -3l-39 -132 l-374 -34l136 442h-8q-220 0 -341 132q-56 62 -84.5 142t-28.5 182zM550 896q-26 -246 102 -384t369 -121l-139 -440l289 25l358 1179l-109 62q90 14 186 22q36 3 68 3l-363 -1245l249 -6l355 1221q41 -16 85 -40l121 289q-204 77 -474 55q-391 -36 -609 -110 q-395 -133 -471 -425q-12 -44 -17 -85zM840 862q-7 41 1 75q46 167 432 253l-159 -521q-232 -20 -274 193zM881 915q0 -8 0.5 -16t2.5 -17v2q11 -51 33.5 -88t57.5 -57l78 251q-51 -11 -93 -25t-78 -30q-1 -5 -1 -10v-10z" />
<glyph unicode="&#xb7;" horiz-adv-x="838" d="M350 698q0 25 7 50q8 32 26 61.5t42.5 54.5t53.5 44.5t60 31.5q17 31 42 59t55 49t63 34t66 15q5 0 9.5 1t8.5 1q58 0 93 -34.5t35 -91.5q0 -12 -1 -24.5t-5 -25.5q-9 -33 -27 -63.5t-43 -56t-54.5 -45t-61.5 -31.5q-16 -32 -40.5 -59t-53.5 -47.5t-61.5 -33t-65.5 -15.5 q-5 0 -9.5 -1t-8.5 -1q-58 0 -94 35t-36 93zM561 894q-17 -63 16.5 -102t95 -34t117 52t72.5 110q17 61 -15.5 100.5t-94 34.5t-117.5 -52t-74 -109z" />
<glyph unicode="&#xbb;" horiz-adv-x="1676" d="M232 72l369 522l-94 478l188 15l-24 128l421 34l19 -112l80 8l-22 125l416 46l88 -483l-371 -528l-66 -5l-98 -136l-411 -38l370 524l-3 10l-288 -409l-67 -7l-96 -136zM473 265l317 27l340 483l-77 426l-324 -23l83 -436zM969 319l318 29l338 483l-77 439l-324 -38 l83 -433z" />
<glyph unicode="&#xbf;" horiz-adv-x="1350" d="M85 -46q0 26 4 54.5t13 59.5q54 208 243 314q66 88 165.5 145.5t238.5 86.5l14 40l121 6l10 29q-48 3 -73.5 29.5t-25.5 71.5q0 13 2.5 27t6.5 30q8 33 25 62t39.5 52t50 39t57.5 24q29 63 81.5 103.5t118.5 46.5h12q53 0 84.5 -29.5t31.5 -81.5q0 -22 -7 -46 q-8 -31 -25.5 -59.5t-40.5 -52t-51 -40.5t-57 -25q-7 -9 -10.5 -17.5t-9.5 -16.5l128 8q-3 -11 -9.5 -30.5t-14 -42.5l-15 -46t-13.5 -41q-8 -26 -18.5 -60.5t-22.5 -73.5t-25 -80t-26 -80q-32 -4 -62.5 -7.5t-60.5 -7.5q-9 -32 -19.5 -64.5t-19.5 -62.5q-53 -7 -102 -13 t-90 -10.5t-71.5 -7.5t-47.5 -4q12 -16 40 -22.5t73 -6.5h26t29 1q97 9 178.5 22.5t152.5 34.5l-34 -306q-38 -11 -75 -17.5t-77 -13.5l-11 -112q-75 -20 -152.5 -31.5t-161.5 -19.5l-83 -7q-22 -2 -42 -3t-40 -1q-77 0 -139 14t-107 43q-106 67 -106 196zM307 215 q-53 -191 79 -273q109 -68 307 -51l84 7q157 13 262 41l24 220q-104 -31 -295 -48q-237 -21 -201 111q17 65 88 106q57 34 125 41q53 3 278 30q84 265 114 369l-216 -14l-48 -158q-510 -45 -601 -381zM1008.5 993.5q-15.5 -56.5 9.5 -89t79 -27.5q53 5 98.5 43.5t58.5 93.5 q14 54 -11.5 87.5t-78.5 28.5q-55 -5 -97.5 -42.5t-58 -94z" />
<glyph unicode="&#xc0;" horiz-adv-x="1406" d="M-17 -297q63 148 148 333t185.5 396.5t214 444.5t235.5 476l92 2q3 7 5.5 12t6.5 10l-286 14l73 276l114 -37l48 181l476 -157l-71 -140l-113 3l22 -7l-5 -10l287 9q-50 -344 -75 -733t-28 -824l-162 -42v-101l-411 -111l20 283q-38 4 -78 6.5t-82 3.5l-58 -150l-106 4 l-56 -145zM208 -111l309 -3l106 278q37 5 68 8q150 12 275 -10l-19 -266l324 87q2 833 94 1480l-416 -9q-488 -973 -741 -1565zM734 432q201 445 310 667q-23 -142 -37 -333q-7 -165 -15 -327q-93 10 -197 1q-27 -3 -61 -8zM799 1575l408 -15l32 63l-394 128z" />
<glyph unicode="&#xc1;" horiz-adv-x="1403" d="M-43 -299q63 148 148 333.5t185.5 397t214.5 444.5t236 476l92 1q17 35 34.5 70t37.5 70h11l156 67v73l583 251l-73 -278l-131 -27l-31 -115l-38 -8q-47 -333 -70.5 -709.5t-24.5 -795.5l-162 -45v-99l-412 -111l21 282q-38 5 -78 7.5t-83 2.5l-58 -148l-105 3l-57 -147z M183 -113l309 -3l105 278q38 5 69 7q150 14 274 -10l-18 -265l324 87q2 833 94 1480l-417 -10q-486 -973 -740 -1564zM708 430q202 444 311 667q-24 -141 -38 -332q-6 -166 -15 -330q-92 12 -196 2q-28 -2 -62 -7zM1114 1551l437 91l46 176l-481 -205z" />
<glyph unicode="&#xc2;" horiz-adv-x="1399" d="M-32 -297q63 147 148 332t185.5 396.5t214 444.5t235.5 476l92 1q4 8 7.5 16.5t7.5 16.5l-271 -12l184 143h-22l379 294l210 20l218 -257l-261 -28l36 -42l68 3q-4 -18 -5.5 -36t-4.5 -36l5 -5h-5q-45 -331 -67.5 -698.5t-24.5 -780.5l-162 -43v-99l-411 -113l20 284 q-38 4 -78 7t-82 3l-58 -149l-106 2l-56 -145zM193 -111l309 -5l106 278q37 5 68 9q150 13 275 -11l-19 -266l324 87q2 833 94 1480l-416 -9q-487 -972 -741 -1563zM719 432q201 444 310 665q-24 -140 -37 -332q-7 -164 -16 -328q-92 10 -196 2q-27 -4 -61 -7zM870 1565 l205 9l118 80l72 -69l198 21l-151 181l-180 -19z" />
<glyph unicode="&#xc3;" horiz-adv-x="1415" d="M-29 -297q63 147 148 332.5t185.5 397t214 444.5t235.5 476h93l52 108q-59 -5 -141.5 -50t-185.5 -131l87 328q79 65 152 102l12 41q160 138 307 150q5 0 10 1t10 1q34 0 64 -12t61 -34q48 -33 90 -33h7q57 5 130 47t167 119l-89 -331q-38 -31 -76 -55t-74 -39l-12 -48 q-5 -4 -9 -6.5t-6 -5.5q-50 -341 -76 -730t-27 -824l-162 -43v-99l-411 -113l21 284q-39 5 -79 7.5t-82 2.5l-58 -149l-106 2l-56 -145zM196 -111l309 -3l106 278q38 3 68 7q150 13 275 -11l-19 -264l325 85q1 833 93 1480l-416 -9q-486 -972 -741 -1563zM722 432 q201 444 311 665q-24 -140 -38 -331q-7 -165 -15 -329q-93 10 -197 2q-27 -2 -61 -7zM804 1526q133 109 269 123q57 3 117.5 -40.5t109.5 -38.5q125 10 245 108l54 210q-114 -96 -239 -108q-58 -5 -117.5 39.5t-122.5 37.5q-134 -12 -260 -120z" />
<glyph unicode="&#xc4;" horiz-adv-x="1413" d="M-26 -297q63 148 148 333t185.5 396.5t214.5 444.5t236 476h92q4 9 7.5 16l6.5 13q-36 -16 -74 -20h-15q-54 0 -85 31.5t-31 82.5q0 12 1 24.5t6 25.5q7 32 24.5 61.5t41.5 54t52.5 42.5t58.5 28q14 30 36 56t49 46.5t57.5 33.5t62.5 16h14q55 0 87 -32.5t32 -85.5v-11 t-2 -13q11 7 22.5 12t25.5 10q16 31 39.5 57.5t51.5 47t59 33.5t63 16h16q59 0 94 -34.5t35 -91.5q0 -12 -1 -24.5t-5 -25.5q-10 -33 -28.5 -64t-43.5 -57t-54.5 -45.5t-61.5 -31.5q-3 -10 -10 -17h25q-50 -342 -75 -731t-27 -824l-162 -44v-99l-412 -111l21 282 q-38 5 -78 7.5t-82 2.5l-59 -149l-105 2l-57 -145zM200 -111l309 -3l105 278q38 5 69 7q150 13 274 -11l-18 -264l324 85q2 833 94 1482l-417 -11q-486 -972 -740 -1563zM725 432q202 444 311 665q-24 -140 -38 -331q-6 -165 -15 -329q-92 12 -196 2q-28 -2 -62 -7z M870.5 1672.5q-15.5 -56.5 12 -92t81.5 -30.5q55 3 104.5 46.5t63.5 99.5q15 55 -13 91.5t-83 31.5q-53 -5 -101.5 -47.5t-64 -99zM986 1497h48q0 9 2 17t2 17q-11 -5 -21.5 -9t-21.5 -8q-2 -4 -4 -8.5t-5 -8.5zM1248 1695q-17 -62 13.5 -103t88.5 -36q60 7 114.5 54 t71.5 109q15 61 -16.5 100.5t-89.5 33.5q-60 -5 -113.5 -52t-68.5 -106z" />
<glyph unicode="&#xc5;" horiz-adv-x="1393" d="M-36 -297q63 147 148 332t185.5 396.5t214.5 444.5t236 476l92 1q4 8 7.5 14.5t5.5 14.5q-6 5 -12.5 12t-11.5 14q-30 43 -30 101q0 15 1.5 31.5t6.5 34.5q26 102 115 178q40 36 90 59q26 44 73 84q85 76 185 84q6 1 12 1h13q80 0 123 -56q31 -40 31 -97q0 -34 -10 -70 q-25 -100 -115 -178q-45 -39 -90 -59q-4 -5 -6.5 -9.5t-7.5 -9.5l176 5q-50 -343 -75 -732t-27 -824l-162 -43v-101l-412 -111l21 284q-39 4 -78.5 6t-82.5 4l-58 -150l-106 3l-56 -145zM189 -113l309 -3l106 278q38 5 68 9q151 12 275 -11l-19 -266l325 87q1 833 94 1480 l-417 -9q-486 -972 -741 -1565zM715 430q201 446 311 667q-24 -141 -38 -332q-7 -166 -15 -328q-92 10 -196 2q-28 -4 -62 -9zM1012 1722q-20 -84 20 -136.5t120 -46t152 70t92 144.5q22 84 -18 137t-120 46q-80 -8 -152 -70.5t-94 -144.5zM1126 1727q11 34 40.5 60.5 t62.5 30.5q32 1 49 -21t9 -54q-9 -35 -39.5 -61.5t-63.5 -29.5q-32 -2 -49 20.5t-9 54.5z" />
<glyph unicode="&#xc6;" horiz-adv-x="2009" d="M-31 -297q82 150 189.5 337t233.5 401t268 449t292 480l75 2l89 140q210 5 452.5 19t501.5 36q21 2 50 5t60.5 6.5l63 7t55.5 6.5l-142 -408q-26 -1 -55.5 -2t-58.5 -3l-48 -138q-37 -1 -79.5 -3t-85 -5t-84 -5.5t-75.5 -5.5l-75 -7q-7 -23 -11.5 -45t-10.5 -45 q50 8 100 13.5t98 10.5l63 4.5t72 4.5t72.5 4t65.5 2l-108 -397q-24 0 -56.5 -1t-68.5 -1l-37 -140q-24 -1 -56 -1.5t-66 -1.5t-68 -2.5t-63 -4.5q-24 -3 -47.5 -5.5t-46.5 -5.5q-6 -23 -10.5 -45t-9.5 -47q58 8 115 13.5t114 10.5q33 3 72 6t79.5 5.5t80.5 4.5t73 3 l-106 -394q-24 -2 -56 -3.5t-68 -3.5l-38 -137q-36 -1 -86 -4t-109.5 -6.5t-126 -8.5t-133.5 -11q-9 -1 -47.5 -6t-103 -13.5t-152 -20.5t-192.5 -27l49 263q-31 5 -63.5 6.5t-67.5 1.5h-41l-77 -151l-89 3l-73 -145zM200 -111l305 -3l140 280q38 5 68 8q152 14 272 -10 l-46 -251q421 56 452 60q273 24 416 29l82 307q-133 -5 -263 -15q-133 -12 -266 -31q9 75 29 152q7 20 13 59.5t11 59.5q5 17 10 31q139 24 273 36q116 10 212 10l84 307q-120 -3 -234 -13q-116 -11 -234 -28q19 94 43 185q17 66 34 119q126 17 242 27q140 12 289 19 l107 316q-95 -12 -181 -21q-512 -44 -928 -53q-604 -981 -930 -1580zM787 437q70 128 227 358q165 241 228 354q-97 -330 -198 -707q-90 12 -192 2q-31 -2 -65 -7zM858 488h6l27 4l22 88q-15 -26 -28 -49t-27 -43z" />
<glyph unicode="&#xc8;" horiz-adv-x="1343" d="M123 -290q19 84 40 174t43 179.5t43.5 176t42.5 164.5q37 137 77.5 274.5t82.5 277.5l-123 -4l89 371q34 2 66 2.5t64 2.5l34 138h5l53 200l116 -38l46 181l476 -157l-71 -140l-113 4l22 -7l-8 -16l160 14q41 4 90 9t101.5 10.5t105 11.5t99.5 12l-123 -393 q-27 -2 -58 -2.5t-63 -2.5l-41 -137q-37 -1 -79.5 -3t-86 -4.5t-85 -6t-75.5 -6.5l-75 -7q-7 -22 -12 -44.5t-10 -44.5q50 7 99 12.5t97 10.5q29 2 64.5 4.5t72 4t72 3t64.5 1.5l-106 -394q-32 -2 -63 -2q-30 0 -61 -1l-38 -140q-76 0 -144.5 -3t-128.5 -8 q-18 -1 -36.5 -3.5t-36.5 -4.5q-7 -22 -11.5 -46t-9.5 -48q58 8 115 14.5t114 11.5q33 2 73 5t80.5 5t79.5 4t72 3l-105 -395q-30 -1 -62 -1q-31 0 -63 -2l-38 -140q-53 -2 -112.5 -4.5t-120 -6t-120 -8t-112.5 -8.5q-53 -5 -112.5 -11.5t-120.5 -13t-121 -14t-114 -14.5z M340 -99q216 29 426 48q212 19 424 27l80 307q-130 -5 -261 -17q-133 -12 -268 -30q10 75 30.5 151.5t51.5 155.5q119 20 235 30q118 11 232 11l84 307q-118 -4 -234 -14t-234 -27q17 94 43 188q19 66 34 117q125 16 242 26q140 12 289 19l94 300q-188 -22 -352 -37 q-276 -24 -642 -38l-70 -285l127 5q-96 -304 -173 -594q-83 -312 -158 -650zM782 1574l408 -16l32 63l-394 128z" />
<glyph unicode="&#xc9;" horiz-adv-x="1348" d="M106 -292q19 84 40 174t43 180t43.5 176.5t42.5 164.5q37 137 77.5 274t82.5 277l-123 -3l89 370q33 2 65.5 2.5t64.5 2.5l34 138q84 4 167 8t167 8l2 10l162 70v73l586 249l-75 -276l-132 -29l-15 -55q55 7 112 13.5t108 14.5l-123 -395q-27 0 -58 -1.5t-63 -3.5 l-41 -136q-37 -2 -79.5 -4t-86 -4.5t-85 -6t-75.5 -6.5l-75 -7q-7 -22 -12 -44l-10 -44q50 6 99 12t97 10q29 3 64.5 5t72 4t72 3t64.5 2l-106 -395q-63 0 -124 -3l-38 -140q-76 0 -144.5 -2.5t-128.5 -7.5q-18 -2 -37 -3.5t-36 -5.5q-7 -22 -11.5 -45.5t-9.5 -48.5 q58 8 115 14.5t114 11.5q33 3 73 5.5t80.5 5t79.5 4.5t72 4l-106 -396q-29 -2 -61 -2q-31 0 -63 -2l-38 -138q-53 -3 -112.5 -6t-120 -6.5t-120 -8t-111.5 -8.5q-53 -5 -113 -11t-121 -13t-121 -14.5t-114 -14.5zM323 -101q216 29 426 48q212 19 423 27l81 308 q-130 -6 -261 -17q-134 -12 -268 -31q10 75 30 152q21 78 52 155q119 22 235 31q118 10 232 10l84 307q-116 -3 -234 -13q-116 -11 -234 -28q17 94 43 188q19 67 34 118q125 15 242 25q140 14 289 19l94 302q-188 -24 -352 -37q-276 -26 -642 -40l-70 -285l127 5 q-96 -303 -173 -593q-83 -313 -158 -651zM1106 1551l437 89l46 176l-481 -205z" />
<glyph unicode="&#xca;" horiz-adv-x="1352" d="M116 -292q19 84 40 174t43 180t43.5 176.5t42.5 164.5q38 137 78 275t82 278l-122 -4l88 371q34 1 66 1.5t64 3.5l34 138q31 2 64 2q34 0 66 1l58 47h-22l379 293l209 22l219 -257l-261 -29l31 -33q39 3 82 7.5t87 9.5t87 10.5t83 10.5l-123 -393q-27 -2 -58 -2.5 t-63 -2.5l-41 -138q-37 -2 -79.5 -4t-86 -4.5t-85 -5t-75.5 -5.5l-75 -7q-6 -23 -11.5 -45t-10.5 -45q50 8 99 13t97 9q29 3 64.5 5.5t72 4.5t72 3.5t64.5 1.5l-106 -396h-63q-30 0 -61 -1l-38 -140q-75 -2 -144 -4t-129 -7q-18 -2 -36.5 -4t-36.5 -4q-7 -23 -11.5 -46.5 t-9.5 -47.5q58 8 115 13.5t114 10.5q33 3 73 6t81 5.5t80 4.5t72 3l-106 -395q-30 -1 -61.5 -1.5t-63.5 -3.5l-37 -138q-53 -2 -113 -4.5t-120.5 -6.5t-120 -8.5t-112.5 -9.5t-112.5 -10.5t-120.5 -12.5t-121 -14.5t-114 -15.5zM333 -99q217 29 426 48q212 19 424 25l80 308 q-130 -4 -261 -16q-133 -12 -268 -30q10 75 30.5 151.5t51.5 155.5q119 20 235 30q118 11 232 11l84 307q-118 -4 -234 -14t-234 -27q17 94 43 186q19 68 34 118q125 17 243 27q140 12 288 19l94 300q-188 -24 -352 -37q-276 -24 -641 -40l-70 -283l126 3 q-96 -302 -172 -593q-84 -313 -159 -649zM862 1565l205 9l117 78l72 -67l198 21l-150 181l-181 -21z" />
<glyph unicode="&#xcb;" horiz-adv-x="1357" d="M119 -292q19 85 40.5 175t43 179.5t43.5 176.5t42 165q38 137 78.5 274.5t82.5 277.5l-123 -4l89 371q33 1 65 2t64 3l35 138h32t34 2q0 13 2.5 27t6.5 31q7 31 24.5 60t41.5 53.5t52.5 42.5t58.5 28q14 30 36 56.5t49 47t57.5 33t62.5 15.5h15q54 0 86 -32.5t32 -85.5 v-11t-2 -13q19 12 48 23q16 30 39.5 57t51.5 47.5t59 33t63 15.5q5 0 10 1t9 1q58 0 92.5 -35.5t34.5 -92.5q0 -24 -7 -48q-10 -34 -28.5 -65t-43.5 -57t-54.5 -45.5t-61.5 -30.5q0 -5 -2 -7q69 7 143.5 16t140.5 17l-123 -393q-27 -2 -58 -2.5t-63 -2.5l-41 -137 q-37 -2 -79.5 -4t-86 -4.5t-85 -5.5t-75.5 -6l-75 -7q-7 -23 -12.5 -45t-10.5 -44q51 7 100 12.5t97 10.5q28 2 63.5 4.5t72.5 4t72.5 3t64.5 1.5l-106 -396h-63t-62 -1l-37 -140q-76 0 -144.5 -3t-128.5 -8q-18 -1 -37 -3.5t-37 -4.5q-6 -22 -10.5 -46t-9.5 -48 q58 8 114.5 14.5t113.5 11.5q33 2 73 5t81 5t80 4t72 3l-106 -395q-29 -1 -61 -1q-31 0 -63 -2l-38 -140q-53 -2 -112.5 -4.5t-120.5 -6.5t-120.5 -8.5t-112.5 -9.5t-112 -10.5t-120.5 -12.5t-121.5 -14.5t-114 -15.5zM336 -99q217 29 427 48q212 19 423 27l80 306 q-129 -4 -261 -16q-133 -12 -268 -30q11 75 31 151.5t51 155.5q120 20 236 30q117 11 232 11l83 307q-117 -4 -233 -14t-234 -27q17 94 42 188q19 66 35 117q124 16 242 26q140 12 288 19l94 300q-187 -22 -351 -37q-277 -24 -642 -40l-70 -283l126 5q-95 -304 -172 -594 q-84 -312 -159 -650zM858 1673q-15 -57 12.5 -93.5t82 -31.5t104 47.5t63.5 99.5q15 56 -13 92t-83 31q-53 -4 -101.5 -47.5t-64.5 -97.5zM966 1485q14 2 28 2t28 1q0 11 1 21.5t3 21.5q-9 -7 -20.5 -11t-22.5 -6q-5 -9 -8.5 -16t-8.5 -13zM1236 1693q-17 -61 13.5 -101.5 t90.5 -35.5q58 6 112.5 53.5t71.5 109.5q15 61 -16.5 100.5t-89.5 33.5q-59 -6 -113 -52.5t-69 -107.5z" />
<glyph unicode="&#xcc;" horiz-adv-x="1104" d="M38 -309l83 360l132 19l30 125l34 5q18 81 38.5 161.5t40.5 160.5q28 107 61.5 218t71.5 229l-165 -13l109 367q22 2 55.5 5.5t68.5 7.5l9 36l-152 7l73 278l115 -39l47 181l477 -157l-72 -140l-114 3l24 -5v-2q44 2 87.5 3t89.5 1q60 0 120 -1.5t122 -5.5l-111 -369h-78 h-41l-44 -143q-13 0 -27 1t-30 1q-13 -45 -26 -90.5t-23 -87.5q-34 -128 -66 -262.5t-64 -286.5l169 7l-84 -361q-60 0 -129 -3l-33 -140q-44 -1 -94.5 -2t-103 -3.5t-103.5 -5t-96 -6.5t-96.5 -10t-104 -13t-104 -15t-96.5 -15zM253 -114q182 29 361.5 44t353.5 17l61 271 l-167 -5q66 323 138 591q41 148 80 281l-199 82q201 9 404 4l84 281q-265 16 -529 -8q-103 -9 -174 -17l-82 -282q82 9 165 16q-87 -260 -148 -492q-65 -242 -113 -488l-172 -26zM669 1565l406 -17l33 63l-393 128z" />
<glyph unicode="&#xcd;" horiz-adv-x="1072" d="M-15 -312l83 360l132 17l30 124l35 6q17 81 37.5 162t40.5 162q29 106 62 216.5t71 228.5l-165 -13l109 367q23 2 56 6t68 9l36 123l2 7l160 68l2 75l584 249l-74 -276l-133 -29l-13 -53q64 0 130 -1.5t132 -5.5l-109 -369q-31 0 -60 1t-61 1l-44 -145q-13 0 -27 1t-30 1 q-13 -45 -25.5 -90.5t-23.5 -87.5q-34 -126 -66 -261.5t-64 -287.5l169 6l-84 -360q-29 0 -61.5 -0.5t-67.5 -2.5l-33 -140q-44 0 -94.5 -1.5t-103 -3.5t-103.5 -5t-96 -7t-96.5 -10t-104 -12.5t-104 -14t-96.5 -14.5zM201 -119q181 29 360 46q180 15 354 17l61 269l-167 -3 q67 321 138 589q41 150 80 281l-198 82q200 9 403 5l84 280q-265 16 -529 -8q-103 -9 -174 -17l-82 -280q82 7 167 13q-87 -259 -150 -491q-65 -241 -113 -487l-172 -25zM787 1524l435 89l48 176l-482 -205z" />
<glyph unicode="&#xce;" horiz-adv-x="1087" d="M-2 -312l84 360l131 19l31 124l34 5q18 81 38 162t41 161q28 106 61.5 217.5t71.5 229.5l-166 -14l109 367q23 3 56 6.5t69 7.5l10 32l-138 -5l186 144h-22l377 293l212 21l216 -258l-261 -27l31 -35q53 0 106.5 -2t108.5 -4l-109 -369h-80h-41l-45 -143q-13 0 -27 0.5 t-29 0.5q-13 -45 -26 -90.5t-23 -86.5q-34 -128 -66 -263t-64 -287l169 7l-84 -360q-29 0 -62 -1t-68 -2l-32 -140q-44 -1 -94.5 -2t-103 -3.5t-104 -5t-96.5 -6.5t-96 -10.5t-103.5 -13.5t-104.5 -14.5t-97 -14.5zM215 -118q181 29 360 44.5t353 17.5l62 271l-167 -5 q66 322 138 590q41 149 80 282l-200 82q202 8 405 3l83 282q-264 15 -529 -9q-102 -8 -174 -17l-82 -281q82 8 168 15q-87 -259 -151 -491q-64 -243 -112 -489l-173 -25zM713 1551l205 9l120 80l70 -68l199 20l-152 181l-179 -19z" />
<glyph unicode="&#xcf;" horiz-adv-x="1109" d="M10 -311l84 360l131 19l31 123l34 5q18 82 38 163t41 162q28 105 61.5 217t71.5 230l-166 -16l109 369q22 2 55.5 5.5t69.5 8.5l7 22q-32 13 -50 40t-18 67q0 12 1 24.5t5 25.5q9 31 26.5 60t41.5 53.5t52.5 43t59.5 27.5q14 30 36 56.5t49 47t57.5 33t61.5 15.5h16 q53 0 84.5 -32.5t31.5 -83.5v-13t-2 -13q11 7 22.5 12.5t25.5 10.5q16 30 39.5 57t51.5 47.5t59.5 33t64.5 15.5h15q58 0 93 -34.5t35 -91.5q0 -11 -1 -23t-6 -25q-9 -34 -27.5 -65t-43.5 -57t-54.5 -45.5t-60.5 -30.5q-1 -4 -3 -6.5t-3 -7.5q38 -1 78 -2t82 -3l-109 -370 q-31 0 -60 1t-61 1l-45 -145q-13 1 -27 2t-29 1q-13 -45 -26 -90.5t-24 -86.5q-33 -128 -65 -263.5t-64 -286.5l169 5l-84 -360h-62t-68 -2l-32 -140q-44 0 -94.5 -1.5t-103 -3.5t-104 -5.5t-96.5 -7.5t-96 -10t-103.5 -13t-104.5 -14.5t-97 -14.5zM225 -118 q183 31 362 46.5t353 16.5l62 272l-167 -5q66 320 138 588q41 151 80 282l-200 82q202 10 405 5l83 282q-264 13 -529 -9q-102 -10 -174 -17l-82 -282q82 7 166 14q-85 -259 -149 -490q-64 -242 -112 -488l-173 -25zM720 1659q-13 -55 13 -91.5t81 -31.5t104.5 47.5 t62.5 99.5q16 56 -11.5 92t-82.5 31q-54 -4 -102.5 -47.5t-64.5 -99.5zM838 1487l46 3q0 8 1.5 15t1.5 14q-8 -7 -19.5 -11t-22.5 -6q-3 -5 -4 -9t-3 -6zM1099 1681q-17 -61 13 -101.5t89.5 -35t113.5 53t71 109.5q15 59 -15.5 99.5t-90.5 33.5q-60 -5 -113 -51t-68 -108z " />
<glyph unicode="&#xd1;" horiz-adv-x="1531" d="M104 -290q22 92 45.5 191.5t48.5 200.5t50.5 201t50.5 194q33 122 66.5 243.5t71.5 240.5l-56 137l177 106l-14 37l120 72l75 282q40 33 77 58.5t75 43.5l12 41q161 138 307 150q5 0 10.5 1t10.5 1q33 0 63 -12t61 -34q25 -17 47 -25t44 -8h6q57 5 130 46.5t167 119.5 l-88 -331q-39 -31 -77 -55t-74 -39l-12 -48q-8 -8 -16 -13.5t-16 -12.5l295 -110q-48 -146 -94.5 -299.5t-84.5 -293.5q-53 -195 -96 -398.5t-85 -418.5l-140 -24l-22 -120l-374 -59l-138 353q-15 -60 -29 -121.5t-27 -119.5l-132 -12q-8 -32 -16 -65.5t-16 -65.5zM321 -101 l317 28q62 268 127 506q15 60 47 176l251 -645l302 50q72 389 174 776q76 277 171 565l-273 106q-92 -224 -164 -490q-44 -164 -77 -326l-259 807l-336 -199l44 -110q-73 -249 -142 -500q-99 -373 -182 -744zM884 1534q131 110 270 121q56 4 116.5 -39.5t110.5 -38.5 q124 10 244 107l54 210q-114 -95 -239 -105q-58 -6 -118.5 38t-123.5 37q-131 -11 -258 -120zM983 1468l142 -446q27 88 61 175.5t70 178.5l94 -36q9 28 19 55l20 54q-46 -26 -91.5 -40t-90.5 -18h-14q-29 0 -59 10t-61 33q-24 15 -45.5 24.5t-39.5 9.5h-5z" />
<glyph unicode="&#xd2;" horiz-adv-x="1495" d="M160 232q0 64 9.5 132t30.5 143q41 157 116 293.5t184 262.5q45 53 93.5 98t99.5 80q40 42 80.5 78t83.5 65l-231 10l74 277l114 -38l48 181l476 -157l-68 -135q166 0 269.5 -81.5t150.5 -247.5l-105 -80q40 -92 40 -202q0 -98 -31 -210q-38 -148 -115 -279t-190 -248v2 q-39 -38 -76.5 -72t-77.5 -63l-4 -4l-5 -5v2q-248 -258 -532 -281q-13 -2 -26 -2h-25q-248 0 -340 234q-43 111 -43 247zM404 654q-78 -290 4 -499q95 -239 362 -216q261 23 493 261q215 220 288 498q67 247 -22 418l108 82q-82 309 -439 278q-273 -25 -507 -292 q-206 -235 -287 -530zM678 379q-26 116 20 286.5t142 302.5q121 167 271 179q196 17 242 -140l-114 -89q55 -101 14 -252q-40 -147 -142 -268q-119 -144 -253 -156q-148 -12 -180 137zM712 483q0 -42 8 -80q13 -60 44.5 -88t85.5 -28h19q35 1 75 20q35 48 61.5 101t42.5 113 q6 24 10 48t4 49q0 83 -41 159l114 92q-39 94 -166 94h-16t-16 -2q-18 -2 -35.5 -6t-34.5 -13q-85 -118 -128 -273q-13 -53 -20 -98.5t-7 -87.5zM841 1580l408 -17l33 63l-395 128zM1154 1521l20 -7q20 5 36 5h2z" />
<glyph unicode="&#xd3;" horiz-adv-x="1490" d="M142 230q0 65 9.5 132.5t29.5 142.5q42 157 116.5 293.5t183.5 263.5q45 53 94 97.5t99 79.5q69 72 138.5 125t144.5 88l2 43l162 70v73l584 250l-73 -277l-132 -29l-31 -111q148 -77 202 -280l-104 -80q19 -45 29 -95.5t10 -105.5q0 -99 -31 -210q-38 -149 -115 -279.5 t-190 -248.5v2q-38 -38 -76 -71.5t-78 -63.5q-2 -1 -4 -3.5t-4 -4.5v1q-250 -259 -533 -281q-13 -2 -26 -2h-25q-248 0 -340 234q-22 57 -32 119t-10 128zM386 652q-79 -288 3 -498q96 -239 362 -217q261 24 493 261q215 220 289 498q66 248 -23 418l108 82 q-82 309 -439 279q-273 -24 -507 -292q-206 -236 -286 -531zM659 377q-26 116 20 287t142 302q121 167 271 179q197 17 243 -140l-115 -89q55 -100 14 -252q-39 -147 -142 -268q-119 -143 -252 -155q-149 -12 -181 136zM693 480q0 -41 8 -79q27 -116 132 -116h17 q20 2 37.5 7t37.5 13q35 48 62 101t42 113q14 50 14 97q0 83 -41 159l114 92q-19 48 -60.5 71t-104.5 23h-17q-8 0 -16 -2q-18 -2 -35.5 -6t-34.5 -13q-42 -59 -74 -127t-52 -146q-29 -107 -29 -187zM1164 1556l437 89l46 176l-481 -205z" />
<glyph unicode="&#xd4;" horiz-adv-x="1495" d="M152 230q0 65 9.5 133.5t29.5 143.5q42 155 116.5 291.5t184.5 263.5q46 53 93.5 98.5t98.5 80.5q42 44 84.5 80.5t86.5 66.5l-220 -11l184 144h-22l379 293l210 22l218 -259l-261 -27l36 -41q115 -26 190.5 -104.5t111.5 -213.5l-104 -78q39 -93 39 -202q0 -98 -31 -210 q-38 -149 -115 -279.5t-190 -247.5v2q-76 -79 -154 -135q-2 -2 -4 -5t-4 -5v1q-125 -130 -257.5 -199t-275.5 -82q-13 -2 -25 -2h-24q-249 0 -341 236q-22 55 -32.5 117t-10.5 128zM396 654q-79 -290 3 -499q96 -240 362 -216q261 22 493 259q215 222 289 498 q66 248 -22 418l107 84q-82 307 -438 277q-274 -24 -507 -291q-207 -237 -287 -530zM669 379q-26 116 20 287q47 169 142 302q121 165 272 179q196 17 242 -140l-114 -89q54 -102 13 -252q-39 -147 -141 -270q-120 -142 -253 -154q-149 -13 -181 137zM703 483q0 -22 2.5 -42 t6.5 -40q26 -116 128 -116q5 0 10 1t10 1q37 1 75 18q35 49 62 102.5t42 111.5q7 26 10.5 50t3.5 49q0 81 -41 157l114 92q-19 48 -61.5 72t-105.5 24h-16q-7 0 -15 -2q-17 -3 -35 -7t-35 -12q-85 -118 -128 -273q-13 -54 -20 -99t-7 -87zM918 1568l205 11l118 78l71 -66 l198 20l-150 179l-181 -18z" />
<glyph unicode="&#xd5;" horiz-adv-x="1502" d="M155 230q0 65 9.5 133.5t30.5 143.5q41 155 116 292.5t184 263.5q45 53 93.5 97.5t99.5 80.5q71 75 145.5 129.5t152.5 90.5q-10 2 -19 3.5t-18 1.5q-60 -5 -142.5 -50t-185.5 -131l87 328q40 33 78 58t74 44l12 39q81 70 157.5 107t149.5 45h16q35 0 66.5 -10.5 t62.5 -33.5q45 -32 86 -32h12q57 4 130 46t167 117l-89 -329q-38 -32 -76.5 -55.5t-73.5 -40.5l-12 -47q-9 -7 -17.5 -13t-16.5 -11q187 -68 250 -304l-104 -80q20 -47 30 -96.5t10 -105.5q0 -48 -8 -100.5t-23 -109.5q-38 -148 -115 -279t-191 -248v2q-38 -40 -75.5 -73 t-77.5 -62q-3 -2 -4.5 -5t-4.5 -5v1q-249 -257 -532 -279q-13 -2 -26 -2h-25q-249 0 -340 234q-22 55 -32.5 117t-10.5 128zM399 654q-78 -290 4 -499q95 -240 362 -216q261 22 493 261q215 220 288 498q67 246 -22 416l108 84q-82 307 -439 277q-273 -24 -507 -291 q-206 -235 -287 -530zM672 379q-25 116 21 286.5t142 302.5q121 165 271 179q196 17 242 -140l-114 -89q55 -101 14 -252q-40 -147 -142 -270q-120 -142 -253 -154q-148 -13 -181 137zM707 483q0 -22 2 -42t6 -40q25 -114 130 -114h19q38 2 75 20q35 48 61.5 101t42.5 111 q6 26 9.5 50t3.5 49q0 86 -41 159l115 92q-40 94 -167 94h-16q-7 0 -15 -2q-35 -3 -70 -19q-85 -118 -128 -273q-13 -54 -20 -99t-7 -87zM853 1531q132 109 270 121q56 5 116.5 -38.5t110.5 -39.5q125 11 244 107l55 210q-115 -96 -239 -106q-58 -5 -118.5 38.5t-122.5 38.5 q-133 -12 -259 -121z" />
<glyph unicode="&#xd6;" horiz-adv-x="1502" d="M155 230q0 65 9.5 133.5t30.5 143.5q41 155 116 292.5t184 263.5q45 53 93.5 97.5t99.5 80.5q35 35 69 66t69 58h-7q-54 0 -85 32.5t-31 85.5q0 24 7 48q8 31 26 60.5t42 53.5t52.5 42.5t58.5 27.5q14 30 36 56.5t49 47t57.5 33t62.5 15.5h15q54 0 86 -32.5t32 -85.5v-11 t-2 -13q19 12 48 23q15 31 38 57.5t51 47t60 33t65 15.5h15q59 0 93.5 -33.5t34.5 -89.5q0 -11 -1.5 -24.5t-5.5 -26.5q-9 -34 -27 -65t-43 -57t-54.5 -45.5t-61.5 -30.5q-2 -8 -7 -15l-10 -14q99 -32 165 -107.5t99 -199.5l-104 -80q20 -47 30 -96.5t10 -105.5 q0 -48 -8 -100.5t-23 -109.5q-38 -148 -115 -279t-191 -248v2q-38 -40 -75.5 -73t-77.5 -62q-3 -2 -4.5 -5t-4.5 -5v1q-249 -257 -532 -279q-13 -2 -26 -2h-25q-249 0 -340 234q-22 55 -32.5 117t-10.5 128zM399 654q-78 -290 4 -499q95 -240 362 -216q261 22 493 261 q215 220 288 498q67 246 -22 416l108 84q-82 307 -439 277q-273 -24 -507 -291q-206 -235 -287 -530zM672 379q-25 116 21 286.5t142 302.5q121 165 271 179q196 17 242 -140l-114 -89q55 -101 14 -252q-40 -147 -142 -270q-120 -142 -253 -154q-148 -13 -181 137zM707 483 q0 -22 2 -42t6 -40q25 -114 130 -114h19q38 2 75 20q35 48 61.5 101t42.5 111q6 26 9.5 50t3.5 49q0 86 -41 159l115 92q-40 94 -167 94h-16q-7 0 -15 -2q-35 -3 -70 -19q-85 -118 -128 -273q-13 -54 -20 -99t-7 -87zM915 1676q-14 -55 13.5 -91.5t82 -31.5t104 48t63.5 99 q15 56 -13 92t-83 31q-55 -4 -102.5 -47.5t-64.5 -99.5zM1012 1471q17 7 34 13t34 13v7q0 8 1 16t3 16q-19 -12 -43 -17q-5 -13 -12.5 -24.5t-16.5 -23.5zM1294 1698q-17 -61 13.5 -101.5t88.5 -34.5q60 5 114.5 52.5t71.5 109.5q14 61 -17 100.5t-90 32.5q-58 -5 -112 -51 t-69 -108z" />
<glyph unicode="&#xd7;" horiz-adv-x="1289" d="M266 393l164 139l-2 4l82 70l-141 147l169 133l-6 8l275 220l140 -145l215 180l190 -168l-168 -138l6 -3l-77 -63l133 -163l-167 -136l5 -7l-272 -218l-134 162l-227 -193zM493 544l133 -121l231 193l133 -160l194 155l-134 166l235 196l-135 119l-218 -179l-138 143 l-197 -155l144 -147z" />
<glyph unicode="&#xd8;" horiz-adv-x="1616" d="M63 15l155 144l-2 40t-1 40q0 66 8 133.5t28 139.5q42 156 117.5 293t184.5 263q45 53 93.5 97.5t99.5 80.5q121 126 249 195.5t268 82.5q33 3 61 3q177 0 284 -92l141 132l99 -297l-199 -178q14 -41 21.5 -84.5t7.5 -92.5t-8 -100t-23 -108q-38 -149 -115 -279.5 t-191 -248.5v2q-38 -40 -76.5 -73t-76.5 -62q-4 -2 -5 -5t-4 -5v2q-125 -131 -257.5 -200t-274.5 -82q-12 -2 -23 -2h-22q-194 0 -297 145l-124 -109zM282 162l83 -162l123 108q101 -185 335 -164q261 22 493 261q215 220 288 496q63 234 -8 391l203 181l-75 220l-127 -116 q-117 123 -346 103q-273 -24 -507 -290q-206 -236 -288 -531q-50 -191 -28 -362zM730 577q7 44 19 94q48 170 144 302q121 165 271 179q97 9 160 -29zM746 336l573 511q14 -74 -13 -176q-40 -147 -142 -270q-120 -142 -254 -154q-122 -10 -164 89zM797 693l287 266 q-14 4 -31.5 6.5t-35.5 2.5h-13q-6 0 -14 -2q-18 -2 -35.5 -6.5t-34.5 -12.5q-42 -55 -71.5 -118t-51.5 -136zM799 336q33 -46 100 -46q5 0 11.5 1t11.5 1q19 2 37 6t38 14q35 48 61.5 101t42.5 111q6 26 9 49t4 43z" />
<glyph unicode="&#xd9;" horiz-adv-x="1471" d="M164 220q0 113 36 244l228 860l127 4l37 140h43l54 203l115 -38l48 181l476 -157l-72 -140l-113 4l23 -7l-72 -140l-150 5l-203 -753q-21 -77 -21 -141q0 -51 12 -94q24 -104 113 -104h17q13 1 24.5 2.5t24.5 5.5q49 78 77 178l234 875l125 5l37 139l396 13l-229 -850 q-37 -139 -109 -263t-181 -235q-37 -37 -74 -68t-73 -58q-5 -4 -8.5 -8.5t-6.5 -8.5q-235 -238 -505 -261q-13 -2 -26 -2h-25q-236 0 -330 218q-49 118 -49 251zM404 611q-71 -273 14 -471q96 -224 352 -201q247 22 466 244q203 206 273 469l216 807l-310 -10l-222 -831 q-38 -140 -118 -241q-97 -123 -223 -135q-130 -12 -164 125q-29 111 10 256l218 812l-293 -10zM831 1579l408 -16l32 63l-394 128z" />
<glyph unicode="&#xda;" horiz-adv-x="1471" d="M147 218q0 113 36 245l228 860l127 3l37 140l376 14v15l162 68v74l583 251l-73 -277l-131 -29l-24 -89l295 11l-229 -850q-73 -276 -290 -499q-37 -37 -74 -68t-73 -58q-7 -6 -15 -17q-235 -238 -505 -261q-13 -2 -26 -2h-25q-233 0 -330 219q-49 116 -49 250zM387 609 q-71 -273 14 -471q96 -223 352 -201q247 22 467 244q202 206 272 469l216 809l-310 -10l-222 -833q-38 -140 -118 -241q-97 -122 -223 -134q-130 -12 -164 124q-29 111 10 256l218 813l-293 -11zM703 483q0 -24 3 -48t9 -46q23 -104 114 -104h16q13 2 24.5 3t24.5 6 q25 39 44 83.5t33 93.5l234 877l124 4l26 92l-404 -82l-2 107l-225 -844q-21 -78 -21 -142zM1155 1555l437 90l46 176l-481 -205z" />
<glyph unicode="&#xdb;" horiz-adv-x="1476" d="M157 220q0 113 36 244l229 860l126 4l37 138l164 7l63 48h-22l379 293l210 22l218 -259l-261 -27l52 -60l385 15l-228 -851q-75 -277 -291 -499q-37 -35 -74 -66.5t-72 -57.5l-9 -9t-7 -8q-118 -121 -244 -185.5t-261 -77.5q-13 -2 -25 -2h-23q-238 0 -332 219 q-50 115 -50 252zM398 611q-72 -275 13 -473q96 -222 352 -199q247 22 466 242q203 208 273 469l217 809l-311 -10l-222 -831q-37 -140 -118 -243q-97 -122 -223 -133q-130 -12 -164 125q-29 109 10 256l219 812l-294 -10zM713 483q0 -49 12 -92q24 -106 116 -106h14 q24 3 50 10q24 40 43 83.5t33 92.5l234 877l125 4l20 75l-246 -26l-61 56l-97 -64l-17 -2l-205 -765q-21 -77 -21 -143zM911 1568l205 11l118 78l72 -68l198 20l-151 181l-181 -18z" />
<glyph unicode="&#xdc;" horiz-adv-x="1481" d="M160 220q0 113 36 244l229 860l126 4l38 138l106 5q0 13 2 28l4 30q9 32 26.5 61.5t41.5 54t53 43t59 27.5q14 30 36 56.5t49 46.5t57.5 33t61.5 16h14q55 0 87.5 -32.5t32.5 -85.5v-11t-2 -13q11 7 22.5 11.5t25.5 9.5q15 31 38 58.5t51 47.5t59.5 33t64.5 16h15 q60 0 94 -33.5t34 -90.5q0 -12 -1 -25t-5 -27q-9 -33 -27.5 -63.5t-43 -56.5t-54.5 -46t-62 -32q-4 -8 -9.5 -17t-10.5 -18l369 13l-229 -850q-38 -139 -109.5 -263t-180.5 -235q-38 -37 -74.5 -68.5t-72.5 -57.5l-9 -9t-6 -8q-235 -238 -505 -261q-14 -2 -27 -2h-25 q-235 0 -329 218q-50 117 -50 251zM401 611q-72 -273 14 -473q95 -222 351 -199q248 22 466 242q203 208 273 469l217 809l-311 -10l-221 -831q-38 -140 -118 -241q-97 -124 -224 -135q-129 -12 -164 125q-29 111 11 256l218 812l-293 -10zM717 485q0 -25 2.5 -48.5 t9.5 -45.5q23 -104 112 -104h17q14 0 25.5 2t24.5 6q24 40 43.5 83.5t33.5 92.5l234 877l124 5l26 96q-34 -32 -75 -51.5t-81 -23.5h-15q-58 0 -92 33.5t-34 89.5q0 9 0.5 18t2.5 19q-10 -5 -20.5 -9t-21.5 -8q-14 -29 -35.5 -56t-48.5 -44l-212 -791q-10 -38 -15 -73 t-5 -68zM906 1676q-13 -56 14 -92t82 -31q54 3 103.5 47t63.5 98q15 56 -13 93t-82.5 32t-102.5 -48t-65 -99zM1285 1696q-17 -61 13.5 -101t89.5 -35t113.5 53t72.5 109q13 61 -17.5 100.5t-90.5 34.5q-58 -5 -112 -52t-69 -109z" />
<glyph unicode="&#xdd;" horiz-adv-x="1456" d="M350 -251q9 45 20.5 96t23.5 101t24 98t22 87q20 70 36 127t27 99q-19 72 -35.5 179t-30.5 247q-14 137 -19 263.5t-5 236.5l164 29v59t-2 56l370 68l161 68v74l584 251l-74 -279l-131 -29l-21 -78l279 -27q-140 -184 -283.5 -392t-292.5 -441q-20 -31 -47.5 -78 t-64.5 -113l3 3q-15 -33 -29 -74.5t-27 -94.5q-12 -44 -24.5 -94t-24.5 -101t-23.5 -99.5t-21.5 -89.5l-131 -3q-11 -38 -17 -73t-14 -66zM563 -61l314 6q36 163 82 337q29 111 60 177q70 132 113 196q298 470 534 780l-299 31q-176 -193 -375 -563q-35 97 -41 266 q-2 142 -4 285l-327 -61q-2 -185 23 -448q29 -283 70 -431q-25 -84 -68 -236q-43 -159 -82 -339zM993 1255q0 -36 2 -71l2 4v-39q0 -18 1 -35q51 74 101 138t101 118l39 -5q14 18 27 34.5t26 32.5l-299 -62v-15v-27v-73zM1149 1555l436 90l47 174l-482 -204z" />
<glyph unicode="&#xde;" horiz-adv-x="1647" d="M222 -280l329 1039q-19 -5 -43.5 -11.5t-55.5 -17.5l41 371q42 8 78.5 16t70.5 13l13 112q13 3 26.5 6.5t26.5 5.5l40 123l99 -58l63 202l307 -176l-16 -43q571 -3 571 -312q0 -55 -18 -116q-12 -50 -32 -91l3 2q-61 -135 -151.5 -244.5t-211.5 -197.5 q-45 -48 -95.5 -89.5t-105.5 -79.5q-87 -57 -177.5 -97.5t-188.5 -64.5l-36 -116l-122 -12l-41 -131zM442 -90l288 25l70 229q284 37 509 188q253 167 374 438q19 36 29 79q107 401 -565 389l19 58l-236 136l-66 -211q-84 -9 -169 -31l-31 -280q53 17 109 24zM887 442 l117 364l-77 153q75 2 116 5q148 14 235 -19q121 -46 87 -175q-36 -137 -199 -232q-133 -81 -279 -96zM944 492q49 10 96.5 26t92.5 40q18 33 28 67q5 22 5 39q0 71 -75 97l-57 16z" />
<glyph unicode="&#xdf;" horiz-adv-x="1780" d="M162 -224q18 -2 48.5 -5.5t59.5 -6.5l-60 -186l341 -54l48 162l114 -19l29 97l46 6q224 18 424 136q59 36 107 76t86 86q109 72 177 161t99 199q15 57 15 108q0 145 -122 237q237 178 297 394q15 60 15 108q0 259 -440 259q-39 0 -81 -2t-87 -6q-18 -3 -44 -5t-58 -7 q-11 0 -24 -2t-24 -3q-13 -2 -27 -3.5t-26 -3.5q-31 -4 -54 -6t-41 -4q-100 -7 -231 -41l-13 -111q-34 -7 -71.5 -13.5t-79.5 -17.5l-41 -369q27 8 51 13.5t50 10.5q-89 -288 -155 -497.5t-109 -345.5q-18 0 -34 3t-33 6zM384 -41l116 266q32 -5 68 -5q91 277 299 942 q-58 -10 -111 -25l32 281q86 22 180 31q49 3 149 15t149 17q663 58 562 -317q-58 -219 -331 -399q201 -120 141 -340q-56 -208 -274 -340q-186 -111 -401 -129q-108 -9 -205 -12l-72 -227l-259 41l59 191q-53 3 -102 10zM843 225q123 -3 154 -1q95 8 193 52q126 59 148 140 q29 113 -80 163q-84 34 -207 23q-10 -1 -99 -11zM896 266l46 152q36 -2 68 -7t58 -18h-1q35 -16 50.5 -37.5t15.5 -48.5v-12q-31 -11 -63 -18t-61 -9q-11 -2 -40 -2h-73zM985 1179l138 -78l-96 -277h4q396 36 452 241q44 164 -370 126q-84 -7 -128 -12zM1085 872l48 138 q75 -5 110 -24t35 -51v-8t-1 -9v-3q-40 -16 -87 -25.5t-105 -17.5z" />
<glyph unicode="&#xe0;" horiz-adv-x="1208" d="M79 7q51 120 120 272t151 325t174 362t189 382l93 2q1 10 8 19l-322 13l73 279l116 -40l48 181l476 -157l-72 -140l-114 4l24 -5l-5 -9l240 7q-40 -272 -59.5 -588t-20.5 -680l-162 -16q-2 -17 -2 -33v-31v-33q0 -15 2 -31l-347 -30l12 172q-23 4 -46 5.5t-47 3.5 l-24 -62l-111 -8l-51 -133zM304 198l254 22l79 196q32 6 56 7q118 10 217 -8l-12 -166l256 22q1 671 75 1185l-333 -7q-387 -775 -592 -1251zM708 1568l406 -17l33 64l-393 128zM724 631q162 355 249 533q-21 -113 -31 -266q-5 -130 -12 -261q-75 8 -155 1q-22 -1 -51 -7z " />
<glyph unicode="&#xe1;" horiz-adv-x="1203" d="M34 3q51 119 120.5 271t151.5 325.5t174 362.5t189 383l92 2q9 19 18 37t18 38l2 59l162 70v74l585 249l-73 -277l-133 -29l-29 -114l-87 -17q-35 -263 -52.5 -563t-17.5 -645l-162 -14v-43v-85l-345 -31l10 173q-23 4 -46 5.5t-48 1.5l-24 -60l-111 -10l-51 -134z M259 195l255 22l78 196q33 5 57 7q117 10 216 -9l-12 -165l256 22q4 671 75 1184l-332 -6q-388 -775 -593 -1251zM679 628q162 355 249 533q-18 -113 -30 -267q-5 -131 -12 -261q-75 9 -156 2q-22 -2 -51 -7zM1004 1543l436 89l47 175l-482 -204z" />
<glyph unicode="&#xe2;" horiz-adv-x="1200" d="M51 5q51 119 120.5 271t151.5 325.5t174 362.5t189 383l92 1q3 8 7 15.5t7 15.5l-311 -14l185 142h-23l379 294l212 22l217 -258l-261 -29l34 -38h27q-3 -15 -3 -29l41 -47l-50 -7q-32 -258 -49.5 -552t-18.5 -633l-162 -13v-43v-85l-345 -31l10 172q-23 3 -46 5t-48 2 l-24 -60l-111 -10l-51 -133zM276 196l255 22l78 197q33 5 57 7q117 10 216 -9l-12 -166l256 23q4 670 75 1184l-332 -7q-388 -775 -593 -1251zM696 630q162 355 249 532q-20 -112 -30 -266q-5 -131 -12 -263q-75 10 -155 4q-23 -4 -52 -7zM765 1556l204 9l118 79l72 -67 l198 20l-150 181l-181 -20z" />
<glyph unicode="&#xe3;" horiz-adv-x="1224" d="M60 5q51 120 120.5 272t151.5 325t174 362t189 383l92 1q11 26 23.5 50.5t25.5 50.5q-12 3 -25 3h-9q-60 -5 -142.5 -49.5t-186.5 -131.5l88 328q80 69 154 104l10 40q80 69 156.5 106t151.5 44q5 0 9 0.5t9 0.5q34 0 64 -12t61 -34q49 -32 90 -32h7q57 5 130 46.5 t167 118.5l-89 -331q-38 -31 -75 -54.5t-73 -40.5l-14 -46q-15 -13 -32 -26t-33 -24q-35 -265 -53.5 -569.5t-21.5 -657.5l-162 -15v-43v-85l-346 -31l12 172q-23 5 -46.5 6t-47.5 3l-24 -62l-111 -8l-51 -133zM285 196l254 22l79 197q32 5 56 7q118 10 217 -9l-12 -166 l256 24q2 669 75 1183l-333 -7q-387 -775 -592 -1251zM705 630q162 355 249 532q-20 -112 -31 -266q-5 -130 -12 -261q-75 8 -155 2q-22 -2 -51 -7zM705 1517q133 109 270 121q56 6 116.5 -38t109.5 -38q127 10 245 107l54 210q-114 -96 -239 -107q-58 -6 -117.5 37.5 t-122.5 38.5q-134 -12 -260 -119z" />
<glyph unicode="&#xe4;" horiz-adv-x="1225" d="M67 5q51 120 120.5 272t151.5 325.5t174 362.5t188 383l93 2q8 14 14.5 30t14.5 30q-30 -23 -62.5 -37.5t-65.5 -17.5h-16q-53 0 -84.5 31.5t-31.5 82.5q0 24 7 48q8 32 25.5 61.5t41.5 54t52.5 43t59.5 27.5q14 30 36 56.5t49 47t57 33t61 15.5h14q55 0 87 -32.5 t32 -85.5v-11t-1 -13q11 7 22.5 12.5t25.5 10.5q16 31 39 57.5t51.5 46.5t60 33t64.5 16h15q58 0 93 -34.5t35 -91.5q0 -24 -7 -48q-10 -34 -28.5 -65t-43 -57t-54.5 -45.5t-62 -30.5q-8 -15 -15.5 -28t-18.5 -25q-72 -530 -75 -1232l-162 -14v-42v-87l-346 -29l11 172 q-23 3 -46 5t-47 2l-24 -60l-111 -10l-51 -133zM292 196l254 22l79 198l56 7q118 10 217 -8l-12 -166l256 22q1 671 75 1183l-333 -7q-387 -773 -592 -1251zM712 631q162 355 249 533q-21 -114 -31 -266q-5 -132 -12 -263q-75 8 -155 2q-22 -2 -51 -6zM775 1664 q-14 -56 12.5 -92t81 -31t104 48t63.5 99q15 56 -13 92t-81 31q-55 -5 -103.5 -48t-63.5 -99zM893 1492h47v6q0 7 1 12.5t1 13.5q-9 -6 -20 -10.5t-23 -8.5q-2 -4 -3 -7.5t-3 -5.5zM1152 1686.5q-15 -61.5 14.5 -101.5t89.5 -35t113.5 52t70.5 108q16 62 -15 101t-90.5 34 t-113.5 -51t-69 -107.5z" />
<glyph unicode="&#xe5;" horiz-adv-x="1186" d="M46 3q51 120 120.5 272t151.5 325.5t174 363t189 383.5h92q2 4 2 5q0 2 2 5q-17 6 -30.5 17t-24.5 25q-31 41 -31 98q0 17 2.5 33.5t7.5 34.5q24 101 113 178q22 19 45 34t46 25q14 22 31 43t42 41q42 38 88.5 59t95.5 26q5 0 11 1t11 1q81 0 127 -58q30 -41 30 -99 q0 -16 -1.5 -32.5t-6.5 -34.5q-14 -50 -42.5 -94.5t-73.5 -82.5q-22 -20 -45 -35.5t-46 -24.5l-4.5 -9t-5.5 -10l130 5q-38 -272 -58.5 -587t-21.5 -681l-162 -13v-43v-87l-345 -29l10 172q-23 3 -46 5t-48 2l-24 -60l-111 -10l-51 -133zM271 195l255 22l78 198q33 3 56 7 q118 10 217 -9l-12 -166l256 23q4 669 75 1182l-332 -6q-388 -774 -593 -1251zM691 630q162 355 249 532q-18 -114 -30 -268q-5 -129 -12 -261q-75 9 -156 2q-22 -2 -51 -5zM906 1712q-22 -82 18 -135t120.5 -46t152 69t93.5 146q22 82 -18.5 135t-121 46t-152 -70 t-92.5 -145zM1021 1719q8 32 38 59.5t62 28.5q33 4 50 -18.5t8 -56.5q-8 -32 -39 -59.5t-63 -28.5q-31 -4 -49 18t-7 57z" />
<glyph unicode="&#xe6;" horiz-adv-x="1645" d="M60 43q63 114 147.5 261t184.5 317t212.5 357.5t231.5 381.5l77 2l87 140q166 5 359 15.5t390 28.5q23 2 51 4.5t54.5 5.5t48.5 5.5t34 3.5l-116 -338q-26 -2 -55.5 -3t-60.5 -4l-48 -136q-27 -2 -61 -4t-70 -4t-71 -4.5t-64 -4.5h-14q-2 -5 -2.5 -9.5t-0.5 -11.5 q33 5 69.5 9t73.5 8q24 2 53.5 4t59.5 3.5t58.5 2.5t50.5 2l-89 -331h-124l-38 -143h-63q-44 0 -77 -1.5t-59 -3.5l-40 -4q-5 -13 -5 -24q42 5 83.5 10t83.5 7q27 3 60.5 5.5t67.5 4.5t66 3.5t56 2.5l-91 -336q-31 -2 -62.5 -4t-63.5 -3l-36 -137q-45 -2 -94 -4.5t-97 -5 t-93 -6t-81 -6.5q-27 -2 -68.5 -6.5t-93.5 -10.5t-111 -14t-120 -17l38 208q-22 3 -46.5 5t-50.5 2l-48 -95l-89 5l-73 -147zM288 227l236 -10l113 225q30 5 52 7q117 10 214 -9l-39 -196q245 32 353 43q145 12 322 18l67 250q-99 -4 -207 -12q-104 -11 -206 -24 q8 63 22 116q5 17 10.5 47.5t8.5 47.5q3 11 8 23q120 20 221 29q82 8 158 8l63 239q-85 -2 -179 -10q-92 -9 -184 -21q19 93 34 151q10 35 27 85q84 12 181 20q120 11 231 14l85 248q-49 -6 -142 -14q-392 -34 -722 -43q-479 -775 -727 -1232zM746 655q54 94 178 276 t177 277q-65 -220 -156 -549q-71 8 -150 1q-20 -1 -49 -5z" />
<glyph unicode="&#xe8;" horiz-adv-x="1149" d="M186 15q14 65 31 137.5t35 147t36.5 147t35.5 138.5q29 109 60 216t63 211l-97 -3l75 315q32 2 64 2t66 2l12 49l-91 4l74 278l114 -39l48 181l476 -157l-72 -140l-114 5l24 -7l-9 -14l133 12q34 3 75.5 7.5t84.5 9.5t85 9.5t78 9.5l-104 -333q-26 -2 -57 -3t-64 -4 l-41 -136q-28 -2 -63 -3.5t-72 -4t-74 -4.5t-68 -5l-20 -2q-3 -6 -3 -13q0 -6 -2 -14q35 5 72.5 9t75.5 8q25 2 55.5 4t61.5 4t60 3.5t52 1.5l-92 -336q-26 0 -59 -0.5t-66 -0.5l-38 -140q-24 0 -53.5 -0.5t-60 -2t-60 -3t-51.5 -3.5l-25 -2q0 -8 -2 -16l-4 -16q43 4 87 9 t89 10q28 2 62 4t68.5 4t66.5 4t56 3l-89 -334q-29 -2 -61 -3t-65 -3l-36 -136q-44 -2 -94 -4.5t-100.5 -5.5t-98.5 -6.5t-88 -7.5q-39 -3 -87 -8t-98.5 -11l-101 -12t-95.5 -12zM399 207q183 23 343 37q163 15 338 22l65 246q-99 -3 -210 -14q-112 -10 -215 -24 q9 62 26 122q15 59 41 124q99 17 189 26q91 7 185 7l66 245q-87 -3 -186 -11.5t-188 -20.5q14 72 33 140q15 55 30 104q86 10 190 19q123 12 232 15l77 243q-142 -19 -277 -31q-227 -19 -517 -31l-56 -227l101 3q-70 -226 -135 -469q-72 -264 -132 -525zM691 1567l406 -16 l33 62l-393 130z" />
<glyph unicode="&#xe9;" horiz-adv-x="1161" d="M159 12q14 65 31 138t35 147t36.5 147t35.5 138q29 111 60 216.5t63 211.5l-97 -3l75 314q32 2 64 2.5t65 2.5l34 138q58 3 117.5 5.5t118.5 5.5l2 6l162 70v74l585 249l-73 -277l-133 -29l-14 -51q31 4 61 7.5t59 8.5l-105 -333q-26 -2 -56.5 -3t-64.5 -2l-41 -137 q-28 -1 -63 -3t-72 -4.5t-73.5 -5.5t-67.5 -6l-21 -1q-2 -7 -2 -13t-3 -13q36 5 73.5 9t75.5 8q25 2 55.5 4t61.5 3.5t60 2.5t51 2l-90 -334q-26 -2 -60 -2h-66l-38 -142q-24 0 -53.5 -0.5t-60 -1t-60 -2t-51.5 -3.5l-26 -1q0 -9 -1 -17.5t-4 -16.5q42 5 86.5 9.5t89.5 8.5 q28 3 62 5.5t68 4.5t66 3.5t56 2.5l-88 -333q-30 -2 -61.5 -3.5t-65.5 -3.5l-35 -136q-44 -2 -94 -4.5t-100.5 -5.5t-98.5 -6.5t-88 -6.5q-40 -4 -88 -9t-98.5 -11t-100.5 -12t-95 -12zM372 203q183 26 343 39q162 14 338 21l65 246q-99 -4 -210 -14q-113 -9 -215 -24 q8 63 26 123q15 60 40 123q99 19 190 25q90 9 184 9l67 244q-87 -2 -186 -10.5t-188 -21.5q14 71 32 140q16 54 31 104q86 10 190 20q122 10 232 15l77 241q-142 -17 -277 -29q-227 -20 -517 -32l-56 -227l100 3q-70 -227 -135 -469q-71 -263 -131 -526zM1004 1543l436 89 l47 175l-482 -204z" />
<glyph unicode="&#xea;" horiz-adv-x="1154" d="M172 14q14 65 31 137.5t35.5 146.5t37 147t35.5 139q29 109 59.5 215.5t62.5 210.5l-97 -3l75 316q32 1 64.5 1.5t65.5 3.5l9 39l-72 -3l90 70l7 32h12h22l55 41h-24l379 294l212 22l216 -260l-261 -27l27 -31q61 5 126.5 13t119.5 16l-104 -333q-26 -1 -57 -2t-64 -3 l-41 -138q-28 -1 -63 -3t-72 -4t-74 -4.5t-68 -5.5l-20 -2q-2 -6 -2.5 -12.5t-2.5 -12.5q36 4 73 8.5t75 6.5q25 3 56 5l62 4t60 3t51 2l-92 -335q-26 -1 -59 -1q-32 0 -66 -2l-37 -140q-24 0 -53.5 -0.5t-60.5 -1t-60.5 -2t-51.5 -3.5l-25 -3q0 -16 -5 -33q42 5 86.5 10 t89.5 9q28 3 62 5.5t68 4.5t66 3.5t56 1.5l-89 -332q-29 -2 -61 -4t-65 -3l-36 -137q-44 -2 -94 -4.5t-100 -5.5t-98 -6.5t-88 -7.5q-40 -3 -88 -8t-98.5 -10.5t-101 -11.5t-95.5 -12zM386 205q182 24 343 39q162 14 338 21l65 245q-99 -3 -210 -13q-113 -11 -215 -24 q8 63 25 123q16 59 41 123q99 17 190 25q90 7 184 7l66 246q-87 -2 -186 -10.5t-187 -22.5q13 72 32 140q15 55 31 104q85 11 189 19q123 12 232 15l77 243q-141 -17 -276 -29q-227 -21 -517 -33l-57 -227l101 4q-70 -227 -135 -470q-72 -262 -131 -525zM761 1555l205 10 l118 79l71 -67l198 20l-150 180l-181 -19z" />
<glyph unicode="&#xeb;" horiz-adv-x="1166" d="M179 14q14 65 31 138t35 147t36.5 147t35.5 139q30 109 60.5 215t62.5 212l-97 -3l75 314q32 2 64 2.5t66 2.5l20 77q-18 25 -18 63q0 22 8 49q8 31 25.5 60.5t41.5 54t52.5 42.5t59.5 28q14 30 36 56.5t49 47t57 33t61 14.5h16q54 0 85.5 -31.5t31.5 -82.5v-13 q0 -6 -1 -13q11 5 22.5 10.5t25.5 10.5q16 31 39 58t51.5 47.5t60 33t64.5 15.5q5 0 9.5 0.5t8.5 0.5q57 0 91 -34.5t34 -91.5q0 -25 -7 -50q-9 -33 -27.5 -63.5t-43 -56.5t-54 -46t-61.5 -31v-1t-2 -3q48 5 94.5 11t88.5 11l-104 -333q-26 -1 -57 -2t-64 -3l-41 -136 q-28 -2 -63 -3.5t-72 -4t-74 -5.5t-68 -6l-20 -2q-3 -6 -3 -13q0 -6 -2 -12q35 5 72.5 9t75.5 8q25 2 56 4t62 3.5t60 2.5t51 2l-92 -335q-26 -1 -59 -1h-66l-37 -142q-24 0 -54 -0.5t-60.5 -1t-60 -2t-51.5 -3.5l-25 -2q0 -8 -2 -17t-3 -17q42 5 86 10t89 9q28 3 62 5.5 t68.5 4.5t66.5 3.5t56 1.5l-89 -332q-29 -2 -61 -3.5t-65 -3.5l-36 -137q-44 -2 -94 -4.5t-100.5 -5t-98.5 -6t-88 -6.5q-39 -4 -87 -9t-98.5 -11l-101 -12t-95.5 -12zM393 207q182 23 343 37q162 14 337 21l65 245q-99 -3 -210 -13q-112 -9 -215 -23q9 62 26 122 q15 59 41 123q99 18 189 25q91 9 185 9l66 245q-87 -3 -186 -11.5t-187 -22.5q13 72 32 140q15 55 31 104q85 12 189 21q123 10 232 15l77 241q-142 -17 -276 -29q-227 -21 -518 -31l-56 -229l101 4q-70 -227 -135 -470q-72 -262 -131 -523zM763 1664q-14 -56 12.5 -93 t81 -31.5t104 48t63.5 98.5q15 57 -12 92.5t-82 32.5q-54 -5 -103 -48t-64 -99zM874 1480q13 1 26.5 2t26.5 1q1 11 1 20t2 19q-9 -6 -20 -10t-23 -7q-2 -8 -5.5 -14t-7.5 -11zM1142 1684q-17 -61 12.5 -101t89.5 -35t113.5 53t70.5 109q16 62 -15 101t-90.5 34t-113.5 -52 t-67 -109z" />
<glyph unicode="&#xec;" horiz-adv-x="775" d="M169 15q16 80 34 165t37 170t38.5 166.5t38.5 154.5q21 76 46 160t52 170.5t54.5 171t54.5 162.5l114 1q4 8 6 15.5t5 15.5l-216 10l74 278l114 -39l48 181l476 -157l-72 -140l-114 4l24 -6l-8 -17h46q-29 -86 -57.5 -175.5t-55 -177.5t-50.5 -171t-44 -157 q-19 -70 -38.5 -147.5t-37.5 -157t-35 -157.5t-32 -150l-137 -12q-5 -35 -12 -67.5t-13 -64.5zM381 205l256 22q58 288 134 570q79 295 193 640l-252 -3q-106 -313 -188 -617q-79 -291 -143 -612zM649 1563l406 -17l32 63l-392 128z" />
<glyph unicode="&#xed;" horiz-adv-x="773" d="M159 14q16 81 34 166t37 169t39 165.5t40 154.5q21 77 45.5 161t51 169.5t53.5 170t53 161.5l-79 -15v133l164 70l-1 73l585 249l-73 -276l-133 -29l-14 -56l49 1q-29 -87 -57 -176.5t-54.5 -177t-50.5 -170.5t-44 -157q-19 -70 -38.5 -147.5t-38 -157t-35.5 -158.5 t-32 -151l-136 -12q-5 -33 -12 -66t-14 -64zM370 203l256 22q58 289 135 572q79 294 193 640l-253 -5q-105 -311 -187 -616q-79 -292 -144 -613zM519 1333l109 2q4 6 5 11.5t4 12.5zM638 1510l437 89l46 176l-481 -205z" />
<glyph unicode="&#xee;" horiz-adv-x="1009" d="M282 24q16 81 34.5 166t38 170t39 166.5t38.5 154.5q20 76 45 160t52 170t55 171t54 163h115q5 15 9 30.5t9 30.5l-49 -34l-328 -15l185 143h-23l379 294l210 22l219 -260l-263 -27l99 -116l-94 -8q-51 -156 -97 -310t-81 -284q-19 -71 -38.5 -148.5t-37.5 -157 t-35 -157.5t-32 -150l-136 -12q-7 -35 -14 -67.5t-12 -63.5zM495 215l256 22q58 287 135 570q78 296 191 640l-251 -5q-106 -310 -188 -616q-78 -290 -143 -611zM676 1548l205 8l119 81l70 -69l200 21l-152 181l-179 -19z" />
<glyph unicode="&#xef;" horiz-adv-x="985" d="M268 24q16 80 34.5 165t38 169.5t39 166t38.5 154.5q21 76 46 160.5t51.5 170.5t54.5 171t55 162l114 2q13 36 24.5 71t23.5 69h34q2 6 2.5 13.5t2.5 15.5q-11 -7 -22 -11l-22 -8q-15 -30 -37.5 -56t-49 -46t-56.5 -32.5t-60 -15.5h-16q-54 0 -86 31.5t-32 82.5 q0 24 7 48q8 32 25.5 61.5t41.5 54t53 42.5t59 28q14 30 36.5 56.5t49.5 47t57.5 33t61.5 15.5h14q54 0 86 -31.5t32 -84.5v-13t-2 -13q11 7 22.5 12t25.5 10q16 31 39 57.5t51.5 47t60 33.5t64.5 16h15q60 0 94 -33.5t34 -89.5q0 -11 -1.5 -24.5t-5.5 -26.5 q-9 -34 -27.5 -65t-43 -57t-54.5 -45.5t-61 -30.5q-15 -31 -38 -56.5t-49 -45.5q-26 -78 -50 -156.5t-46.5 -154.5t-43 -148.5t-37.5 -136.5q-19 -70 -38.5 -147.5t-38 -157t-35.5 -158t-32 -150.5l-136 -12q-7 -35 -13 -67t-13 -64zM481 213l256 23q58 288 135 570 q79 295 193 641l-253 -5q-105 -310 -187 -616q-79 -292 -144 -613zM657 1654q-14 -57 13.5 -92.5t82.5 -30.5q53 5 102.5 47.5t62.5 99.5q17 56 -11 92t-82.5 30.5t-103.5 -48t-64 -98.5zM1036 1676q-17 -61 13 -101.5t89.5 -35t113.5 52t71 108.5q15 61 -15.5 100.5 t-90.5 34.5t-113 -51.5t-68 -107.5z" />
<glyph unicode="&#xf1;" horiz-adv-x="1285" d="M152 14q16 72 35 151.5t39 162t41 165t42 159.5q28 102 55 198.5t54 187.5l-46 116l176 104l-12 31q-3 -5 -7 -7.5t-8 -6.5l87 329q39 32 77.5 57.5t75.5 45.5l12 39q159 138 307 150q5 0 9.5 1t9.5 1q33 0 63.5 -11.5t61.5 -33.5q44 -32 85 -32h12q57 4 130 45t167 119 l-89 -330q-38 -32 -76 -56t-74 -39l-12 -48q-11 -9 -22 -16.5t-22 -15.5l208 -81q-20 -59 -40 -121.5t-38.5 -124t-35.5 -121t-31 -112.5q-43 -155 -78 -320t-67 -342l-144 -22l-20 -122l-312 -49l-87 222q-7 -26 -13 -51.5t-11 -49.5l-133 -12q-7 -35 -14 -67t-15 -64z M365 203l256 22q53 222 101 403q10 38 39 143l200 -515l244 38q56 317 138 622q56 214 135 453l-218 83q-72 -177 -130 -387q-34 -131 -62 -266l-208 647l-268 -161l34 -87q-54 -188 -112 -399q-82 -307 -149 -596zM579 1321l196 118q-42 -16 -90.5 -45t-105.5 -73z M753 1522q133 110 269 122q57 5 117.5 -38.5t109.5 -40.5q127 12 244 108l55 209q-114 -95 -239 -105q-58 -5 -117.5 38.5t-123.5 37.5q-133 -12 -259 -121zM915 1439l87 -273q17 49 36 98.5t41 102.5l93 -36q7 20 14 39.5t15 39.5q-33 -13 -63.5 -21t-62.5 -10h-12 q-28 0 -59 10.5t-62 32.5q-8 5 -14.5 9t-12.5 8z" />
<glyph unicode="&#xf2;" horiz-adv-x="1306" d="M222 439q0 53 8.5 108t23.5 115q67 250 244 451h-1q41 48 85.5 87t89.5 68q54 61 111 106l-261 12l74 276l116 -37l47 181l477 -157l-72 -137q261 -4 333 -273l-84 -63q31 -74 31 -164q0 -38 -6.5 -79.5t-17.5 -85.5q-32 -119 -94.5 -225.5t-156.5 -201.5 q-35 -36 -68.5 -65t-69.5 -55q-7 -5 -13 -12t-11 -12q-102 -103 -209.5 -159.5t-220.5 -65.5q-11 -2 -21 -2h-20q-102 0 -170 47.5t-108 144.5q-36 88 -36 198zM459 809q-61 -229 5 -398q74 -193 287 -174q208 19 394 207q171 177 232 399q53 198 -17 335l87 68 q-68 246 -351 220q-220 -19 -407 -232q-165 -188 -230 -425zM676 589q-19 92 19 228q35 137 114 243q97 133 217 143q155 14 191 -111l-91 -71q45 -81 12 -202q-32 -118 -114 -217q-94 -112 -203 -122q-118 -11 -145 109zM713 669q0 -30 6 -58q11 -44 34 -66.5t63 -22.5 q4 0 8.5 1t8.5 1q17 0 34 5q23 33 39 69t28 74q8 38 8 74q0 35 -8 67t-26 64l92 74q-19 33 -50.5 49.5t-79.5 16.5h-20q-9 -2 -16.5 -3t-16.5 -4q-26 -42 -46.5 -88.5t-33.5 -100.5q-11 -44 -17.5 -81.5t-6.5 -70.5zM737 1570l408 -15l33 63l-393 128zM1050 1512l20 -7 q8 3 16.5 3.5t19.5 1.5h2z" />
<glyph unicode="&#xf3;" horiz-adv-x="1297" d="M217 437q0 53 8.5 109t23.5 116q67 248 244 451h-1q41 48 85.5 87t89.5 68q48 53 98.5 95.5t103.5 71.5v53l162 68v74l585 251l-73 -278l-132 -26l-32 -116l-24 -7q98 -66 137 -215l-84 -63q15 -38 23 -78.5t8 -85.5q0 -38 -6.5 -79.5t-17.5 -85.5q-65 -238 -251 -429 q-35 -35 -69 -63.5t-69 -54.5q-7 -5 -13 -12t-11 -12q-204 -206 -430 -227q-11 -1 -20 -1h-20q-200 0 -279 191q-36 90 -36 198zM454 809q-61 -230 5 -399q73 -192 287 -173q208 17 394 207q171 176 232 399q53 198 -17 335l87 66q-68 246 -351 222q-221 -19 -407 -232 q-165 -188 -230 -425zM671 589q-19 92 18 228q36 137 115 241q97 135 217 145q155 14 191 -112l-91 -70q45 -81 12 -202q-32 -118 -114 -218q-94 -113 -203 -121q-118 -11 -145 109zM708 669q0 -30 5 -58q12 -45 35.5 -67t65.5 -22h14q9 2 17.5 3.5t16.5 3.5q23 33 39 69 t27 74q9 36 9 74q0 35 -8 67t-26 64l92 74q-36 66 -125 66q-6 0 -12.5 -1t-12.5 -1q-9 0 -16.5 -1.5t-16.5 -3.5q-26 -42 -46.5 -89t-33.5 -100q-11 -44 -17.5 -81.5t-6.5 -70.5zM1073 1548l437 90l46 176l-481 -205z" />
<glyph unicode="&#xf4;" horiz-adv-x="1309" d="M224 439q0 53 8.5 109t23.5 116q66 249 244 449h-2q42 48 86.5 87t89.5 68q29 32 59.5 61t60.5 53l-251 -12l184 144l-22 -2l379 294l211 22l217 -258l-261 -29l46 -51q150 -58 201 -251l-83 -63q31 -74 31 -164q0 -38 -6.5 -79.5t-17.5 -85.5q-65 -238 -251 -427 q-35 -36 -69 -65t-69 -55q-7 -5 -13 -12t-11 -12q-102 -103 -209.5 -159.5t-220.5 -65.5q-11 -2 -21 -2h-20q-200 0 -279 192q-35 90 -35 198zM461 809q-62 -229 5 -398q73 -193 287 -174q208 19 394 208q171 176 232 398q53 198 -17 335l87 68q-68 246 -352 220 q-220 -19 -406 -232q-165 -188 -230 -425zM678 589q-19 92 18 228q36 139 115 243q97 133 216 143q156 14 192 -111l-91 -71q44 -81 12 -202q-32 -118 -114 -217q-94 -112 -203 -122q-118 -11 -145 109zM715 669q0 -15 1.5 -29.5t3.5 -28.5q12 -44 35.5 -65.5t65.5 -21.5h14 q19 0 34 7q23 32 39 67.5t27 73.5q4 18 6.5 37t2.5 37q0 35 -8 67t-26 64l92 74q-37 68 -126 68q-5 0 -11.5 -1t-12.5 -1q-9 -2 -16.5 -3t-16.5 -4q-27 -42 -47 -88t-33 -99q-11 -45 -17.5 -83t-6.5 -71zM826 1562l205 8l118 79l71 -67l198 21l-150 180l-181 -20z" />
<glyph unicode="&#xf5;" horiz-adv-x="1309" d="M224 439q0 53 8.5 109t23.5 116q66 249 244 449h-2q42 48 86.5 87t89.5 68q109 121 225 179q-13 5 -25 7.5t-22 2.5q-60 -5 -142.5 -49.5t-185.5 -130.5l87 327q40 34 78 58.5t76 44.5l12 41q157 135 307 150h15q68 0 128 -45q23 -15 45 -23.5t42 -8.5h10q57 5 130 46.5 t167 117.5l-88 -330q-39 -32 -77 -55t-74 -40l-12 -48q-13 -11 -24.5 -18.5t-22.5 -15.5q66 -32 109 -91t66 -148l-83 -63q31 -74 31 -164q0 -38 -6.5 -79.5t-17.5 -85.5q-65 -238 -251 -427q-35 -36 -69 -65t-69 -55q-7 -5 -13 -12t-11 -12q-102 -103 -209.5 -159.5 t-220.5 -65.5q-11 -2 -21 -2h-20q-200 0 -279 192q-35 90 -35 198zM461 809q-62 -229 5 -398q73 -193 287 -174q208 19 394 208q171 176 232 398q53 198 -17 335l87 68q-68 246 -352 220q-220 -19 -406 -232q-165 -188 -230 -425zM678 589q-19 92 18 228q36 139 115 243 q97 133 216 143q156 14 192 -111l-91 -71q44 -81 12 -202q-32 -118 -114 -217q-94 -112 -203 -122q-118 -11 -145 109zM715 669q0 -15 1.5 -29.5t3.5 -28.5q12 -44 35.5 -65.5t65.5 -21.5h14q19 0 34 7q23 32 39 67.5t27 73.5q4 18 6.5 37t2.5 37q0 35 -8 67t-26 64l92 74 q-37 68 -126 68q-5 0 -11.5 -1t-12.5 -1q-9 -2 -16.5 -3t-16.5 -4q-27 -42 -47 -88t-33 -99q-11 -45 -17.5 -83t-6.5 -71zM756 1522q133 110 270 122q56 5 116.5 -38.5t110.5 -40.5q126 12 244 108l54 209q-114 -95 -239 -105q-58 -5 -117.5 38.5t-122.5 37.5 q-133 -12 -260 -121z" />
<glyph unicode="&#xf6;" horiz-adv-x="1312" d="M225 439q0 53 8.5 109t24.5 116q66 249 244 449h-2q42 48 86.5 87t89.5 68q48 55 97 96q-8 -3 -16 -4t-16 -1h-16q-53 0 -84.5 30.5t-31.5 83.5q0 25 7 49q8 31 25.5 60.5t41.5 54t52.5 42.5t59.5 28q14 30 36 56.5t48.5 47t57 33t61.5 15.5h16q54 0 86 -33.5t32 -84.5 v-11q0 -5 -2 -11q10 5 22 10t26 10q16 31 39 58t51 47.5t59.5 33t63.5 15.5q5 0 10 0.5t9 0.5q58 0 92 -34.5t34 -91.5q0 -25 -7 -49q-9 -34 -27.5 -65t-43.5 -57t-55 -45.5t-62 -30.5q-5 -11 -10 -21t-13 -19q136 -62 182 -242l-83 -63q30 -72 30 -162q0 -79 -24 -166 q-63 -238 -251 -428q-35 -36 -68.5 -65t-69.5 -55q-13 -10 -24 -24q-101 -103 -209 -159.5t-221 -65.5q-10 -2 -20 -2h-21q-102 0 -170 47.5t-108 144.5q-36 88 -36 198zM463 809q-62 -229 5 -398q73 -193 286 -174q209 19 395 208q170 176 232 398q53 200 -17 335l87 68 q-69 246 -352 220q-220 -19 -406 -232q-166 -188 -230 -425zM679 589q-19 92 19 228q36 139 114 243q98 133 217 143q155 14 191 -111l-90 -71q44 -81 12 -202q-33 -118 -115 -217q-93 -112 -203 -122q-117 -11 -145 109zM717 669q0 -15 1.5 -29.5t3.5 -28.5 q11 -44 35 -65.5t66 -21.5h13q20 0 34 7q23 32 39.5 67.5t27.5 73.5q8 38 8 74q0 35 -8 67.5t-26 65.5l93 72q-37 68 -127 68q-5 0 -11 -1t-13 -1q-9 -2 -16 -3t-16 -4q-27 -42 -47 -88t-33 -99q-24 -90 -24 -154zM821 1669q-15 -56 12 -93t81.5 -31.5t104 48t63.5 98.5 q15 57 -13 92.5t-81 30.5q-54 -3 -103 -46t-64 -99zM910 1454q18 9 37.5 16t37.5 15q0 19 3 42q-9 -6 -20 -10t-23 -7q-8 -15 -16.5 -30t-18.5 -26zM1198 1690q-17 -62 13.5 -102t90.5 -35q58 5 112.5 53t72.5 109q15 62 -16 101t-90.5 34t-113.5 -52t-69 -108z" />
<glyph unicode="&#xf7;" horiz-adv-x="1092" d="M222 398l121 327q24 4 52.5 8t61.5 8l48 128h14q0 6 1.5 13t3.5 14q8 31 26 59.5t42 52.5t52.5 42.5t58.5 29.5q15 31 39 58.5t53.5 48.5t62 34t64.5 16h15q57 0 91.5 -32.5t34.5 -86.5q0 -11 -1 -23t-6 -25q-13 -48 -45.5 -89t-76.5 -68q28 2 60 4t63.5 4t61 3.5 t52.5 2.5l-99 -314l-121 -11l-36 -114q0 -6 -1 -13.5t-3 -13.5q-9 -33 -27 -62.5t-42 -54t-52.5 -43t-59.5 -28.5q-15 -30 -37.5 -56.5t-50.5 -47t-59 -33t-62 -15.5h-16q-55 0 -88 31.5t-33 84.5q0 26 7 50q11 40 36.5 76.5t60.5 64.5q-75 -8 -143 -16t-123 -14zM445 591 q256 32 598 63l73 227q-102 -4 -217 -14l-153 -14q-115 -10 -214 -24zM595.5 432q-15.5 -58 13.5 -94t85.5 -31t107.5 48t67 101q15 58 -14 94.5t-85 33.5q-57 -5 -108 -49.5t-66.5 -102.5zM729 1043q-16 -58 16 -95t90 -31.5t110.5 49t68.5 101.5q15 58 -15.5 94.5 t-88.5 31.5t-112 -49.5t-69 -100.5z" />
<glyph unicode="&#xf8;" horiz-adv-x="1362" d="M131 268l127 116q-3 18 -3.5 35t-0.5 35q0 51 7.5 103.5t21.5 108.5q34 126 95 237t149 211h-1q41 48 85.5 87.5t89.5 69.5q100 111 208.5 170.5t225.5 70.5q14 2 27 2h26q69 0 125 -17t98 -53l116 107l84 -251l-159 -141q11 -31 17 -65t6 -72q0 -79 -26 -172 q-64 -236 -251 -428q-35 -35 -68.5 -64.5t-69.5 -53.5l-24 -24q-102 -104 -209.5 -160t-220.5 -67q-11 -2 -20 -2h-19q-157 0 -238 111l-97 -87zM350 415l65 -130l97 85q82 -146 268 -131q208 19 394 208q171 176 232 400q50 189 -7 312l163 145l-60 176l-101 -92 q-94 97 -278 81q-218 -20 -406 -233q-164 -186 -229 -424q-41 -153 -24 -290zM708 746q5 41 16 75q35 136 114 241q97 133 217 145q78 6 126 -24zM717 553l461 410q10 -58 -11 -142q-32 -118 -116 -217q-94 -112 -201 -121q-99 -10 -133 70zM773 556q25 -30 74 -30h15 q18 1 36 6q23 35 38 70.5t27 73.5q4 15 6 29t4 27zM777 865l163 150q-10 2 -21.5 3t-22.5 1h-17q-9 0 -16.5 -2t-15.5 -3q-23 -35 -39.5 -71t-30.5 -78z" />
<glyph unicode="&#xf9;" horiz-adv-x="1246" d="M217 430q0 91 29 198l186 696l126 4l15 53l-66 3l73 277l116 -38l48 181l476 -157l-71 -140l-115 3l24 -6l-72 -140l-102 3l-155 -580q-8 -31 -12.5 -59t-4.5 -54q0 -39 10 -72q18 -80 85 -80h12l10 2q14 23 25 51t22 60l206 710l121 3l41 140l318 10l-185 -689 q-29 -111 -88.5 -212.5t-148.5 -192.5q-66 -66 -133 -110q-8 -8 -16 -16.5t-15 -16.5q-191 -191 -408 -212q-10 -1 -20 -1h-21q-191 0 -271 179h2q-21 46 -31 97t-10 106zM451 775q-57 -220 12 -379q75 -178 279 -160q198 18 374 194q162 167 219 376l174 646l-236 -6 l-193 -666q-36 -114 -95 -193q-77 -101 -177.5 -109.5t-129.5 101.5q-23 88 10 204l174 651l-236 -9zM722 1568l408 -15l32 63l-392 128z" />
<glyph unicode="&#xfa;" horiz-adv-x="1244" d="M193 425q0 48 6.5 97.5t22.5 103.5l184 697l126 3l38 138l263 11v10l162 68v73l585 251l-73 -278l-133 -27l-21 -82l183 7l-184 -690q-30 -111 -89.5 -212.5t-148.5 -191.5q-33 -35 -66 -62t-67 -49q-8 -9 -16 -17t-14 -16q-192 -193 -408 -211q-11 -2 -21 -2h-20 q-98 0 -165 44.5t-107 133.5h2q-20 46 -29.5 96t-9.5 105zM427 771q-58 -218 10 -377q75 -177 280 -160q198 17 374 194q162 166 218 376l174 647l-235 -7l-193 -666q-36 -114 -96 -194q-77 -99 -177.5 -107.5t-129.5 100.5q-22 89 10 205l174 650l-235 -9zM686 671 q0 -39 10 -70q18 -80 86 -80h12h10q13 24 24 52t22 60l206 710l122 4l23 81l-344 -73l-152 -570q-9 -31 -14 -59t-5 -55zM1038 1545l437 90l46 176l-482 -205z" />
<glyph unicode="&#xfb;" horiz-adv-x="1249" d="M207 427q0 48 6.5 96.5t22.5 102.5l184 697l126 5l12 42l-44 -3l54 43l16 56l59 2l55 42h-22l379 294l211 22l217 -259l-261 -28l46 -51l282 9l-185 -688q-58 -223 -237 -405q-33 -35 -66.5 -62t-66.5 -50l-31 -31q-191 -194 -408 -213q-9 -2 -19 -2h-18 q-100 0 -167.5 44.5t-107.5 134.5h2q-21 47 -30 97.5t-9 104.5zM439 773q-57 -218 12 -377q75 -179 279 -160q198 17 374 192q162 168 219 376l174 648l-236 -6l-193 -668q-35 -114 -95 -193q-77 -99 -178 -107q-100 -10 -129 99q-23 89 10 205l174 652l-236 -9zM700 672 q0 -37 10 -70q21 -81 89 -81h8l10 1q14 25 25 52.5t22 58.5l206 712l121 3l21 65l-212 -22l-61 56l-55 -37l-167 -625q-8 -31 -12.5 -59t-4.5 -54zM797 1558l205 10l118 79l71 -68l198 22l-150 179l-181 -19z" />
<glyph unicode="&#xfc;" horiz-adv-x="1260" d="M212 428q0 47 7.5 96.5t21.5 103.5l186 696l126 4l32 123q0 5 -0.5 9t-0.5 9q0 22 8 52q8 31 25.5 60t41.5 53.5t52.5 42.5t59.5 28q14 30 36 56.5t49 47t57.5 33t61.5 15.5h13q56 0 88 -32.5t32 -85.5v-11t-2 -13q21 13 48 22q16 31 39 58t51 47.5t59.5 33t63.5 15.5h15 q60 0 95 -34.5t35 -91.5q0 -24 -7 -48q-9 -34 -27.5 -65t-43.5 -57t-54.5 -45.5t-61.5 -30.5q-3 -9 -8 -16t-10 -13l256 8l-184 -689q-29 -111 -88.5 -212.5t-148.5 -192.5q-66 -66 -133 -110q-8 -9 -16 -17t-15 -16q-191 -194 -408 -212q-10 -1 -20 -1h-21q-191 0 -271 177 h2q-41 91 -41 203zM445 775q-56 -220 12 -379q75 -178 280 -160q198 17 374 194q162 166 218 376l175 646l-236 -6l-193 -666q-36 -114 -95 -195q-77 -99 -178 -107.5t-130 101.5q-22 88 11 204l174 651l-236 -9zM707 674q0 -39 10 -72q18 -80 85 -80h12h10q13 25 24.5 53 t21.5 60l207 710l121 3l17 57q-55 -36 -112 -41h-16q-58 0 -92 33.5t-34 90.5q0 9 0.5 18t2.5 20q-9 -7 -20 -11l-22 -8q-5 -8 -8.5 -14.5t-8.5 -12.5h3l-184 -693q-17 -63 -17 -113zM797 1666q-14 -55 12.5 -91.5t81 -31.5t104 47.5t63.5 99.5q15 56 -13 92t-81 30 q-54 -5 -103 -47.5t-64 -98.5zM1174.5 1687.5q-15.5 -61.5 14.5 -101.5t89.5 -35t113.5 52t71 109q15 61 -15.5 100.5t-90.5 34t-113.5 -51.5t-69 -107.5z" />
<glyph unicode="&#xfd;" horiz-adv-x="1172" d="M316 29q8 38 18 80.5t19.5 84.5t19.5 81.5t18 70.5q13 47 25.5 90t25.5 83q-13 49 -24.5 137t-24.5 220q-11 100 -15 192t-4 174v45l164 29v114l256 48l1 3l162 69v75l586 249l-74 -277l-133 -29l-20 -80l176 -20q-222 -295 -468 -676q-17 -25 -39.5 -63t-49.5 -89l4 5 q-9 -22 -21 -56t-24 -79q-10 -38 -21 -82.5t-21.5 -88.5t-20 -85.5t-15.5 -74.5l-132 -3q-10 -38 -17.5 -74.5t-12.5 -65.5zM531 218l251 4q29 131 70 285q25 95 46 142q59 107 92 157q247 385 427 624l-239 24q-132 -145 -304 -468q-29 81 -33 222v236l-261 -48 q-3 -135 17 -358q26 -267 53 -364q-27 -82 -53 -181q-34 -124 -66 -275zM884 1224q2 -5 1.5 -11.5t1.5 -11.5q32 45 62.5 84t62.5 75l43 -5q11 14 21.5 28t19.5 27l-210 -45v-25q0 -30 -1 -58.5t-1 -57.5zM1000 1543l437 89l46 175l-481 -204z" />
<glyph unicode="&#xfe;" horiz-adv-x="1420" d="M278 24q13 40 31 92.5t37.5 112.5t40.5 124.5t41 126.5l2 -2q25 80 54 167.5t62 187.5q-19 -5 -40 -10.5t-47 -13.5l36 314q42 11 80 18t70 11l14 113q8 2 14.5 4t14.5 4q8 31 16 57.5t13 46.5l100 -58q9 26 18 54t17 55t15 50.5t12 40.5l263 -150l-21 -55 q446 -5 446 -254q0 -22 -3 -46.5t-11 -50.5q-11 -44 -24 -72q-53 -115 -128.5 -206t-181.5 -164q-39 -43 -83.5 -81t-96.5 -71q-121 -83 -266 -127l-14 -47l-121 -11l-41 -131zM498 215l232 21l53 160q224 27 407 150q201 135 300 350q10 27 20 63q86 318 -443 311l24 71 l-190 108q-27 -90 -60 -191q-71 -7 -143 -26l-26 -223q47 13 93 18q-178 -541 -267 -812zM850 618l104 317l-65 98q53 0 86 3q308 27 259 -155q-31 -111 -159 -188q-107 -63 -225 -75zM910 669q28 5 54 14t53 22q8 16 12 29q3 8 3.5 15t0.5 14q0 56 -67 77z" />
<glyph unicode="&#xff;" horiz-adv-x="1184" d="M333 31q8 37 18 79.5t19.5 85t19.5 82t18 70.5q13 47 25.5 90t23.5 83q-11 48 -22.5 136.5t-24.5 219.5q-11 100 -15 191t-4 174v47l164 29v97q-11 24 -11 53q0 25 7 49q8 31 25.5 60.5t41.5 54t53 42.5t59 28q14 30 36 56.5t49 46.5t57.5 33t61.5 15h13q54 0 87 -31.5 t33 -84.5v-13q0 -6 -2 -12q11 6 22.5 11.5t25.5 10.5q16 31 39 58t51.5 47.5t60 33t64.5 15.5h15q58 0 93 -35t35 -92q0 -23 -7 -48q-9 -34 -27.5 -65t-43.5 -56.5t-54.5 -45t-61.5 -30.5q-2 -7 -4.5 -11.5t-6.5 -9.5l243 -26q-112 -149 -228.5 -317t-239.5 -358 q-17 -25 -39.5 -63t-49.5 -89l4 5q-9 -22 -21 -56t-24 -79q-10 -38 -21 -82.5t-21.5 -88.5t-20 -85.5t-15.5 -74.5l-133 -4q-18 -79 -29 -139zM548 218l251 6q29 131 70 283q25 97 46 143q60 106 92 157q247 386 427 623l-239 26q-132 -145 -304 -468q-29 79 -33 222v236 l-261 -48q-3 -135 17 -359q26 -268 53 -363q-27 -82 -53 -183q-34 -124 -66 -275zM756 1662q-14 -56 12.5 -92t81.5 -30.5t104.5 48t62.5 98.5q16 57 -11.5 92.5t-82 30.5t-103.5 -47.5t-64 -99.5zM874 1490l31 5q0 -15 -0.5 -35t-0.5 -42q0 -21 -0.5 -41.5t-0.5 -35.5 q0 -29 -1 -57.5t-1 -58.5q2 -5 1.5 -11t2.5 -11q32 45 62 84t62 75q-51 5 -80 39t-29 86q0 8 1 17l2 18q-9 -6 -20 -10l-22 -8q-3 -5 -4 -7.5t-3 -6.5zM1036 1360l37 -3q4 4 4 5l-15 -2h-19h-7zM1135 1684q-17 -61 13 -101t89.5 -35t113.5 52t71 108q15 62 -15.5 101 t-90.5 34t-113.5 -51t-67.5 -108z" />
<glyph unicode="&#x152;" horiz-adv-x="2703" d="M317 247q0 65 9.5 132.5t30.5 141.5q84 309 300 556q47 53 95.5 97.5t99.5 79.5q121 128 249 197.5t268 81.5q17 1 33 2t32 1q160 0 261 -77l29 108q90 3 182 7.5t180.5 9.5t170.5 11.5t151 12.5q41 3 90.5 7.5t101.5 10t104.5 12t99.5 12.5l-121 -392q-27 -2 -58 -3 t-63 -2l-41 -139q-37 -1 -79.5 -3t-86 -4.5t-85.5 -6t-77 -6.5l-75 -5q-5 -23 -10.5 -45.5t-10.5 -45.5q49 8 98 13t97 10q30 2 65.5 4.5t72.5 4t72.5 3t64.5 1.5l-106 -394h-63t-62 -2l-37 -141q-76 0 -145 -2t-128 -7q-18 -2 -37 -4t-37 -4q-8 -23 -12 -46.5t-8 -49.5 q57 8 114 14.5t115 11.5q33 2 72.5 5t80.5 6t80 5t72 2l-106 -394q-29 -2 -61.5 -2.5t-64.5 -2.5l-38 -138q-53 -2 -112 -5t-119.5 -7t-120 -8.5t-112.5 -8.5q-53 -5 -112.5 -11t-120.5 -12.5t-120.5 -14.5t-113.5 -15q11 62 27.5 132t31.5 139q-2 -2 -6.5 -5.5t-8.5 -6.5 q-2 -1 -6 -3.5t-8 -6.5q-35 -36 -71 -69t-77 -64q-97 -69 -195.5 -109.5t-198.5 -49.5q-13 -2 -25 -2h-25q-249 0 -341 234q-23 57 -34 119t-11 130zM561 667q-76 -288 6 -498q95 -239 360 -217q187 17 367 149q163 123 283 312q-50 -201 -97 -411q216 29 428 47 q210 18 422 26l82 307q-130 -5 -263 -15q-133 -12 -268 -31q10 75 30.5 152t52.5 155q120 21 234 31q118 10 232 10l84 308q-116 -4 -234 -14q-116 -10 -234 -27q17 93 45 186q17 66 34 117q123 17 242 28q140 12 289 17l92 302q-188 -24 -350 -38q-280 -24 -644 -39 l-37 -154q-118 140 -360 120q-273 -24 -507 -292q-208 -235 -289 -531zM836 394q-25 116 19 285q48 171 143 302q122 168 272 180q196 18 240 -140l-114 -89q56 -101 14 -251q-38 -149 -140 -270q-120 -143 -255 -155q-148 -12 -179 138zM870 497q0 -22 2.5 -42.5t6.5 -38.5 q26 -116 131 -116h17q37 3 76 21q35 49 60.5 102t41.5 111q6 25 10 49t4 48q0 85 -41 159l116 92q-21 48 -63.5 71t-104.5 23h-15t-15 -1q-18 -2 -36 -6t-36 -13q-42 -60 -73 -127.5t-53 -145.5q-13 -53 -20.5 -99t-7.5 -87zM1688 1130l107 82q-3 17 -10 32h26 q-39 -128 -77 -252q-10 70 -46 138z" />
<glyph unicode="&#x153;" horiz-adv-x="2299" d="M365 452q0 106 31 224q70 250 246 449h-2q42 48 85.5 87t88.5 68q200 223 435 242q14 2 28.5 3t28.5 1q118 0 199 -55l19 77q72 3 147.5 6.5t147.5 8t138.5 9.5t122.5 10q35 3 77.5 7.5t86 9.5t86 9.5t78.5 9.5l-104 -335q-29 -1 -59.5 -2t-61.5 -3l-43 -136 q-36 -2 -74.5 -3.5t-74.5 -3.5t-67 -4.5t-52 -4.5l-25 -1q-3 -7 -4 -14t-3 -15q36 5 73 9t75 8q24 2 54.5 4t61.5 4t60 3.5t51 1.5l-90 -336q-26 0 -58.5 -1t-66.5 -1l-37 -139q-24 -1 -53.5 -1.5t-60.5 -1.5t-60.5 -2.5t-51.5 -3.5l-24 -2q-2 -9 -3.5 -17t-2.5 -17 q42 5 85.5 10.5t89.5 10.5q28 2 62 4t68.5 4t66.5 3.5t56 1.5l-89 -333q-29 -1 -61 -2t-65 -3l-36 -136q-44 -2 -94 -4.5t-100 -5.5t-98 -6.5t-88 -7.5q-41 -3 -89 -8t-98 -11t-100.5 -12.5t-95.5 -12.5q8 46 20.5 100t25.5 109q-29 -32 -60 -59.5t-66 -50.5 q-157 -117 -322 -132q-11 -2 -21 -2h-19q-201 0 -278 192q-36 88 -36 199zM601 823q-62 -232 7 -400q73 -193 285 -174q150 14 295 120q131 97 227 251q-41 -166 -80 -332q181 24 343 38q162 15 338 22l64 246q-99 -3 -209 -14q-113 -10 -216 -24q9 50 28 121.5t39 124.5 q99 17 189 24q91 9 185 9l66 245q-87 -3 -186 -11.5t-187 -20.5q13 72 35 150q12 44 28 92q124 17 194 22q82 9 227 14l77 242q-140 -18 -282 -30q-221 -19 -512 -31l-29 -123q-95 111 -290 96q-218 -21 -406 -234q-165 -188 -230 -423zM819 601q-20 92 17 230 q38 137 115 241q99 133 218 143q155 14 191 -111l-90 -71q42 -81 10 -202q-32 -118 -114 -215q-94 -114 -202 -124q-119 -11 -145 109zM857 683q0 -16 1 -31t4 -29q21 -87 101 -87h13q9 2 17.5 3t16.5 4q45 65 65 141q5 20 7.5 39t2.5 36q0 35 -8.5 67.5t-25.5 64.5l91 72 q-34 68 -125 68q-5 0 -11 -1t-13 -1q-9 -2 -16 -3t-16 -4q-54 -84 -82 -187q-22 -85 -22 -152zM1504 1190l85 68q-4 12 -7 25h19q-33 -100 -62 -204q-10 58 -35 111z" />
<glyph unicode="&#x178;" horiz-adv-x="1778" d="M509 -237q9 45 20.5 95.5t24 101t24.5 98t23 87.5q18 69 34 126.5t29 98.5q-20 74 -36.5 180.5t-30.5 246.5q-13 125 -18.5 239t-5.5 217v44l164 31v57q0 29 -1 55l102 19q-2 8 -2.5 17.5t-0.5 18.5q0 11 1 22t5 24q9 32 26.5 61.5t41.5 54t52.5 43t59.5 27.5 q14 30 36 56.5t49 46.5t57.5 33t61.5 16h14q54 0 86 -32.5t32 -83.5v-13t-2 -13q11 7 23 12.5t25 10.5q16 30 39.5 57t51.5 47t59.5 33t64.5 16h15q60 0 94 -33.5t34 -90.5q0 -12 -1 -25t-6 -27q-9 -33 -27 -63.5t-42.5 -56.5t-54.5 -45.5t-62 -30.5l-8 -17l341 -36 q-139 -184 -283 -392t-292 -441q-20 -31 -46.5 -78t-64.5 -113l4 4q-16 -34 -30 -75t-28 -94q-12 -44 -24.5 -94t-24.5 -101t-23.5 -99.5t-20.5 -89.5l-131 -2q-11 -38 -17 -73.5t-14 -66.5zM724 -48l312 7q36 162 82 336q31 113 60 178q71 131 114 196q297 469 534 780 l-299 31q-177 -193 -375 -564q-34 98 -41 267q-2 143 -3 285l-328 -62q-3 -184 24 -447q27 -283 70 -432q-27 -83 -68 -235q-43 -159 -82 -340zM1046 1688q-13 -56 14 -92t81.5 -31t103.5 47.5t64 99.5q15 56 -13 92t-82.5 31t-103 -48t-64.5 -99zM1150 1492q0 -36 1 -78.5 t3 -72.5v-141l1 1q2 -19 2 -37t2 -36q50 73 99.5 137.5t100.5 118.5l40 -3q5 5 8.5 9.5t7.5 8.5q-16 -5 -32 -8t-31 -5h-16q-57 0 -90.5 33.5t-33.5 89.5q0 9 0.5 18t2.5 19q-11 -5 -22 -9l-22 -8q-7 -17 -21 -37zM1425 1710q-17 -61 13 -102t89 -34q60 5 114 52t71 108 q15 61 -15.5 100.5t-90.5 34.5t-113 -52t-68 -107z" />
<glyph unicode="&#x2c6;" horiz-adv-x="1196" d="M471 1364l186 143h-24l379 294l212 22l216 -260l-261 -27l99 -116l-321 -32l-61 56l-97 -65zM754 1555l205 8l118 81l72 -69l198 21l-151 181l-179 -19z" />
<glyph unicode="&#x2dc;" horiz-adv-x="1307" d="M531 1277l87 327q78 66 153 103l12 41q80 69 156.5 106t151.5 44q5 0 9 1t9 1q34 0 64 -12.5t61 -34.5q23 -15 45 -23.5t42 -8.5h10q57 5 130 46.5t167 119.5l-89 -332q-38 -30 -76 -54t-74 -41l-12 -46q-148 -122 -292 -133q-4 0 -8.5 -1t-8.5 -1q-55 0 -116 44 q-47 34 -85 34h-9q-59 -5 -141.5 -49.5t-185.5 -130.5zM763 1522q133 110 270 122q56 5 116.5 -38.5t110.5 -38.5q126 10 244 107l54 210q-114 -95 -239 -107q-58 -5 -117.5 38.5t-122.5 37.5q-134 -12 -260 -119z" />
<glyph unicode="&#x2000;" horiz-adv-x="998" />
<glyph unicode="&#x2001;" horiz-adv-x="1997" />
<glyph unicode="&#x2002;" horiz-adv-x="998" />
<glyph unicode="&#x2003;" horiz-adv-x="1997" />
<glyph unicode="&#x2004;" horiz-adv-x="665" />
<glyph unicode="&#x2005;" horiz-adv-x="499" />
<glyph unicode="&#x2006;" horiz-adv-x="332" />
<glyph unicode="&#x2007;" horiz-adv-x="332" />
<glyph unicode="&#x2008;" horiz-adv-x="249" />
<glyph unicode="&#x2009;" horiz-adv-x="399" />
<glyph unicode="&#x200a;" horiz-adv-x="110" />
<glyph unicode="&#x2010;" d="M317 408l118 328l115 10l47 133q88 8 182.5 18t183.5 20.5t168.5 20.5t138.5 18l-98 -314q-32 -7 -63.5 -11.5t-62.5 -9.5l-37 -121q-165 -31 -337.5 -54t-354.5 -38zM539 599q311 27 603 80l71 227q-237 -34 -587 -68z" />
<glyph unicode="&#x2011;" d="M317 408l118 328l115 10l47 133q88 8 182.5 18t183.5 20.5t168.5 20.5t138.5 18l-98 -314q-32 -7 -63.5 -11.5t-62.5 -9.5l-37 -121q-165 -31 -337.5 -54t-354.5 -38zM539 599q311 27 603 80l71 227q-237 -34 -587 -68z" />
<glyph unicode="&#x2012;" d="M317 408l118 328l115 10l47 133q88 8 182.5 18t183.5 20.5t168.5 20.5t138.5 18l-98 -314q-32 -7 -63.5 -11.5t-62.5 -9.5l-37 -121q-165 -31 -337.5 -54t-354.5 -38zM539 599q311 27 603 80l71 227q-237 -34 -587 -68z" />
<glyph unicode="&#x2013;" horiz-adv-x="1125" d="M312 408l118 328l114 8l50 133q37 3 97.5 9.5t133 14.5t152.5 17t156 17l-99 -314q-33 -5 -64 -10.5t-62 -9.5l-38 -121q-118 -22 -227 -37.5t-206 -24.5zM534 599l75 7q193 15 395 53l71 227q-304 -36 -454 -48z" />
<glyph unicode="&#x2014;" horiz-adv-x="1444" d="M321 408l118 328q26 2 54.5 4.5t59.5 7.5l48 131q75 7 173.5 18t210 25t230 30t234.5 33l-99 -316l-125 -20l-37 -122q-231 -41 -446 -71t-421 -48zM543 599q356 31 778 108l72 227q-465 -67 -763 -96z" />
<glyph unicode="&#x2018;" horiz-adv-x="812" d="M348 891l63 271l147 75l15 67l388 201l-45 -155l-23 -22l23 -2l-76 -278l-127 -5l-35 -137zM563 1079l248 12l53 194l-57 5l70 72l22 70l-288 -150z" />
<glyph unicode="&#x2019;" horiz-adv-x="811" d="M461 862l44 157l22 20l-22 4l77 278l125 5l37 137l329 15l-61 -271l-150 -77l-14 -65zM686 1079l287 150l48 203l-246 -10l-55 -195l57 -7l-70 -70z" />
<glyph unicode="&#x201a;" horiz-adv-x="811" d="M193 -133l44 155l22 21l-22 3l77 278l126 5l36 137l330 15l-62 -271l-148 -77l-14 -65zM420 84l287 150l47 203l-247 -12l-55 -195l58 -5l-71 -71z" />
<glyph unicode="&#x201c;" horiz-adv-x="1217" d="M413 913l65 271l145 77l17 67l387 201l-46 -157l-22 -22l19 -2l367 191l-45 -155l-23 -24l23 -1l-76 -277l-127 -7l-35 -136l-330 -16v4zM628 1103l248 10l54 194l-56 7l70 70l20 70l-286 -150zM947 1113l248 12l53 194l-57 5l72 72l20 70l-288 -150z" />
<glyph unicode="&#x201d;" horiz-adv-x="1215" d="M483 882l46 156l22 22l-22 2l75 278l125 5l39 138l329 14l-1 -4l319 16l-62 -272l-150 -78l-13 -65l-388 -201l45 157l20 20l-17 2zM708 1099l289 150l47 203l-247 -12l-53 -194l56 -5l-70 -72zM1029 1109l287 151l46 203l-246 -12l-54 -195l58 -5l-72 -72z" />
<glyph unicode="&#x201e;" horiz-adv-x="1215" d="M263 61l46 156l22 20l-24 4l77 278l125 5l37 136l330 16l1 -4l319 16l-64 -272l-147 -78l-16 -65l-387 -201l46 157l21 20l-19 2zM490 278l287 150l49 203l-247 -11l-57 -195l58 -5l-71 -72zM807 288l289 151l47 203l-247 -12l-53 -195l56 -5l-70 -72z" />
<glyph unicode="&#x2022;" horiz-adv-x="1367" d="M328 500q0 29 5 61t13 67q50 186 210 331q23 20 46 37t45 31q17 20 35 38.5t38 35.5q165 147 345 162q11 2 20 2h19q152 0 232 -110q58 -79 58 -184q0 -58 -18 -124q-26 -94 -78 -177t-134 -155q-42 -39 -89 -68q-17 -19 -36 -38.5t-39 -36.5q-81 -72 -166 -111.5 t-175 -47.5q-11 -1 -21 -1h-20q-152 0 -232 105q-30 39 -44 84.5t-14 98.5zM551 775q-46 -169 37 -279t245 -97q164 16 309 145.5t191 298.5q44 169 -37 280t-245 96q-164 -14 -309.5 -144.5t-190.5 -299.5z" />
<glyph unicode="&#x2026;" horiz-adv-x="1664" d="M244 159q0 11 1.5 24.5t5.5 26.5q8 33 26 62.5t42 55t53.5 44.5t60.5 31q17 32 42 59.5t55 48.5t63 34t66 16h17q58 0 94 -33.5t36 -88.5q0 -5 -1 -9.5t-1 -9.5q17 30 42 56t54 45.5t61.5 32.5t64.5 16h15q45 0 76 -19t45 -53l16 8t17 6q16 32 40.5 59.5t54 48.5 t62.5 34.5t66 16.5h16q59 0 95 -34t36 -89q0 -12 -1.5 -25t-5.5 -26q-8 -34 -26 -65t-43 -56.5t-54.5 -45t-60.5 -30.5q-17 -32 -41.5 -59t-54 -48t-61.5 -34t-65 -16h-15q-43 0 -74.5 17.5t-48.5 51.5q-7 -4 -15.5 -7t-17.5 -5q-17 -32 -41 -60t-53 -48.5t-61.5 -33.5 t-64.5 -15h-17q-60 0 -96.5 35t-36.5 94v14q-17 -31 -41 -57.5t-52.5 -46.5t-60.5 -32.5t-64 -15.5h-16q-59 0 -96 34t-37 91zM456 357q-17 -63 16 -102.5t95 -34.5q61 7 116.5 53t72.5 109q17 62 -15.5 101t-94 34t-117.5 -52t-73 -108zM823 365q-17 -63 17 -102t94 -34 q61 5 117.5 52t73.5 110q15 61 -17.5 100.5t-93.5 34.5q-60 -5 -117 -52t-74 -109zM1215 466q-17 -63 16.5 -102.5t94.5 -34.5q62 7 117 54t73 110q17 62 -15.5 100t-94 33t-118 -52t-73.5 -108z" />
<glyph unicode="&#x202f;" horiz-adv-x="399" />
<glyph unicode="&#x2039;" horiz-adv-x="1111" d="M290 584l360 536h67l95 141l407 10l-359 -513l103 -482l-190 -17l26 -126l-412 -36zM500 732l91 -445l317 27l-94 440l328 471l-314 -6z" />
<glyph unicode="&#x203a;" horiz-adv-x="1114" d="M217 82l370 522l-92 480l186 15l-24 126l415 38l90 -473l-370 -529l-67 -5l-97 -138zM459 275l318 27l337 485l-81 428l-320 -27l84 -435z" />
<glyph unicode="&#x205f;" horiz-adv-x="499" />
<glyph unicode="&#x20ac;" horiz-adv-x="1889" d="M148 121l142 318l104 10l22 51q-23 0 -43.5 -1t-37.5 -1l114 308q9 0 24 1t30.5 2t29.5 2t22 1q1 0 2 -0.5t3 -0.5l51 136q14 2 40.5 3.5t46.5 3.5q44 67 95 125.5t106 111.5q26 21 50.5 41t47.5 38q17 17 33 32t33 31q106 98 216 149.5t225 62.5q15 1 30.5 2t30.5 1 q328 0 415 -340l-179 -92q4 -11 8 -24t9 -27l-378 -191q-9 15 -17 27.5t-18 23.5l-58 -181q-29 -6 -59.5 -14t-65.5 -13l-19 -55q22 2 42.5 5t36.5 5l-103 -312l-119 -12l-5 -10q29 -27 77 -27h15q23 2 45 7.5t45 16.5q20 28 35.5 61t29.5 73l79 -18q24 32 44.5 72t40.5 88 l341 -79q-60 -136 -141.5 -244t-187.5 -189q-9 -8 -19 -15l-20 -14q-29 -31 -59.5 -59.5t-63.5 -54.5q-104 -80 -211.5 -124.5t-222.5 -53.5q-11 -2 -24 -2h-23q-161 0 -260 111q-45 52 -71 119.5t-36 153.5q-45 -5 -91 -10.5t-88.5 -10.5t-79 -10t-61.5 -8zM377 316 q106 13 297 34q14 -184 101 -285q102 -116 283 -101q213 19 402.5 166.5t288.5 366.5l-261 61q-42 -114 -142 -198t-211 -92q-125 -12 -155 114l170 19l74 222q-104 -14 -243 -31q7 51 19 92q5 16 14 43q201 27 302 53l70 210q-181 -26 -268 -38q131 207 300 222 q154 14 212 -99l295 149q-80 309 -432 278q-213 -19 -408 -196q-172 -156 -286 -388q-48 -5 -161 -10l-83 -222q85 2 157 9q-17 -70 -28 -134l-208 -20z" />
<glyph unicode="&#x2122;" horiz-adv-x="1604" d="M502 643q6 30 15 69t19.5 80.5t21 83.5t21.5 78q10 40 22 84t27 92l-126 -5l63 211l119 4l45 140l471 17l-2 -9l44 29l62 -223l68 99l51 -14l113 157l196 -55q-28 -40 -45 -68t-21 -39q-5 -9 -17 -55q-4 -13 -11.5 -36.5t-16.5 -55.5q-6 -26 -14.5 -57.5t-19.5 -66.5 q-4 -14 -8.5 -27t-6.5 -25q-8 -26 -16.5 -56t-16.5 -59.5t-14.5 -55t-10.5 -42.5l-128 -10q-13 -38 -22 -74.5t-14 -57.5l-208 -18q2 9 5 24.5t7 33t7.5 33t5.5 23.5l4 17l-115 -147l-46 132l-22 -2q-9 -35 -15.5 -70t-11.5 -60l-213 -19q5 35 15 74.5t19 79.5l-36 -3 q-3 -11 -5.5 -21.5t-4.5 -21.5q-2 -5 -4.5 -17.5t-6 -26.5t-7 -26.5t-5.5 -18.5zM719 835l128 10q22 95 35 150l46 174q17 56 47 155l117 4q-36 -121 -56 -198q-38 -133 -73 -297l126 12q17 73 36 150q5 19 18 61q11 40 18 62l80 -229l189 244q-39 -123 -58 -194 q-8 -34 -17 -72l126 12q24 84 64 218q49 173 62 220t16 57q12 32 44 75l-124 34l-246 -346l-89 317l-76 -48l11 45l-387 -14l-36 -123l127 4q-36 -115 -64 -219q-39 -145 -64 -264z" />
<glyph unicode="&#x25fc;" horiz-adv-x="1535" d="M0 0v1535h1535v-1535h-1535z" />
</font>
</defs>
</svg>
